<?xml version="1.0" standalone="no"?>
<!DOCTYPE svg PUBLIC "-//W3C//DTD SVG 20010904//EN"
 "http://www.w3.org/TR/2001/REC-SVG-20010904/DTD/svg10.dtd">
<svg version="1.0" xmlns="http://www.w3.org/2000/svg"
 width="994.000000pt" height="994.000000pt" viewBox="0 0 994.000000 994.000000"
 preserveAspectRatio="xMidYMid meet">
<metadata>
Created by potrace 1.14, written by Peter Selinger 2001-2017
</metadata>
<g transform="translate(0.000000,994.000000) scale(0.100000,-0.100000)"
fill="#000000" stroke="none">
<path d="M4690 9918 c0 -7 -6 -25 -14 -39 -22 -43 -77 -188 -102 -272 -28 -95
-44 -173 -58 -297 -3 -19 -5 -232 -5 -472 l-1 -437 -47 5 c-131 13 -552 6
-698 -12 -93 -11 -193 -26 -240 -34 -27 -5 -65 -12 -84 -15 -91 -15 -459 -125
-486 -145 -5 -4 -21 -11 -35 -15 -50 -15 -247 -118 -330 -173 -111 -75 -262
-225 -332 -333 -66 -101 -229 -413 -287 -550 -103 -246 -173 -511 -198 -759
-15 -147 -9 -524 12 -750 2 -25 7 -85 10 -135 3 -49 8 -106 10 -125 2 -19 7
-62 10 -95 14 -149 14 -146 37 -270 6 -33 12 -69 13 -80 15 -109 122 -418 184
-528 10 -18 33 -59 51 -92 44 -81 104 -165 230 -325 127 -161 162 -211 213
-309 83 -157 185 -409 201 -497 36 -189 19 -330 -54 -473 -37 -74 -67 -112
-238 -300 -18 -20 -47 -65 -65 -101 -43 -86 -45 -177 -6 -261 128 -274 726
-559 1794 -855 127 -35 250 -70 275 -77 l45 -13 1 -69 c7 -346 14 -775 15
-881 l1 -129 30 35 c17 19 59 65 95 101 l64 67 -6 498 c-4 275 -10 502 -13
506 -4 3 -88 27 -187 53 -1169 302 -1892 623 -1946 864 -15 67 1 97 131 241
175 193 242 321 268 515 24 187 -8 352 -124 627 -96 227 -169 348 -337 558
-203 253 -313 454 -388 706 -36 121 -72 304 -84 429 -3 33 -8 71 -11 85 -2 14
-7 59 -9 100 -3 41 -7 93 -9 115 -3 23 -7 97 -11 165 -4 69 -11 157 -15 195
-9 75 -5 421 5 495 47 353 126 603 290 924 100 197 127 244 178 321 54 80 196
221 277 274 131 86 321 170 546 241 110 35 338 83 449 95 33 3 71 8 85 10 89
16 578 24 665 11 17 -3 36 -5 43 -5 9 -1 12 -89 12 -407 l0 -406 -32 6 c-18 3
-44 8 -58 11 -14 3 -41 8 -60 11 -19 3 -43 8 -53 10 -10 3 -35 8 -55 10 -20 3
-44 7 -52 9 -15 4 -178 28 -274 40 -77 9 -207 7 -260 -5 -127 -28 -199 -115
-200 -240 -1 -81 6 -112 34 -173 50 -106 155 -187 285 -221 64 -16 244 -39
495 -61 79 -7 156 -16 175 -19 11 -3 28 -5 37 -5 15 -1 18 -15 20 -98 3 -95 3
-96 28 -99 14 -1 70 -5 124 -8 54 -4 117 -9 140 -11 23 -2 82 -6 131 -10 103
-7 162 -12 255 -20 63 -5 103 -8 260 -20 41 -4 91 -8 110 -10 19 -2 73 -7 120
-11 47 -3 92 -8 101 -9 8 -2 55 -6 105 -10 49 -4 91 -9 92 -10 6 -6 -190 -148
-274 -200 -43 -27 -90 -57 -104 -68 -41 -31 -87 -105 -101 -160 -11 -48 -14
-210 -5 -282 3 -16 7 -68 11 -115 4 -47 9 -96 10 -110 2 -14 6 -52 9 -85 4
-33 9 -82 11 -110 15 -143 17 -264 6 -297 -16 -50 -63 -95 -130 -127 -48 -22
-69 -26 -146 -26 -80 0 -97 4 -158 32 -122 58 -253 176 -309 279 -14 27 -43
94 -64 149 -56 150 -110 223 -218 289 -37 23 -136 56 -186 62 -19 3 -48 7 -65
10 -94 14 -562 22 -660 11 -121 -13 -230 -69 -279 -144 -48 -73 -72 -222 -70
-448 1 -206 43 -315 162 -425 124 -114 667 -501 797 -568 85 -43 146 -61 300
-86 l40 -7 0 -92 c2 -268 49 -501 133 -652 45 -82 153 -200 236 -260 138 -98
432 -215 601 -239 22 -4 51 -8 65 -11 14 -2 50 -7 80 -10 94 -9 298 -41 390
-60 14 -3 45 -10 70 -15 25 -5 119 -27 210 -49 91 -21 181 -42 200 -45 19 -3
46 -8 60 -11 29 -6 40 -8 170 -29 185 -30 331 -35 430 -16 174 33 332 186 394
382 46 147 38 301 -23 433 -43 92 -38 115 40 197 65 68 115 160 126 230 7 44
7 71 3 169 -3 64 14 104 60 143 48 40 141 91 201 111 86 28 129 56 156 103 29
48 33 115 13 178 -14 43 -124 265 -178 359 -38 66 -173 277 -182 285 -3 3 -28
34 -55 70 -76 99 -82 106 -205 232 -168 172 -173 187 -160 508 4 104 -16 179
-70 270 -85 142 -266 286 -408 325 -29 8 -38 14 -24 14 32 1 134 31 150 43 6
6 12 8 12 4 0 -8 110 48 164 83 122 79 231 200 295 327 71 142 81 295 24 414
-91 194 -312 328 -833 503 -584 197 -923 291 -1265 351 -16 3 -40 8 -51 10
-32 7 -95 17 -134 22 -19 2 -46 6 -60 9 -14 3 -43 7 -65 10 -22 2 -71 8 -110
14 -38 5 -108 13 -155 17 -47 4 -96 9 -110 10 -14 1 -30 3 -36 3 -9 1 -11 126
-9 474 1 259 5 486 9 502 32 151 43 192 72 276 18 54 49 130 67 171 l34 74
-86 22 c-98 26 -111 27 -111 10z m160 -1713 c41 -3 84 -8 95 -10 11 -3 43 -7
70 -9 262 -26 754 -129 1062 -222 211 -63 713 -234 841 -285 243 -97 379 -189
435 -294 28 -54 30 -170 3 -240 -25 -66 -105 -181 -165 -238 -135 -128 -331
-194 -585 -196 -171 -2 -178 0 -197 52 -23 68 -129 130 -258 152 -19 3 -37 8
-40 10 -4 2 -32 6 -64 10 -110 11 -154 24 -217 61 -250 146 -622 282 -960 350
-69 13 -134 27 -146 29 -21 5 -21 6 -21 424 l0 419 36 -3 c20 -2 70 -6 111
-10z m-890 -866 c88 -12 183 -27 224 -35 11 -2 48 -9 81 -14 71 -12 101 -17
123 -24 19 -5 91 -18 110 -19 9 0 12 -36 12 -144 l0 -143 -22 4 c-13 3 -54 8
-93 11 -38 3 -90 8 -115 10 -70 8 -126 13 -245 25 -189 19 -266 42 -316 97
-73 78 -86 201 -26 231 26 13 173 13 267 1z m980 -185 c192 -46 379 -108 527
-175 23 -10 47 -19 54 -19 20 0 4 -11 -22 -15 -13 -2 -55 -6 -94 -10 -38 -4
-79 -9 -89 -11 -38 -7 -212 -18 -301 -18 -82 -1 -120 3 -210 18 -16 3 -46 8
-66 11 l-36 5 -1 131 0 131 46 -7 c26 -4 112 -22 192 -41z m1030 -442 l125
-74 -95 7 c-52 4 -103 9 -114 11 -10 2 -53 6 -95 9 -42 3 -94 7 -116 10 -22 3
-78 7 -125 11 -47 3 -98 8 -115 10 -16 2 -73 6 -125 10 -52 4 -102 8 -110 10
-8 1 -41 3 -72 3 -32 1 -58 5 -58 9 0 4 8 8 18 8 67 2 234 16 290 24 37 5 101
12 142 16 41 3 76 8 78 9 2 2 58 2 125 1 l122 -1 125 -73z m-1180 41 c0 -2
-20 -3 -44 -2 -25 2 -43 5 -41 9 4 6 85 0 85 -7z m1575 -313 c50 -5 115 -12
145 -15 30 -3 73 -8 95 -10 22 -3 60 -7 85 -9 25 -3 74 -8 110 -11 36 -4 81
-14 100 -22 119 -53 243 -181 281 -288 17 -48 18 -74 14 -222 -8 -259 15 -321
181 -490 226 -232 391 -468 548 -783 36 -74 66 -146 66 -160 0 -23 -8 -28 -71
-50 -152 -51 -300 -165 -350 -267 -20 -42 -22 -61 -21 -163 3 -149 -10 -188
-89 -272 -86 -90 -103 -126 -104 -218 0 -60 5 -86 26 -130 46 -98 49 -108 46
-212 -2 -93 -6 -110 -35 -172 -77 -164 -191 -239 -348 -230 -51 3 -157 14
-184 19 -12 2 -43 7 -68 10 -63 7 -326 61 -446 91 -88 22 -249 57 -316 69 -14
2 -65 11 -114 20 -49 8 -114 18 -145 21 -165 16 -276 38 -401 80 -384 130
-538 290 -594 622 -24 136 -28 176 -30 292 l-3 108 66 16 c119 29 196 105 210
209 9 66 -12 133 -55 178 -54 56 -171 86 -236 61 -64 -26 -124 -120 -148 -235
l-12 -58 -36 7 c-95 16 -166 36 -212 59 -98 50 -637 429 -735 517 -16 14 -39
35 -51 45 -87 75 -114 329 -63 590 12 59 43 93 106 114 67 22 582 13 718 -13
114 -21 189 -75 227 -163 10 -22 34 -83 54 -135 60 -156 142 -262 284 -369
148 -112 267 -152 429 -147 88 2 118 7 176 31 152 61 231 140 265 265 12 45
16 198 6 248 -3 15 -8 63 -11 107 -4 44 -8 94 -10 110 -2 17 -6 56 -9 88 -4
31 -9 83 -12 115 -10 89 -13 130 -14 224 -1 103 20 157 73 184 74 39 418 285
475 341 16 15 21 16 137 3z m-1535 -2138 c0 -25 -34 -72 -53 -72 -11 0 -1 60
15 96 9 18 14 21 25 13 7 -6 13 -23 13 -37z"/>
</g>
</svg>
