<svg xmlns="http://www.w3.org/2000/svg" xmlns:xlink="http://www.w3.org/1999/xlink" width="121.137" height="80.241" viewBox="0 0 121.137 80.241">
  <defs>
    <filter id="Rect치ngulo_588" x="-9" y="0" width="139.137" height="99.241" filterUnits="userSpaceOnUse">
      <feOffset dy="10" input="SourceAlpha"/>
      <feGaussianBlur stdDeviation="3" result="blur"/>
      <feFlood flood-opacity="0.161"/>
      <feComposite operator="in" in2="blur"/>
      <feComposite in="SourceGraphic"/>
    </filter>
    <clipPath id="clip-path">
      <g transform="matrix(1, 0, 0, 1, 0, 0)" filter="url(#Rect치ngulo_588)">
        <rect id="Rect치ngulo_588-2" data-name="Rect치ngulo 588" width="121.137" height="80.241" fill="#fff"/>
      </g>
    </clipPath>
  </defs>
  <g id="arrrow" clip-path="url(#clip-path)">
    <path id="Trazado_1055" data-name="Trazado 1055" d="M282.75,5.124c-.116-.454.439-.365.523-.449,0,.788-.663.449-.523.449" transform="translate(-282.531 -2.726)" fill="#fff"/>
    <path id="Trazado_1056" data-name="Trazado 1056" d="M283.783,24.185l.2-.166-.359,1.2Z" transform="translate(-283.615 -14.005)" fill="#fff"/>
    <path id="Trazado_1057" data-name="Trazado 1057" d="M282.521,34.939c-1-.542-.244-2.6-.757-3.82l-.237-.179.639-.677c.118,1.557-.061,3.628.355,4.676" transform="translate(-281.267 -17.646)" fill="#fff"/>
    <path id="Trazado_1058" data-name="Trazado 1058" d="M275.841,48.684c-.387-.183-.178.865-.244-.868a1.391,1.391,0,0,0,.113.147,7,7,0,0,0,.131.721" transform="translate(-272.062 -27.88)" fill="#fff"/>
    <path id="Trazado_1059" data-name="Trazado 1059" d="M275.572,47.812c-.088-.753.369.447,0,0" transform="translate(-271.924 -27.729)" fill="#fff"/>
    <path id="Trazado_1060" data-name="Trazado 1060" d="M273.542,55.093l.164-1.032c.239.176.419,1.048.52.7-.018,1.037-.256.859-.683.333" transform="translate(-269.571 -31.522)" fill="#fff"/>
    <path id="Trazado_1061" data-name="Trazado 1061" d="M276.026,58.269l.055-.531c.1.077.151.208-.055.531" transform="translate(-272.572 -33.666)" fill="#fff"/>
    <path id="Trazado_1062" data-name="Trazado 1062" d="M276.317,55.039l-.116,1.125c-.167-.122-.462-.095.026-.513-.254.128-.029-.124.09-.612" transform="translate(-272.692 -32.092)" fill="#fff"/>
    <path id="Trazado_1063" data-name="Trazado 1063" d="M277.2,51.48c-.28-.525-.512-1.222-.674-.186-.161-1.906.515-1.72.674.186" transform="translate(-273.804 -29.126)" fill="#fff"/>
    <path id="Trazado_1064" data-name="Trazado 1064" d="M283.768,40.736l-.376-.7.205-.684c-.1.341.46,1.391.171,1.386" transform="translate(-283.392 -22.944)" fill="#fff"/>
    <path id="Trazado_1065" data-name="Trazado 1065" d="M272.684,69.643c-.183.09-.562-.258-.818-.3l.11-.761c.188.356.416,1.048.709,1.056" transform="translate(-267.316 -39.991)" fill="#fff"/>
    <path id="Trazado_1066" data-name="Trazado 1066" d="M274.042,70.408l-.164,1.139c-.187-.969-.057-1.169.164-1.139" transform="translate(-269.492 -41.051)" fill="#fff"/>
    <path id="Trazado_1067" data-name="Trazado 1067" d="M277.661,57.135l.421-1.892-.378,2.239Z" transform="translate(-275.182 -32.211)" fill="#fff"/>
    <path id="Trazado_1068" data-name="Trazado 1068" d="M269.659,80.149l.351-.683-.5,1.2Z" transform="translate(-263.637 -46.335)" fill="#fff"/>
    <path id="Trazado_1069" data-name="Trazado 1069" d="M267.469,87.556c.3-.511.718.537.871.02a5.567,5.567,0,0,1-.368,2.065,3.521,3.521,0,0,0-.5-2.085" transform="translate(-261.106 -50.967)" fill="#fff"/>
    <path id="Trazado_1070" data-name="Trazado 1070" d="M268.349,93.79a6.443,6.443,0,0,1,.268-1.029,3.318,3.318,0,0,1-.268,1.029" transform="translate(-261.751 -54.086)" fill="#fff"/>
    <path id="Trazado_1071" data-name="Trazado 1071" d="M271.7,77.565a1.213,1.213,0,0,1,.678.779l-.605-.351-.073-.428" transform="translate(-266.938 -45.226)" fill="#fff"/>
    <path id="Trazado_1072" data-name="Trazado 1072" d="M272.719,78.563l.02.013.17.923c-.024-.118-.081-.4-.19-.935" transform="translate(-267.904 -45.808)" fill="#fff"/>
    <path id="Trazado_1073" data-name="Trazado 1073" d="M273.328,77.307l.019.108c-.059-.033-.081-.056-.019-.108" transform="translate(-268.586 -45.076)" fill="#fff"/>
    <path id="Trazado_1074" data-name="Trazado 1074" d="M277.469,66.469c-.2.685-.327,2.068-.982.842.3-.513.674.188.982-.842" transform="translate(-274.069 -38.756)" fill="#fff"/>
    <path id="Trazado_1075" data-name="Trazado 1075" d="M274.965,74.448l-.3-1.141c.146,0,.385.181.487-.158Z" transform="translate(-270.979 -42.651)" fill="#fff"/>
    <path id="Trazado_1076" data-name="Trazado 1076" d="M274.85,76.856l.086-.592.111.423Z" transform="translate(-270.949 -44.468)" fill="#fff"/>
    <path id="Trazado_1077" data-name="Trazado 1077" d="M271.374,90.023a4.519,4.519,0,0,0-.04,1.709,12.8,12.8,0,0,1-.465-1.975c.156-.116.416-.447.505.266" transform="translate(-265.581 -52.231)" fill="#fff"/>
    <path id="Trazado_1078" data-name="Trazado 1078" d="M272.16,84.79c-.007.036-.006.082-.014.116-.056-.062-.079-.115.014-.116" transform="translate(-266.89 -49.439)" fill="#fff"/>
    <path id="Trazado_1079" data-name="Trazado 1079" d="M268.906,109.176l-.113-.083c.03-.012.06-.022.09-.036Z" transform="translate(-262.229 -63.588)" fill="#fff"/>
    <path id="Trazado_1080" data-name="Trazado 1080" d="M272.157,88.224a1.369,1.369,0,0,1,.031-1.107,8.9,8.9,0,0,0,.086,1.2c-.07.052-.12.068-.118-.1" transform="translate(-266.987 -50.796)" fill="#fff"/>
    <path id="Trazado_1081" data-name="Trazado 1081" d="M269.33,98.244a7.226,7.226,0,0,1-.428-.82c.21.229.554.708.428.82" transform="translate(-262.728 -56.805)" fill="#fff"/>
    <path id="Trazado_1082" data-name="Trazado 1082" d="M271.493,85.309a.561.561,0,0,0,.013-.078c.141.146.081.134-.013.078" transform="translate(-266.062 -49.696)" fill="#fff"/>
    <path id="Trazado_1083" data-name="Trazado 1083" d="M271.949,85.213a3.01,3.01,0,0,1-.23.708,4.913,4.913,0,0,1,.055-.854.758.758,0,0,0,.175.146" transform="translate(-266.518 -49.6)" fill="#fff"/>
    <path id="Trazado_1084" data-name="Trazado 1084" d="M269.058,110.383c.487-.161.752-1.537.044-2.59.207-1.167,1.963-.678,3.031.159-.213.066-.415.1-.537,1.284-.334-.361-1.023-2.448-1.33-1.416-.028,1.554.365,1.217.741,1.916-.719-.536-.616,2.061-1.583,1.864l.122-1.377c-.146,0-.3.511-.487.161" transform="translate(-265.569 -62.449)" fill="#fff"/>
    <path id="Trazado_1085" data-name="Trazado 1085" d="M267.81,103.257l-.009-.48a4.875,4.875,0,0,0,.925,1.531c-.126.819-.287,1.009-.445,1.087l-.421-2.31Z" transform="translate(-261.627 -59.927)" fill="#fff"/>
    <path id="Trazado_1086" data-name="Trazado 1086" d="M271.25,95.977c-.489.447-.55,1.612-1.243,1-.172-1.388.308-1.035.419-1.895.2,2.251.207-.685.759.882a8.031,8.031,0,0,0-.038-1.226,11.343,11.343,0,0,0,.423,1.118l-.042-.046V95.8l-.009,0c-.082-.086-.129-.112-.073-.01a.134.134,0,0,0,0,.048.565.565,0,0,0-.19.13c.21.63.157.081.19-.13a.423.423,0,0,1,.077-.039.033.033,0,0,1,.008.007l.04,2.278a10.549,10.549,0,0,1-.318-2.115" transform="translate(-265.395 -55.242)" fill="#fff"/>
    <path id="Trazado_1087" data-name="Trazado 1087" d="M280.8,71.754a.145.145,0,0,0,.138.053c-.045.154-.083.216-.138-.053" transform="translate(-279.371 -41.838)" fill="#fff"/>
    <path id="Trazado_1088" data-name="Trazado 1088" d="M276.864,71.779a1.054,1.054,0,0,0,.112-.861c-.232-.434-.261.04-.443.042.1-.339.222-1.171.637-.211l-.05.169c.323.872,1.177,1.93,1.229,1.762a3.787,3.787,0,0,1-1.485-.9" transform="translate(-274.969 -40.992)" fill="#fff"/>
    <path id="Trazado_1089" data-name="Trazado 1089" d="M276.242,85.976l.014,1.9-.614-.88.29.007c-.271-1.042.112-.864.31-1.027" transform="translate(-272.496 -50.13)" fill="#fff"/>
    <path id="Trazado_1090" data-name="Trazado 1090" d="M266.93,109.3l.538-.33-.649,1.193Z" transform="translate(-259.95 -63.536)" fill="#fff"/>
    <path id="Trazado_1091" data-name="Trazado 1091" d="M266.241,115.357l.487-.162-.2.682Z" transform="translate(-258.964 -67.167)" fill="#fff"/>
    <path id="Trazado_1092" data-name="Trazado 1092" d="M247.936,140.932l.308-.463a2.451,2.451,0,0,1-.308.463" transform="translate(-232.686 -81.904)" fill="#fff"/>
    <path id="Trazado_1093" data-name="Trazado 1093" d="M251.514,150.35l-.267.026c.183-.137.3-.181.267-.026" transform="translate(-237.372 -87.608)" fill="#fff"/>
    <path id="Trazado_1094" data-name="Trazado 1094" d="M187.738,136.393c.688-.655,1.421-1.585,1.464-1.02l-.111.589a2.992,2.992,0,0,0-1.353.431" transform="translate(-148.01 -78.83)" fill="#fff"/>
    <path id="Trazado_1095" data-name="Trazado 1095" d="M228.6,162.35l.122-.263c.268.061.517.113.745.172-.264.02-.557.056-.867.09" transform="translate(-205.668 -94.509)" fill="#fff"/>
    <path id="Trazado_1096" data-name="Trazado 1096" d="M235.311,158.78l-.764.852a4.825,4.825,0,0,1,.764-.852" transform="translate(-214.051 -92.58)" fill="#fff"/>
    <path id="Trazado_1097" data-name="Trazado 1097" d="M224.048,96.418l.809-.217c-.526.807-.534.3-.809.217" transform="translate(-199.126 -56.092)" fill="#fff"/>
    <path id="Trazado_1098" data-name="Trazado 1098" d="M259,164.654l.057-.015c.018-.006.03,0,.065-.048a4.534,4.534,0,0,1,.561-.548,7.05,7.05,0,0,1-.792,1c-.009.006-.018.014-.023.013a.18.18,0,0,1,0-.03.447.447,0,0,1,.017-.086,2.133,2.133,0,0,1,.115-.288" transform="translate(-248.782 -95.65)" fill="#fff"/>
    <path id="Trazado_1099" data-name="Trazado 1099" d="M261.865,140.489c.2-.3.353-.414.468-.368-.2.314-.36.478-.468.368" transform="translate(-252.706 -81.695)" fill="#fff"/>
    <path id="Trazado_1100" data-name="Trazado 1100" d="M258.1,163.071c-.044.084-.086.136-.135.213a.438.438,0,0,0-.435.089c.313-.427.447-.665.569-.3" transform="translate(-246.629 -94.979)" fill="#fff"/>
    <path id="Trazado_1101" data-name="Trazado 1101" d="M71.723,14.025c.057-.025.126-.038.178-.068.017.073-.061.078-.178.068" transform="translate(18.692 -8.138)" fill="#fff"/>
    <path id="Trazado_1102" data-name="Trazado 1102" d="M16.963,6.538A8.253,8.253,0,0,0,16,6.291a2.892,2.892,0,0,1,.962.248" transform="translate(97.361 -3.668)" fill="#fff"/>
    <path id="Trazado_1103" data-name="Trazado 1103" d="M263.341,138.488c-.041-.518.049-.09,0,0" transform="translate(-254.353 -80.602)" fill="#fff"/>
    <path id="Trazado_1104" data-name="Trazado 1104" d="M269.577,133.611a.348.348,0,0,1-.235.243.442.442,0,0,0,.235-.243" transform="translate(-263.135 -77.905)" fill="#fff"/>
    <path id="Trazado_1105" data-name="Trazado 1105" d="M247.6,167.372l.04-.021c-.094.163-.078.134-.04.021" transform="translate(-231.92 -97.578)" fill="#fff"/>
    <path id="Trazado_1106" data-name="Trazado 1106" d="M263.608,137.075a3.976,3.976,0,0,1,.262.632,4.137,4.137,0,0,1-.262-.632" transform="translate(-254.986 -79.925)" fill="#fff"/>
    <path id="Trazado_1107" data-name="Trazado 1107" d="M263.686,136.576l-.121-.441c.081-.078.148-.029.121.441" transform="translate(-254.789 -79.359)" fill="#fff"/>
    <path id="Trazado_1108" data-name="Trazado 1108" d="M263.362,139.414a4.7,4.7,0,0,0-.182-.822c.052.1.089.133.1.1.016.151.04.365.078.718" transform="translate(-254.295 -80.809)" fill="#fff"/>
    <path id="Trazado_1109" data-name="Trazado 1109" d="M166.826,35.122a1.183,1.183,0,0,0,.071-.1c.568-.056.35.023-.071.1" transform="translate(-117.142 -20.41)" fill="#fff"/>
    <path id="Trazado_1110" data-name="Trazado 1110" d="M169.458,133.9c.027,0,.042.015.066.02l-.08.027Z" transform="translate(-120.542 -78.074)" fill="#fff"/>
    <path id="Trazado_1111" data-name="Trazado 1111" d="M169.632,133.622a2.079,2.079,0,0,0,2.034.163c-.155.542-.3,1.075-.445,1.621q-.769-.9-1.59-1.785" transform="translate(-122.764 -77.911)" fill="#fff"/>
    <path id="Trazado_1112" data-name="Trazado 1112" d="M17.512,50.465l-.067,1.345c1.379-1.058,1.565-2.149,1.721-.805-.816-.269-1.391.809-1.9,1.918-.527,1.1-1,2.219-1.846,2l.036.9c.072-.228.181-.228.251-.453a1.028,1.028,0,0,1-.784,1.279,1.845,1.845,0,0,0-1.295,1.493c-.11.738-.034,1.295.322.886-.316.468-.606.947-.908,1.425-.11.463.213.437.323-.022-.3.774-.567,1.559-.844,2.342l.055-.005a9.707,9.707,0,0,0-1.25,1.283c.076.675.261-.263.428-.053-.258.409-.506.825-.751,1.242.308.651.987-.365,1.179-1.293.67.832.5,1.074.192,1.484a2.8,2.8,0,0,0-.467.826,2.106,2.106,0,0,0-.079.309c-.009.056-.018.115-.028.176a.25.25,0,0,0,.006.085.7.7,0,0,0,.175.332c.054-.07.107-.141.157-.195a.6.6,0,0,0,.182-.307.722.722,0,0,0,.448.388,1.269,1.269,0,0,1,.215.12c.1.056.151.137.486.039a1.971,1.971,0,0,1-.989.084c-.4-.051-.788-.228-1.082.123.1.181.129.32-.33.851.689-.286.469.05.363.465l.974-.715a8.789,8.789,0,0,1-.594.686,8.336,8.336,0,0,0-.723.855c.025.431.827-.409,1.507-1.181.066.044-.26.435-.626.821a3.128,3.128,0,0,0-.923,1.35c.083.027.12.092.114.216a1.441,1.441,0,0,1-.035.226.14.14,0,0,1,.1,0c.113.045.148.261.362.4a1.6,1.6,0,0,0,.453-.748,1.375,1.375,0,0,1,.214-.548,3.305,3.305,0,0,0-.1.824,1.382,1.382,0,0,0,.24-.528c.078.1-.013.393-.08.671s-.1.528.219.446c-.064.566.5-.183.934-.833a5.574,5.574,0,0,1,.619-.823.624.624,0,0,1,.7-.145.332.332,0,0,0-.124-.361.792.792,0,0,1-.237-.363,3.494,3.494,0,0,0,.377.012,1.054,1.054,0,0,0,.259-.065l.262-.08c.324-.1.562-.17.795-.223a16.7,16.7,0,0,1,1.952-.289c.368-.432.738-.865,1.12-1.286-.72,1.119.986.952,2.432.789a11.316,11.316,0,0,1-.534,1.085c.684-.227,1.358-.469,2.044-.68.155-.236-.169-.373-.643-.5.16-.013.313-.022.437-.02.511-.62-.062-.835-.769-.958-.149.259-.284.536-.413.806-.7-.156-1.41-.37-1.56-.828a1.98,1.98,0,0,0,.719-.168c-.187-.044-.325-.1-.311-.2s.3-.069.712-.069l-.03-1.013.285.25,2.2-1.849c1.126-.07,2.228-.018,3.422-.07a14.525,14.525,0,0,0,1.891-.162c.33-.051.671-.118,1.022-.2s.723-.168,1.1-.284c-1-.286-.6-.906-.967-1.6a1.114,1.114,0,0,1-.6.579,4.1,4.1,0,0,1-.962.3,6.947,6.947,0,0,0-2.3.727c.739-.467.405-.7.141-.727l3.035-.607c-.333-.549.382-.684,1-1.235-.014.69.586.66,1.342.444a13.543,13.543,0,0,1,2.337-.614c-.083-.42-.515-.716-1.875-.085a1.526,1.526,0,0,1,1.865-.412,1.676,1.676,0,0,0,1.881-.262c-.348.1-.511.227-.721.071.932.085,2.8-.847,2.223-1.043l-.349.106c.283-.109.6-.243.953-.35s.735-.216,1.128-.321a16.815,16.815,0,0,1,2.425-.507,11.662,11.662,0,0,1,2.109-.11c.574.043.987.206,1.122.448a5.655,5.655,0,0,0-.738-1.4A45.453,45.453,0,0,1,49,59.341a5.494,5.494,0,0,1-.055-1.957,1.335,1.335,0,0,0-1.258-1.537,4.835,4.835,0,0,1,2.478-.226l.637,4.9-.074-.007a.345.345,0,0,0,.063-.049l-.623-4.788c-.381.276-.773,1.373-.267,1.4.2-.165.359-.3.339-.387l.361,2.774c-.859.735-.806.477-2.118,1.488.514-.294-.393-1.593-1.266-1.36.182.181.226,1.4.575,1.477l-2.478-.908c.6.131.362,1.143-.029,1.634.159-.324-1.852.462-2.458.461l.833-.532a3.178,3.178,0,0,1-2.642-.28,3.283,3.283,0,0,0-2.677-.335c.375.2,1.2,1.523.04,2.033a20.3,20.3,0,0,0-2.306-1.509,7.039,7.039,0,0,0-3.5-.979l-.282.525-1.8.086a32.67,32.67,0,0,0,3.214,1.284,34.2,34.2,0,0,0,3.509,1.1c-.8.566-.109.536-1.456.9-.354.511.9.342,1.3.246-1.005.394-2.014.77-3.011,1.177-.125-.846-2.622-.04-2.737-.741,1.22-.082,2.426-.188,3.639-.243-.112-.851-2.7-1.677-4.869-.781-.446.509.92,1.269.965,1.551a4.2,4.2,0,0,0-2.386.457l1.079.1c-1.1.7-2.365-.337-3.525.944-.483.234-1.071,1.583-1.345,1.151.438-1.2-.5-4.036-1.323-4.488-.077.065-.661.541-1.269,1.081a8.714,8.714,0,0,0-1.424,1.505c-.517,1.032,1.942,1.141,1.5,2.026-.121-.2-.681-.274-.906-.28-.439.4.5.565-.666.937-.538-.71-2.24,1.061-.824-.434-1.2.26-1.091.67-2.388,1.2.173-.69-1.952-1.169-3.168-.873.161.165.04.534-.022.705-1.094.581-1.872,1.082-2.753,1.647-.856.567-1.771,1.146-2.915,1.756-.137.192-.511.524-.83.851s-.581.644-.4.758a1.405,1.405,0,0,0-1.191.119c-1.016.971-.634.8-.161.6.451-.19.995-.409.09.587.089-.3-.257-.3-.716-.208l-.027-.037v-.094l0-.193c0-.127,0-.257,0-.389v-.778c0-.512.005-1,.029-1.425.222-.166.354,0,.428.348a4.462,4.462,0,0,1,.074.664c0,.136.009.276.014.417l0,.225c0,.073-.012.179.036.162.431-.1.874-.162,1.224-.219A1.724,1.724,0,0,0,7.078,72.8c0-.015-.018-.011-.015-.042l.022-.115.043-.23.081-.454q.067-.41.144-.874c.087-.564.155-1.084.2-1.556.048-1.47-.706-.008-.6-.354a3.794,3.794,0,0,1-.043-1.634A2.388,2.388,0,0,1,7.1,67c.038-.077.078-.148.12-.215a1,1,0,0,0,.061-.1l.055-.138a2.994,2.994,0,0,0-.084-2.769c-.854-1.055-1.36.144-1.889-.041a4.232,4.232,0,0,0,.4,1.846c.108.251.221.486.314.722.047.118.089.237.123.359a2.342,2.342,0,0,1,.073.348c-.078-.158-.168-.387-.253-.583l-.256-.61a3.344,3.344,0,0,0,.1,2.043,3.144,3.144,0,0,1-.487-1.3c-.145-.635-.278-1.426-.419-2.272A29.763,29.763,0,0,0,3.885,59.38c.155-.512.266-1.375.6-1.023l.034.868c.667.706.514-1.718.934-.674a7.534,7.534,0,0,0,.069-4.143L4.7,54.218c.232,0,.621.988.454,1.476.241-.723-1.424-2.322-.52-3.206L5.34,53.54c.215-1.207.823-2.749.362-4.143.864.54-.038.342,1.011,1.228-1.247-.719.6,3.651-.784,2.406,1.2.892.714,1.741,1.806,2.976-.262-.005-.562-.412-.254.77a1.241,1.241,0,0,0-.185.3l.031.078-.04-.062c-.031.058-.038.063-.014-.023a1.38,1.38,0,0,0-.481-.555c-.5.681-.189,2.587-.4,3.277.229.695.248-.341.58.009l-.308,1.03c.582.013,1.229,1.756,1.308.03l.254,1.507a5.2,5.2,0,0,1,.64,2.836,2.225,2.225,0,0,1-.048,1.12.9.9,0,0,1-.052.174.275.275,0,0,0-.032.037s.005,0,.026-.012.059-.01.1-.114v.07l-.007.025-.014.052-.029.108-.055.232q-.053.243-.1.527l.133-.08a3.285,3.285,0,0,1-.01.959c-.017.2-.036.409-.045.623,0,.107-.007.213-.006.318l0,.153,0,.074c0,.025,0,.057.024.035a3.178,3.178,0,0,0,1.28-1.2.821.821,0,0,0,.4.01,1.291,1.291,0,0,0,.569-.33,4.707,4.707,0,0,0-.092-.5.179.179,0,0,0,.111-.022c.119-.059.288-.152.436-.241.307-.183.626-.4.934-.591.614-.389,1.192-.688,1.51-.558.465-1.689,4.605-2.4,6.25-3.3l.315.558A19.291,19.291,0,0,1,24.458,62.2l.114.557a5.743,5.743,0,0,0,2.384-.9,17.078,17.078,0,0,1,2.87-1.33c-.212-.161-.715.077-1.041.325a5.872,5.872,0,0,1,3.772-1.372,7.136,7.136,0,0,0,3.714-.963,2,2,0,0,0,1.371-.389.4.4,0,0,1-.149.011,2.2,2.2,0,0,1,.231-.071c.224-.163.451-.344.709-.5a3.46,3.46,0,0,1-.583.468,9.808,9.808,0,0,1,1.814-.245l.122-.654c.055-.006.1-.018.156-.023.586-.381.588.144.362.67a3.809,3.809,0,0,1,.952.131c.283-1.067,1.791-.085,2.259-1.262.557.381,3.4-.35,3.963.626-.006-.14.174-.242-.183-.182a3.751,3.751,0,0,1,2.131-.353l.166-.813.362.142.53,4.073-1.3-.7c-.9.559-1.236.864-.257,1.36a12.012,12.012,0,0,0-1.3-.323c-.313-.038-.535-.045-.746-.054a6.845,6.845,0,0,1-1.838-.329l.186.472a9.6,9.6,0,0,1-1.241-.056c-.43-.025-.818,0-.975.24a5.721,5.721,0,0,1-1.74.87c-.4.148-.843.293-1.32.439-.238.075-.486.143-.737.226l-.766.266-1.6.556c-.542.193-1.074.436-1.6.665s-1.042.467-1.52.742a15.462,15.462,0,0,0-1.336.854c.051-.818-.306-.486-.749-.072s-.954.944-1.276.461c-.059.411-.468.821.242.818-1.983.544-2.452,1.82-4.152,1.612-.037.41.63.248.546.522-.179.008-.716.027-.8.314s.4.105.756.1c-1.832.924-2.549.113-3.189-.683a1.886,1.886,0,0,1-2.182.958c-.151.468-.5,1.069.682.516-.3.211-1.212.855-2.084,1.415s-1.741.969-1.992.651c-.1.294-.815.585-1.074.636-1.843,1.221-2.028,1.432-3.88,2.56l.511-.493c-.363-.343-.674-.2-1.12.151a12.735,12.735,0,0,1-1.695,1.3l-.005.123a22.3,22.3,0,0,1-1.806,1.513,2.361,2.361,0,0,1-.652.362,2.16,2.16,0,0,0-.646.381c-.36.273-.919.751-2,1.721l.891-1.326c.367-.716.222-.723-.222-.357-.1.058-.215.139-.346.231a1.912,1.912,0,0,1-.2.131l-.06-.115a3.463,3.463,0,0,1-.264-.55,3.345,3.345,0,0,1,.056-2.08,3.151,3.151,0,0,0,.313.271c.319-.85-.1-.974-.595-1.246A1.624,1.624,0,0,1,4.33,73.89c-.089-.219-.271.644-.408,1.154a4.093,4.093,0,0,1-.013-1.585.812.812,0,0,1,.41-.54c.363-.221.82-.429,1.128-1.768-.2-.126-.525.17-.779.291s-.43.035-.313-.962a3.416,3.416,0,0,1,.311-1.409c.236-.67.534-1.468.861-2.27.156-.4.325-.812.473-1.214.041-.117.064-.162.092-.229l.078-.193c.049-.129.1-.256.141-.385a2.9,2.9,0,0,0,.151-1.491c.233.451.464.89.919.109.447-1.242-.263-3.815,1.125-4.666-.036-.188-.1-.275-.178-.306.558-.9,1.484-3.006,2.239-3.384-.844-.792-.03-2.2.782-3.446a10.977,10.977,0,0,0,1.009-1.689c.2-.474.184-.843-.264-1.031l.7-1.41.738-1.392-.215-.011a5.584,5.584,0,0,1,1.165-1.887,4.24,4.24,0,0,1,1.128-.8c.11-.464-.216-.255-.325-.268A10.539,10.539,0,0,1,16.638,40.4a9.68,9.68,0,0,1,2.121-1.839l-.4-.545c.342-.181.687-1.214,1.3-2.423a10.251,10.251,0,0,1,2.618-3.561.49.49,0,0,0-.422.084,8.514,8.514,0,0,0,1.7-2.007c.5-.759.981-1.551,1.443-2.28a7.323,7.323,0,0,1,1.478-1.76,1.813,1.813,0,0,1,1.7-.427L30.1,24.51c-1.82,2.076,1,.4.475,1.463.83-.673,1.513-2.407.459-1.59l-.071.222c-1.2-.5,2.205-2.644,1.616-3.165,1.055-.879,2.044-1.818,3.094-2.676l1.536-1.326.76-.666.789-.627,1.57-1.249c.522-.415,1.04-.834,1.59-1.2l1.631-1.12c.55-.359,1.079-.745,1.654-1.053l-.04,1.078,1.542-.92c.3-.414.2-.932-.916-.271.334-.781,2.116-.674,2.239-.514.5-.387.672-.608.652-.725s-.242-.154-.5-.136c-.516.03-1.209.207-.873.008l.962-.451c-.055.065-.106.139-.159.208.942-.065,1.2.266,2.566-.458.8-.595.2-.728.531-.931-.031-.057.074-.143.523-.285.682-.344,1.378-.658,2.069-.988L53.26,8.16c1.074-.074,1.943-.878,1.318.285A3.834,3.834,0,0,1,56.16,7.116a25.524,25.524,0,0,1,2.7-1.165c.957-.363,1.932-.617,2.7-.875A7.063,7.063,0,0,0,63.1,4.46a7.793,7.793,0,0,0,2.193-.142c.363-.071.73-.163,1.108-.27l1.191-.314c-.38.243-.422,1.087.981.659-.46-.754.156-1.084,1.005-1.408S71.517,2.417,72,1.7c-.454.5.6.337,1.581.256.989-.058,1.9-.06,1.16.626,1.2-.319-.027-.631.845-1.162a8.9,8.9,0,0,0,1.15,0c.389-.018.785-.046,1.185-.1.8-.095,1.624-.266,2.472-.428S82.111.586,83,.456a17.986,17.986,0,0,1,2.72-.174c.065.217-.529.582.265.872C86.61.75,87.242.377,87.881,0c.73.1.682,1.257,1.994.475-.186.186-.461.469.02.535a39.6,39.6,0,0,1,10.848.331,55.713,55.713,0,0,0,11.009.724c-1.057.223-.419.394.315.558-.5,0-.1.534-.261.807,1.044-.065,2.095-.12,3.152-.149.336.913,3.163.861,3.248,1.726q-.444-.2-.89-.4c.489.618-.093,1-.792,1.38s-1.527.783-1.59,1.385c-.533-.679-1.52-.519-2.587-.4a3.6,3.6,0,0,1-3.18-.792c-.537.152.345.455.029.68-.463-.6-1.125-.851-2.431-.818l.122.148a20.263,20.263,0,0,0-2.357-.344c-.712-.062-1.369-.1-2.043-.091-1.347-.01-2.753.056-4.765.066l.344-.571a3.825,3.825,0,0,0-1.48.316c-.931-.963,2.429.112,1.6-.936a2.5,2.5,0,0,1-1.495.434c-.643.034-1.394-.008-2.136-.018A13.244,13.244,0,0,0,92.5,5.1a1.669,1.669,0,0,0-1.248.609c-1.325-.01.4-.681-.932-.69l-.353.366-.337-.476c-.874.093-1.306.564-1.332.878a3.742,3.742,0,0,1,.823.1,4.727,4.727,0,0,1-2.046.14,6.146,6.146,0,0,0-1.5-.049l1.257-.289c-.9-.043-1.857-.033-2.832,0-.974.05-1.967.144-2.959.212a41.873,41.873,0,0,1-5.724.259l.218-.316a7.516,7.516,0,0,0-1.525.058,4.588,4.588,0,0,0-.9.277,8.305,8.305,0,0,1-2.563.64l.118.041a4.793,4.793,0,0,0-2.21.115c.8.151-1.2.932-.165,1.064-.737.018-1.191.06-1.5.057a1.694,1.694,0,0,1-.608-.078,5.571,5.571,0,0,0-1.52-.534l-.293.562a3.039,3.039,0,0,0-2.32-.065c1.277.005-.664.96.786,1.044a5.478,5.478,0,0,1-1.826.9,10.13,10.13,0,0,1-1.553.324c-.937.145-1.68.262-2.038,1.208-.89-.306-.37-.764.313-1.06s1.473-.529,1.051-.518c.477-.618-1.464-.5-2.317,0-.451.21-.676.755-1.063,1.364a4.582,4.582,0,0,1-.756.927,4.185,4.185,0,0,1-.565.438,4.871,4.871,0,0,1-.726.425c.216-.113.273-.033.488-.144-.67.7-1.811.393-2.571,1.36a1.087,1.087,0,0,0-1.062.11.577.577,0,0,1-.844-.167l1.045-.448,1.068-.4a5.406,5.406,0,0,1-1.017.138c-.357.027-.721.066-1.1.13A4.3,4.3,0,0,0,47,14.784a3.975,3.975,0,0,0,1.39-.071c-.387.557-1.149.4-1.539.99.665.74,2.508-1.15,4.062-1.152-.363.683-2.6.618-1.467,1.222a1.629,1.629,0,0,0-1.833.376,3.207,3.207,0,0,1-2.107.935l.419.443a3.633,3.633,0,0,0-1.286.377l1.166.186a1.933,1.933,0,0,0-.937.356,3.085,3.085,0,0,0-.688.683,3.385,3.385,0,0,1-1.414,1.263c2.181-1.506.065-.925.738-1.93-1.591.627-1.758,1.221-1.91,1.883a3.426,3.426,0,0,1-1.808,2.427c.44-.237,1.237-1.427.454-1.165a5.675,5.675,0,0,0-1.188,1.778c-1.981,1.406-.11-.7-1.159-.341-.165,1.079-1.105.553-2.087,1.084l.4.455a3.211,3.211,0,0,1-1.013.861.712.712,0,0,1-.57-.021c-.322-.12-.615-.253-1.377.778l1.371-.121-1.111.734.687.308a4.912,4.912,0,0,0-2.432,2.146c-.091-.523-.942-.625-1.8.282-.3.861.755.038-.5,1.266.56-.043,1.209-.037,1.3-.967.2.076.548-.028.747.046-.294.939-1.469,1.7-1.868,2.188a1.924,1.924,0,0,0,.332-.605l-2.3,1.373c-.076.449.269.318.614.2a10.077,10.077,0,0,0-1.334,1.007c.515.151.894.5,1.733-.175L26.77,35.4c.068.252-.253,1.328.077,1.187-.549,1.2-2.706,2.048-3.346,3.731a1.209,1.209,0,0,0-.572.4c-.2.361-.37.726-.529,1.1s-.3.747-.476,1.115a7.287,7.287,0,0,1-.63,1.088,5.624,5.624,0,0,1-.939,1.061c.085.464.158.917.257,1.38-.888,1.258-.3-1.849-1.79.262-1.1,1.484.369.934.309,1.607A9.317,9.317,0,0,0,17.664,49.6a3.387,3.387,0,0,0-.866,2.186,7.54,7.54,0,0,0,.713-1.319M11.395,67.4c.085-.09.244-.211.339-.307s.121-.174-.047-.256c-.367.024-.482.117-.484.221s.112.219.191.342m12.219-2c-.352-.035-.7.269-1.024.71a2.686,2.686,0,0,0,1.024-.71M8.047,63.581a.21.21,0,0,1-.023.044c.364.8.225.518.023-.044m-.527-1.7c.059-.186.145-.187.241-.125-.136.143-.088.535.023.972-.178-.1-.322-.309-.264-.847M51.489,8.522l-.252.3c.8-.2.53-.24.252-.3" transform="translate(1.295 -0.001)" fill="#fff"/>
    <path id="Trazado_1113" data-name="Trazado 1113" d="M234.149,159.222a.565.565,0,0,0,.026.366c-.185-.01-.25-.109-.026-.366" transform="translate(-212.686 -92.838)" fill="#fff"/>
    <path id="Trazado_1114" data-name="Trazado 1114" d="M225.948,96.743c.006-.019.018-.034.025-.052a.272.272,0,0,1,.125.011Z" transform="translate(-201.176 -56.376)" fill="#fff"/>
    <path id="Trazado_1115" data-name="Trazado 1115" d="M228.886,164.94a1.594,1.594,0,0,0,.52-.555c.077.129-.026.307-.52.555" transform="translate(-205.759 -95.849)" fill="#fff"/>
    <path id="Trazado_1116" data-name="Trazado 1116" d="M264.922,126.01l.01,1.134a1.974,1.974,0,0,0-.351-.972c.146,0,.384.186.342-.163" transform="translate(-256.462 -73.473)" fill="#fff"/>
    <path id="Trazado_1117" data-name="Trazado 1117" d="M276.145,103.458c.05-.173-.044-.346.008-.517l.29,0c.086.7-.069,1.212-.3.514" transform="translate(-272.917 -60.022)" fill="#fff"/>
    <path id="Trazado_1118" data-name="Trazado 1118" d="M270.011,122.109c-.526-.014-.458-.736-.48-1.529a.8.8,0,0,0,.021.138c.683-.334.571.531.459,1.391" transform="translate(-263.732 -70.307)" fill="#fff"/>
    <path id="Trazado_1119" data-name="Trazado 1119" d="M270.836,119.1a3.593,3.593,0,0,0-.1-.722c.274-.133.1.283.1.722" transform="translate(-265.048 -69.007)" fill="#fff"/>
    <path id="Trazado_1120" data-name="Trazado 1120" d="M262.453,142.242c-.188-.35.621-.327.38-.505.59-.507-.418,2.576-.38.505" transform="translate(-253.631 -82.61)" fill="#fff"/>
    <path id="Trazado_1121" data-name="Trazado 1121" d="M272.333,123.322l.675.187-.444.51Z" transform="translate(-267.839 -71.906)" fill="#fff"/>
    <path id="Trazado_1122" data-name="Trazado 1122" d="M270.844,135.692l-.364-1.219c.109,0,.147-.164.166-.365.137.764.39,1.586.2,1.583" transform="translate(-264.955 -78.195)" fill="#fff"/>
    <path id="Trazado_1123" data-name="Trazado 1123" d="M271.17,132.687a2.542,2.542,0,0,1-.047-1.016,5.748,5.748,0,0,1,.047,1.016" transform="translate(-265.479 -76.774)" fill="#fff"/>
    <path id="Trazado_1124" data-name="Trazado 1124" d="M272.9,127.468l.188.349.179.872Z" transform="translate(-268.338 -74.323)" fill="#fff"/>
    <path id="Trazado_1125" data-name="Trazado 1125" d="M266.006,168.786l.029,1.419c-.161.406-.327.206-.328-.388.081-.484.086-1.019.3-1.031" transform="translate(-258.045 -98.415)" fill="#fff"/>
    <path id="Trazado_1126" data-name="Trazado 1126" d="M269.952,160.7a1.333,1.333,0,0,0,.582.594l-.765.244.088-.443a3.412,3.412,0,0,1,.1-.4" transform="translate(-264.273 -93.698)" fill="#fff"/>
    <path id="Trazado_1127" data-name="Trazado 1127" d="M270.242,172.016a10.325,10.325,0,0,0-.174,1.471c-.052.49-.121.639-.281-.587a8.669,8.669,0,0,0,.134-1.153c.044-.349.121-.443.321.269" transform="translate(-263.988 -99.986)" fill="#fff"/>
    <path id="Trazado_1128" data-name="Trazado 1128" d="M228.259,157.548l-.334.12-.447-1.2Z" transform="translate(-203.989 -91.234)" fill="#fff"/>
    <path id="Trazado_1129" data-name="Trazado 1129" d="M186.128,151.4c-1.486.7-.581-.669-1.9.075-.452-.2,1.076-.609.629-.758,1.037.062,1.487-.24,1.268.683" transform="translate(-143.461 -87.878)" fill="#fff"/>
    <path id="Trazado_1130" data-name="Trazado 1130" d="M187.79,150.63a4.283,4.283,0,0,1-.539-.062,1.883,1.883,0,0,1,.539.062" transform="translate(-146.39 -87.792)" fill="#fff"/>
    <path id="Trazado_1131" data-name="Trazado 1131" d="M3.692,7.542l1.151.037L4.029,7.8Z" transform="translate(114.723 -4.398)" fill="#fff"/>
    <path id="Trazado_1132" data-name="Trazado 1132" d="M0,10.128l.5-.7.434.908c-.244-.118-.7-.331-.934-.21" transform="translate(120.203 -5.498)" fill="#fff"/>
    <path id="Trazado_1133" data-name="Trazado 1133" d="M251.191,161.823l-.234.15c-.247.131-.258.094-.279.023a2.2,2.2,0,0,0,.513-.173" transform="translate(-236.801 -94.355)" fill="#fff"/>
    <path id="Trazado_1134" data-name="Trazado 1134" d="M246.522,138.7l-.059.227-.568-.654Z" transform="translate(-230.094 -80.623)" fill="#fff"/>
    <path id="Trazado_1135" data-name="Trazado 1135" d="M234.063,114.942c-.191.418-.577.834-.752,1.265.554-.846-.022-1.786.752-1.265" transform="translate(-212.277 -66.933)" fill="#fff"/>
  </g>
</svg>
