<svg xmlns="http://www.w3.org/2000/svg" width="158" height="105" viewBox="0 0 158 105">
  <g id="Color_eta" transform="translate(-376 -2231)">
    <circle id="Elipse_38" data-name="Elipse 38" cx="52.5" cy="52.5" r="52.5" transform="translate(376 2231)" fill="#ebebeb"/>
    <path id="Trazado_1175" data-name="Trazado 1175" d="M52.5,0A52.5,52.5,0,1,1,0,52.5,52.5,52.5,0,0,1,52.5,0Z" transform="translate(429 2231)" fill="#7818d6"/>
    <path id="Trazado_1178" data-name="Trazado 1178" d="M5.016-4.408a.434.434,0,0,1,.272.08.266.266,0,0,1,.08.264.292.292,0,0,1-.144.24.562.562,0,0,1-.312.088H4.376L4.184-2.6H4.7a.385.385,0,0,1,.276.088.306.306,0,0,1,.092.232.32.32,0,0,1-.128.24.5.5,0,0,1-.344.112H4.016L3.752-.4a.544.544,0,0,1-.14.288A.387.387,0,0,1,3.32,0a.289.289,0,0,1-.26-.128.4.4,0,0,1-.052-.3l.248-1.5H2.024L1.768-.4a.533.533,0,0,1-.148.284A.386.386,0,0,1,1.336,0a.321.321,0,0,1-.264-.108.406.406,0,0,1-.056-.324l.256-1.5H.72a.4.4,0,0,1-.268-.084.252.252,0,0,1-.092-.22A.364.364,0,0,1,.5-2.508.53.53,0,0,1,.824-2.6H1.44l.184-1.136H1.032a.453.453,0,0,1-.264-.072.254.254,0,0,1-.1-.224.326.326,0,0,1,.128-.284.578.578,0,0,1,.344-.092h.648l.264-1.448a.592.592,0,0,1,.144-.292.381.381,0,0,1,.288-.108.317.317,0,0,1,.268.12.368.368,0,0,1,.052.312L2.544-4.408H3.776L4.04-5.856a.546.546,0,0,1,.144-.284.383.383,0,0,1,.288-.116.3.3,0,0,1,.268.12.388.388,0,0,1,.044.312L4.536-4.408ZM3.424-2.6l.192-1.136H2.384L2.2-2.6ZM6.88,0A.384.384,0,0,1,6.6-.12a.393.393,0,0,1-.12-.288A.39.39,0,0,1,6.5-.532q.02-.06.052-.132l2.3-4.768H6.416a.4.4,0,0,1-.292-.116.4.4,0,0,1-.116-.292.4.4,0,0,1,.116-.292.4.4,0,0,1,.292-.116H9.464a.393.393,0,0,1,.288.12.393.393,0,0,1,.12.288.365.365,0,0,1-.016.108,1.085,1.085,0,0,1-.04.108l-2.56,5.4A.409.409,0,0,1,6.88,0Zm5.161-.008a1.8,1.8,0,0,1-.948-.252,1.812,1.812,0,0,1-.66-.686,1.989,1.989,0,0,1-.241-.982,1.872,1.872,0,0,1,.24-.95,1.754,1.754,0,0,1,.658-.658,1.864,1.864,0,0,1,.946-.24,1.864,1.864,0,0,1,.946.24,1.777,1.777,0,0,1,.662.66,1.8,1.8,0,0,1,.236.948,1.972,1.972,0,0,1-.244.98,1.841,1.841,0,0,1-.659.688A1.767,1.767,0,0,1,12.041-.008Zm0-.736A.925.925,0,0,0,12.571-.9a1.124,1.124,0,0,0,.372-.428,1.292,1.292,0,0,0,.137-.6,1.124,1.124,0,0,0-.128-.572,1.053,1.053,0,0,0-.372-.4,1,1,0,0,0-.54-.148A1,1,0,0,0,11.5-2.9a1.044,1.044,0,0,0-.376.4,1.178,1.178,0,0,0-.136.569,1.338,1.338,0,0,0,.132.6A1.075,1.075,0,0,0,11.5-.9.956.956,0,0,0,12.039-.744Zm0-2.448a1.629,1.629,0,0,1-.812-.2,1.526,1.526,0,0,1-.564-.539,1.448,1.448,0,0,1-.208-.773,1.58,1.58,0,0,1,.208-.812,1.577,1.577,0,0,1,.564-.568A1.556,1.556,0,0,1,12.04-6.3a1.525,1.525,0,0,1,.812.2,1.537,1.537,0,0,1,.564.568,1.561,1.561,0,0,1,.2.824,1.448,1.448,0,0,1-.208.773,1.522,1.522,0,0,1-.566.539A1.616,1.616,0,0,1,12.04-3.192Zm0-.664a.688.688,0,0,0,.4-.12.868.868,0,0,0,.28-.316.915.915,0,0,0,.1-.436.792.792,0,0,0-.1-.423.793.793,0,0,0-.28-.293.764.764,0,0,0-.408-.108.745.745,0,0,0-.561.232.849.849,0,0,0-.231.592.865.865,0,0,0,.22.616A.737.737,0,0,0,12.043-3.856ZM16.288,0a.384.384,0,0,1-.28-.12.393.393,0,0,1-.12-.288v-4.88L15.3-5.04a.674.674,0,0,1-.256.056.4.4,0,0,1-.292-.112.383.383,0,0,1-.116-.288.434.434,0,0,1,.064-.232.368.368,0,0,1,.2-.152l1.248-.448a.456.456,0,0,1,.08-.024.371.371,0,0,1,.072-.008.38.38,0,0,1,.292.116.423.423,0,0,1,.108.3V-.408a.393.393,0,0,1-.12.288A.4.4,0,0,1,16.288,0Zm3.545-.008a1.8,1.8,0,0,1-.948-.252,1.812,1.812,0,0,1-.66-.686,1.989,1.989,0,0,1-.241-.982,1.872,1.872,0,0,1,.24-.95,1.754,1.754,0,0,1,.658-.658,1.864,1.864,0,0,1,.946-.24,1.864,1.864,0,0,1,.946.24,1.777,1.777,0,0,1,.662.66,1.8,1.8,0,0,1,.236.948,1.972,1.972,0,0,1-.244.98,1.841,1.841,0,0,1-.659.688A1.767,1.767,0,0,1,19.833-.008Zm0-.736A.925.925,0,0,0,20.363-.9a1.124,1.124,0,0,0,.372-.428,1.292,1.292,0,0,0,.137-.6,1.124,1.124,0,0,0-.128-.572,1.053,1.053,0,0,0-.372-.4,1,1,0,0,0-.54-.148A1,1,0,0,0,19.3-2.9a1.044,1.044,0,0,0-.376.4,1.178,1.178,0,0,0-.136.569,1.338,1.338,0,0,0,.132.6,1.075,1.075,0,0,0,.372.428A.956.956,0,0,0,19.831-.744Zm0-2.448a1.629,1.629,0,0,1-.812-.2,1.526,1.526,0,0,1-.564-.539,1.448,1.448,0,0,1-.208-.773,1.58,1.58,0,0,1,.208-.812,1.577,1.577,0,0,1,.564-.568,1.556,1.556,0,0,1,.812-.212,1.525,1.525,0,0,1,.812.2,1.537,1.537,0,0,1,.564.568,1.561,1.561,0,0,1,.2.824,1.448,1.448,0,0,1-.208.773,1.522,1.522,0,0,1-.566.539A1.616,1.616,0,0,1,19.832-3.192Zm0-.664a.688.688,0,0,0,.4-.12.868.868,0,0,0,.28-.316.915.915,0,0,0,.1-.436.792.792,0,0,0-.1-.423.793.793,0,0,0-.28-.293.764.764,0,0,0-.408-.108.745.745,0,0,0-.561.232.849.849,0,0,0-.231.592.865.865,0,0,0,.22.616A.737.737,0,0,0,19.835-3.856ZM23.368,0a.4.4,0,0,1-.3-.12.4.4,0,0,1-.12-.3V-5.832a.4.4,0,0,1,.12-.3.409.409,0,0,1,.3-.116h1.448a3.312,3.312,0,0,1,1.252.228,2.884,2.884,0,0,1,.98.648,2.9,2.9,0,0,1,.64.988,3.4,3.4,0,0,1,.224,1.256,3.427,3.427,0,0,1-.224,1.26,2.889,2.889,0,0,1-.64.992,2.884,2.884,0,0,1-.98.648A3.312,3.312,0,0,1,24.816,0Zm.416-.736h1.032A2.273,2.273,0,0,0,26-1.044a2.2,2.2,0,0,0,.812-.848,2.529,2.529,0,0,0,.3-1.236,2.523,2.523,0,0,0-.3-1.24A2.176,2.176,0,0,0,26-5.208a2.3,2.3,0,0,0-1.188-.3H23.784ZM30.824,0a1.944,1.944,0,0,1-.98-.244,1.739,1.739,0,0,1-.668-.672,1.969,1.969,0,0,1-.24-.98,1.986,1.986,0,0,1,.24-.988,1.739,1.739,0,0,1,.668-.672,1.944,1.944,0,0,1,.98-.244,1.922,1.922,0,0,1,.976.244,1.747,1.747,0,0,1,.664.672,1.986,1.986,0,0,1,.24.988,1.969,1.969,0,0,1-.24.98,1.747,1.747,0,0,1-.664.672A1.922,1.922,0,0,1,30.824,0Zm-.008-.72a1.124,1.124,0,0,0,.58-.148,1.045,1.045,0,0,0,.4-.416,1.273,1.273,0,0,0,.144-.612,1.267,1.267,0,0,0-.144-.616,1.08,1.08,0,0,0-.4-.416,1.1,1.1,0,0,0-.58-.152,1.1,1.1,0,0,0-.58.152,1.052,1.052,0,0,0-.392.416,1.3,1.3,0,0,0-.14.616,1.3,1.3,0,0,0,.14.612,1.018,1.018,0,0,0,.392.416A1.124,1.124,0,0,0,30.816-.72ZM29.2-2.92l1.856-3.1a.426.426,0,0,1,.368-.224.415.415,0,0,1,.28.1.411.411,0,0,1,.14.24.4.4,0,0,1-.06.288L30.648-3.728Z" transform="translate(466 2322)" fill="#afafaf"/>
    <path id="Trazado_1177" data-name="Trazado 1177" d="M5.016-4.408a.434.434,0,0,1,.272.08.266.266,0,0,1,.08.264.292.292,0,0,1-.144.24.562.562,0,0,1-.312.088H4.376L4.184-2.6H4.7a.385.385,0,0,1,.276.088.306.306,0,0,1,.092.232.32.32,0,0,1-.128.24.5.5,0,0,1-.344.112H4.016L3.752-.4a.544.544,0,0,1-.14.288A.387.387,0,0,1,3.32,0a.289.289,0,0,1-.26-.128.4.4,0,0,1-.052-.3l.248-1.5H2.024L1.768-.4a.533.533,0,0,1-.148.284A.386.386,0,0,1,1.336,0a.321.321,0,0,1-.264-.108.406.406,0,0,1-.056-.324l.256-1.5H.72a.4.4,0,0,1-.268-.084.252.252,0,0,1-.092-.22A.364.364,0,0,1,.5-2.508.53.53,0,0,1,.824-2.6H1.44l.184-1.136H1.032a.453.453,0,0,1-.264-.072.254.254,0,0,1-.1-.224.326.326,0,0,1,.128-.284.578.578,0,0,1,.344-.092h.648l.264-1.448a.592.592,0,0,1,.144-.292.381.381,0,0,1,.288-.108.317.317,0,0,1,.268.12.368.368,0,0,1,.052.312L2.544-4.408H3.776L4.04-5.856a.546.546,0,0,1,.144-.284.383.383,0,0,1,.288-.116.3.3,0,0,1,.268.12.388.388,0,0,1,.044.312L4.536-4.408ZM3.424-2.6l.192-1.136H2.384L2.2-2.6ZM6.288,0a.383.383,0,0,1-.344-.192A.412.412,0,0,1,5.92-.6L8.168-5.968a.406.406,0,0,1,.392-.28.388.388,0,0,1,.392.28L11.208-.584a.422.422,0,0,1-.028.4.386.386,0,0,1-.348.18A.421.421,0,0,1,10.6-.068a.386.386,0,0,1-.156-.188L8.464-5.184h.224L6.672-.256a.4.4,0,0,1-.164.192A.427.427,0,0,1,6.288,0Zm.424-1.376.32-.688h3.136l.32.688ZM12.072,0a.4.4,0,0,1-.3-.12.4.4,0,0,1-.12-.3V-5.832a.4.4,0,0,1,.12-.3.409.409,0,0,1,.3-.116h3.616a.408.408,0,0,1,.3.108.377.377,0,0,1,.112.284.354.354,0,0,1-.112.272.418.418,0,0,1-.3.1h-3.2v1.944h2.3a.408.408,0,0,1,.3.108.367.367,0,0,1,.112.276.367.367,0,0,1-.112.276.408.408,0,0,1-.3.108h-2.3V-.416a.4.4,0,0,1-.12.3A.4.4,0,0,1,12.072,0Zm3.88,0a.383.383,0,0,1-.344-.192A.412.412,0,0,1,15.584-.6l2.248-5.368a.406.406,0,0,1,.392-.28.388.388,0,0,1,.392.28L20.872-.584a.422.422,0,0,1-.028.4A.386.386,0,0,1,20.5,0a.421.421,0,0,1-.228-.068.386.386,0,0,1-.156-.188L18.128-5.184h.224L16.336-.256a.4.4,0,0,1-.164.192A.427.427,0,0,1,15.952,0Zm.424-1.376.32-.688h3.136l.32.688ZM21.736,0a.4.4,0,0,1-.3-.12.4.4,0,0,1-.12-.3V-5.832a.4.4,0,0,1,.12-.3.409.409,0,0,1,.3-.116h3.616a.408.408,0,0,1,.3.108.377.377,0,0,1,.112.284.354.354,0,0,1-.112.272.418.418,0,0,1-.3.1h-3.2v1.944h2.3a.408.408,0,0,1,.3.108.367.367,0,0,1,.112.276.367.367,0,0,1-.112.276.408.408,0,0,1-.3.108h-2.3V-.416a.4.4,0,0,1-.12.3A.4.4,0,0,1,21.736,0Zm3.88,0a.383.383,0,0,1-.344-.192A.412.412,0,0,1,25.248-.6L27.5-5.968a.406.406,0,0,1,.392-.28.388.388,0,0,1,.392.28L30.536-.584a.422.422,0,0,1-.028.4A.386.386,0,0,1,30.16,0a.421.421,0,0,1-.228-.068.386.386,0,0,1-.156-.188L27.792-5.184h.224L26-.256a.4.4,0,0,1-.164.192A.427.427,0,0,1,25.616,0Zm.424-1.376.32-.688H29.5l.32.688ZM31.4,0a.4.4,0,0,1-.3-.12.4.4,0,0,1-.12-.3V-5.832a.4.4,0,0,1,.12-.3.409.409,0,0,1,.3-.116h3.616a.408.408,0,0,1,.3.108.377.377,0,0,1,.112.284.354.354,0,0,1-.112.272.418.418,0,0,1-.3.1h-3.2v1.944h2.3a.408.408,0,0,1,.3.108.367.367,0,0,1,.112.276.367.367,0,0,1-.112.276.408.408,0,0,1-.3.108h-2.3V-.416a.4.4,0,0,1-.12.3A.4.4,0,0,1,31.4,0Z" transform="translate(398 2322)" fill="gray"/>
  </g>
</svg>
