<svg xmlns="http://www.w3.org/2000/svg" width="216" height="105" viewBox="0 0 216 105">
  <g id="Color_gruene" transform="translate(-367 -2354)">
    <circle id="Elipse_43" data-name="Elipse 43" cx="52.5" cy="52.5" r="52.5" transform="translate(367 2354)" fill="#e8e8e8"/>
    <path id="Trazado_1186" data-name="Trazado 1186" d="M52.5,0A52.5,52.5,0,1,1,0,52.5,52.5,52.5,0,0,1,52.5,0Z" transform="translate(425 2354)" fill="#e8d3a2"/>
    <circle id="Elipse_45" data-name="Elipse 45" cx="52.5" cy="52.5" r="52.5" transform="translate(478 2354)" fill="#577c5b"/>
    <path id="Trazado_1189" data-name="Trazado 1189" d="M5.016-4.408a.434.434,0,0,1,.272.08.266.266,0,0,1,.08.264.292.292,0,0,1-.144.24.562.562,0,0,1-.312.088H4.376L4.184-2.6H4.7a.385.385,0,0,1,.276.088.306.306,0,0,1,.092.232.32.32,0,0,1-.128.24.5.5,0,0,1-.344.112H4.016L3.752-.4a.544.544,0,0,1-.14.288A.387.387,0,0,1,3.32,0a.289.289,0,0,1-.26-.128.4.4,0,0,1-.052-.3l.248-1.5H2.024L1.768-.4a.533.533,0,0,1-.148.284A.386.386,0,0,1,1.336,0a.321.321,0,0,1-.264-.108.406.406,0,0,1-.056-.324l.256-1.5H.72a.4.4,0,0,1-.268-.084.252.252,0,0,1-.092-.22A.364.364,0,0,1,.5-2.508.53.53,0,0,1,.824-2.6H1.44l.184-1.136H1.032a.453.453,0,0,1-.264-.072.254.254,0,0,1-.1-.224.326.326,0,0,1,.128-.284.578.578,0,0,1,.344-.092h.648l.264-1.448a.592.592,0,0,1,.144-.292.381.381,0,0,1,.288-.108.317.317,0,0,1,.268.12.368.368,0,0,1,.052.312L2.544-4.408H3.776L4.04-5.856a.546.546,0,0,1,.144-.284.383.383,0,0,1,.288-.116.3.3,0,0,1,.268.12.388.388,0,0,1,.044.312L4.536-4.408ZM3.424-2.6l.192-1.136H2.384L2.2-2.6ZM8.287,0A2.014,2.014,0,0,1,7.25-.268,1.985,1.985,0,0,1,6.524-1,2.039,2.039,0,0,1,6.256-2.04a.4.4,0,0,1,.112-.293.384.384,0,0,1,.288-.115.411.411,0,0,1,.3.115.389.389,0,0,1,.12.293,1.231,1.231,0,0,0,.16.626,1.178,1.178,0,0,0,.436.438,1.218,1.218,0,0,0,.624.16,1.224,1.224,0,0,0,.625-.16,1.168,1.168,0,0,0,.436-.439,1.244,1.244,0,0,0,.159-.628,1.232,1.232,0,0,0-.159-.625A1.164,1.164,0,0,0,8.917-3.1a1.238,1.238,0,0,0-.629-.159H6.952a.383.383,0,0,1-.287-.116.4.4,0,0,1-.113-.292v-2.16a.416.416,0,0,1,.113-.3.377.377,0,0,1,.287-.12H9.624a.387.387,0,0,1,.288.124.4.4,0,0,1,.12.289.394.394,0,0,1-.115.284.39.39,0,0,1-.293.119H7.36V-4.08h.928a2.028,2.028,0,0,1,1.044.268,2,2,0,0,1,.727.728,2.022,2.022,0,0,1,.269,1.041A2.04,2.04,0,0,1,10.059-1a1.991,1.991,0,0,1-.727.732A2.03,2.03,0,0,1,8.287,0Zm3.625,0a.384.384,0,0,1-.28-.12.393.393,0,0,1-.12-.288.39.39,0,0,1,.02-.124q.02-.06.052-.132l2.3-4.768H11.448a.4.4,0,0,1-.292-.116.4.4,0,0,1-.116-.292.4.4,0,0,1,.116-.292.4.4,0,0,1,.292-.116H14.5a.393.393,0,0,1,.288.12.393.393,0,0,1,.12.288.365.365,0,0,1-.016.108,1.085,1.085,0,0,1-.04.108l-2.56,5.4A.409.409,0,0,1,11.912,0Zm4.376,0a.384.384,0,0,1-.28-.12.393.393,0,0,1-.12-.288.39.39,0,0,1,.02-.124q.02-.06.052-.132l2.3-4.768H15.824a.4.4,0,0,1-.292-.116.4.4,0,0,1-.116-.292.4.4,0,0,1,.116-.292.4.4,0,0,1,.292-.116h3.048a.393.393,0,0,1,.288.12.393.393,0,0,1,.12.288.365.365,0,0,1-.016.108,1.084,1.084,0,0,1-.04.108l-2.56,5.4A.409.409,0,0,1,16.288,0ZM22.64.08a3.019,3.019,0,0,1-1.212-.244,3.013,3.013,0,0,1-.984-.68,3.161,3.161,0,0,1-.656-1.02,3.342,3.342,0,0,1-.236-1.264,3.29,3.29,0,0,1,.236-1.252A3.172,3.172,0,0,1,20.444-5.4a3.077,3.077,0,0,1,.98-.684,2.969,2.969,0,0,1,1.216-.248,3.134,3.134,0,0,1,1.06.16,3.05,3.05,0,0,1,.892.528.443.443,0,0,1,.1.1.3.3,0,0,1,.048.1.558.558,0,0,1,.012.124.329.329,0,0,1-.108.252.42.42,0,0,1-.26.112.421.421,0,0,1-.3-.1,2.373,2.373,0,0,0-.612-.392,2.145,2.145,0,0,0-.836-.136,2.094,2.094,0,0,0-.888.192,2.346,2.346,0,0,0-.732.528,2.437,2.437,0,0,0-.492.78,2.549,2.549,0,0,0-.176.948,2.571,2.571,0,0,0,.176.956,2.437,2.437,0,0,0,.492.78,2.292,2.292,0,0,0,.732.524,2.131,2.131,0,0,0,.888.188,2.132,2.132,0,0,0,.772-.14,2.977,2.977,0,0,0,.7-.388A.42.42,0,0,1,24.4-1.3a.359.359,0,0,1,.236.112.382.382,0,0,1,.1.276.4.4,0,0,1-.032.156.438.438,0,0,1-.1.14,3.218,3.218,0,0,1-.924.52A3.052,3.052,0,0,1,22.64.08ZM27.807,0A2.014,2.014,0,0,1,26.77-.268,1.985,1.985,0,0,1,26.044-1a2.039,2.039,0,0,1-.268-1.042.4.4,0,0,1,.112-.293.384.384,0,0,1,.288-.115.411.411,0,0,1,.3.115.389.389,0,0,1,.12.293,1.231,1.231,0,0,0,.16.626,1.178,1.178,0,0,0,.436.438,1.218,1.218,0,0,0,.624.16,1.224,1.224,0,0,0,.625-.16,1.168,1.168,0,0,0,.436-.439,1.244,1.244,0,0,0,.159-.628,1.232,1.232,0,0,0-.159-.625,1.164,1.164,0,0,0-.436-.436,1.238,1.238,0,0,0-.629-.159H26.472a.383.383,0,0,1-.287-.116.4.4,0,0,1-.113-.292v-2.16a.416.416,0,0,1,.113-.3.377.377,0,0,1,.287-.12h2.672a.387.387,0,0,1,.288.124.4.4,0,0,1,.12.289.394.394,0,0,1-.115.284.39.39,0,0,1-.293.119H26.88V-4.08h.928a2.028,2.028,0,0,1,1.044.268,2,2,0,0,1,.727.728,2.022,2.022,0,0,1,.269,1.041A2.04,2.04,0,0,1,29.579-1a1.991,1.991,0,0,1-.727.732A2.03,2.03,0,0,1,27.807,0Zm3.7,0a.4.4,0,0,1-.3-.12.4.4,0,0,1-.12-.3V-5.832a.4.4,0,0,1,.12-.3.409.409,0,0,1,.3-.116h1.912a2.061,2.061,0,0,1,.956.212,1.627,1.627,0,0,1,.648.588,1.591,1.591,0,0,1,.236.864,1.242,1.242,0,0,1-.212.708,1.477,1.477,0,0,1-.58.5,1.562,1.562,0,0,1,.848.5,1.466,1.466,0,0,1,.32.984,1.829,1.829,0,0,1-.26.976,1.826,1.826,0,0,1-.724.668A2.252,2.252,0,0,1,33.584,0Zm.416-.768h1.664A1.544,1.544,0,0,0,34.232-.9a1.011,1.011,0,0,0,.44-.376,1.114,1.114,0,0,0,.16-.616.953.953,0,0,0-.16-.568.993.993,0,0,0-.44-.34,1.683,1.683,0,0,0-.648-.116H31.92Zm0-2.912h1.5a1.194,1.194,0,0,0,.748-.224.8.8,0,0,0,.292-.68.792.792,0,0,0-.292-.676,1.209,1.209,0,0,0-.748-.22h-1.5Z" transform="translate(513 2448)" fill="#afafaf"/>
    <path id="Trazado_1188" data-name="Trazado 1188" d="M5.016-4.408a.434.434,0,0,1,.272.08.266.266,0,0,1,.08.264.292.292,0,0,1-.144.24.562.562,0,0,1-.312.088H4.376L4.184-2.6H4.7a.385.385,0,0,1,.276.088.306.306,0,0,1,.092.232.32.32,0,0,1-.128.24.5.5,0,0,1-.344.112H4.016L3.752-.4a.544.544,0,0,1-.14.288A.387.387,0,0,1,3.32,0a.289.289,0,0,1-.26-.128.4.4,0,0,1-.052-.3l.248-1.5H2.024L1.768-.4a.533.533,0,0,1-.148.284A.386.386,0,0,1,1.336,0a.321.321,0,0,1-.264-.108.406.406,0,0,1-.056-.324l.256-1.5H.72a.4.4,0,0,1-.268-.084.252.252,0,0,1-.092-.22A.364.364,0,0,1,.5-2.508.53.53,0,0,1,.824-2.6H1.44l.184-1.136H1.032a.453.453,0,0,1-.264-.072.254.254,0,0,1-.1-.224.326.326,0,0,1,.128-.284.578.578,0,0,1,.344-.092h.648l.264-1.448a.592.592,0,0,1,.144-.292.381.381,0,0,1,.288-.108.317.317,0,0,1,.268.12.368.368,0,0,1,.052.312L2.544-4.408H3.776L4.04-5.856a.546.546,0,0,1,.144-.284.383.383,0,0,1,.288-.116.3.3,0,0,1,.268.12.388.388,0,0,1,.044.312L4.536-4.408ZM3.424-2.6l.192-1.136H2.384L2.2-2.6ZM6.952,0a.4.4,0,0,1-.3-.12.4.4,0,0,1-.12-.3V-5.832a.4.4,0,0,1,.12-.3.409.409,0,0,1,.3-.116h3.616a.408.408,0,0,1,.3.108.377.377,0,0,1,.112.284.354.354,0,0,1-.112.272.418.418,0,0,1-.3.1h-3.2v1.944h2.3a.408.408,0,0,1,.3.108.367.367,0,0,1,.112.276.367.367,0,0,1-.112.276.408.408,0,0,1-.3.108h-2.3v2h3.2a.418.418,0,0,1,.3.1.354.354,0,0,1,.112.272.377.377,0,0,1-.112.284.408.408,0,0,1-.3.108Zm6.713-.008a1.8,1.8,0,0,1-.948-.252,1.812,1.812,0,0,1-.66-.686,1.989,1.989,0,0,1-.241-.982,1.872,1.872,0,0,1,.24-.95,1.754,1.754,0,0,1,.658-.658,1.864,1.864,0,0,1,.946-.24,1.864,1.864,0,0,1,.946.24,1.777,1.777,0,0,1,.662.66,1.8,1.8,0,0,1,.236.948,1.972,1.972,0,0,1-.244.98A1.841,1.841,0,0,1,14.6-.26,1.767,1.767,0,0,1,13.665-.008Zm0-.736A.925.925,0,0,0,14.195-.9a1.124,1.124,0,0,0,.372-.428,1.292,1.292,0,0,0,.137-.6,1.124,1.124,0,0,0-.128-.572,1.053,1.053,0,0,0-.372-.4,1,1,0,0,0-.54-.148,1,1,0,0,0-.536.148,1.044,1.044,0,0,0-.376.4,1.178,1.178,0,0,0-.136.569,1.338,1.338,0,0,0,.132.6A1.075,1.075,0,0,0,13.12-.9.956.956,0,0,0,13.663-.744Zm0-2.448a1.629,1.629,0,0,1-.812-.2,1.526,1.526,0,0,1-.564-.539A1.448,1.448,0,0,1,12.08-4.7a1.58,1.58,0,0,1,.208-.812,1.577,1.577,0,0,1,.564-.568,1.556,1.556,0,0,1,.812-.212,1.525,1.525,0,0,1,.812.2,1.537,1.537,0,0,1,.564.568,1.561,1.561,0,0,1,.2.824,1.448,1.448,0,0,1-.208.773,1.522,1.522,0,0,1-.566.539A1.616,1.616,0,0,1,13.664-3.192Zm0-.664a.688.688,0,0,0,.4-.12.868.868,0,0,0,.28-.316.915.915,0,0,0,.1-.436.792.792,0,0,0-.1-.423.793.793,0,0,0-.28-.293.764.764,0,0,0-.408-.108.745.745,0,0,0-.561.232.849.849,0,0,0-.231.592.865.865,0,0,0,.22.616A.737.737,0,0,0,13.667-3.856ZM17.2,0a.4.4,0,0,1-.3-.12.4.4,0,0,1-.12-.3V-5.832a.4.4,0,0,1,.12-.3.409.409,0,0,1,.3-.116h1.448A3.312,3.312,0,0,1,19.9-6.02a2.884,2.884,0,0,1,.98.648,2.9,2.9,0,0,1,.64.988,3.4,3.4,0,0,1,.224,1.256,3.427,3.427,0,0,1-.224,1.26,2.889,2.889,0,0,1-.64.992,2.884,2.884,0,0,1-.98.648A3.312,3.312,0,0,1,18.648,0Zm.416-.736h1.032a2.273,2.273,0,0,0,1.188-.308,2.2,2.2,0,0,0,.812-.848,2.529,2.529,0,0,0,.3-1.236,2.523,2.523,0,0,0-.3-1.24,2.176,2.176,0,0,0-.812-.84,2.3,2.3,0,0,0-1.188-.3H17.616ZM24.744,0A2.194,2.194,0,0,1,23.68-.252a1.884,1.884,0,0,1-.728-.688,1.855,1.855,0,0,1-.264-.98.423.423,0,0,1,.108-.3.343.343,0,0,1,.26-.116.339.339,0,0,1,.264.116.432.432,0,0,1,.1.3,1.14,1.14,0,0,0,.168.6,1.245,1.245,0,0,0,.456.44,1.286,1.286,0,0,0,.648.164A1.224,1.224,0,0,0,25.548-1a1.047,1.047,0,0,0,.324-.82,1.256,1.256,0,0,0-.144-.6,1.144,1.144,0,0,0-.392-.428,1.011,1.011,0,0,0-.56-.16.389.389,0,0,1-.292-.12.409.409,0,0,1-.116-.3.4.4,0,0,1,.116-.292.4.4,0,0,1,.292-.116.875.875,0,0,0,.432-.116,1.015,1.015,0,0,0,.344-.312.76.76,0,0,0,.136-.444.779.779,0,0,0-.256-.592.921.921,0,0,0-.656-.24,1.277,1.277,0,0,0-.556.12,1.045,1.045,0,0,0-.4.32.735.735,0,0,0-.148.448.463.463,0,0,1-.1.308.33.33,0,0,1-.264.124.343.343,0,0,1-.26-.116.412.412,0,0,1-.108-.292,1.489,1.489,0,0,1,.24-.832,1.671,1.671,0,0,1,.656-.58,2.014,2.014,0,0,1,.928-.212,1.772,1.772,0,0,1,.852.2,1.577,1.577,0,0,1,.6.552,1.443,1.443,0,0,1,.22.788,1.075,1.075,0,0,1-.14.552,1.467,1.467,0,0,1-.356.412,2.276,2.276,0,0,1-.456.284,1.9,1.9,0,0,1,.688.388,1.5,1.5,0,0,1,.388.564,1.91,1.91,0,0,1,.124.7,1.69,1.69,0,0,1-.264.932,1.872,1.872,0,0,1-.7.648A2.015,2.015,0,0,1,24.744,0Zm2.848,0a.383.383,0,0,1-.344-.192A.412.412,0,0,1,27.224-.6l2.248-5.368a.406.406,0,0,1,.392-.28.388.388,0,0,1,.392.28L32.512-.584a.422.422,0,0,1-.028.4.386.386,0,0,1-.348.18.421.421,0,0,1-.228-.068.386.386,0,0,1-.156-.188L29.768-5.184h.224L27.976-.256a.4.4,0,0,1-.164.192A.427.427,0,0,1,27.592,0Zm.424-1.376.32-.688h3.136l.32.688ZM33.592,0A.389.389,0,0,1,33.3-.12a.4.4,0,0,1-.116-.288A.39.39,0,0,1,33.3-.7l2.272-2.656a2.981,2.981,0,0,0,.372-.528,1.007,1.007,0,0,0,.132-.472,1.421,1.421,0,0,0-.12-.608.909.909,0,0,0-.344-.4.991.991,0,0,0-.536-.14,1,1,0,0,0-.548.156,1.109,1.109,0,0,0-.384.416,1.187,1.187,0,0,0-.14.572.39.39,0,0,1-.116.28.389.389,0,0,1-.292.12.393.393,0,0,1-.288-.12.384.384,0,0,1-.12-.28,1.9,1.9,0,0,1,.248-.972A1.827,1.827,0,0,1,34.108-6a1.887,1.887,0,0,1,.964-.248,1.849,1.849,0,0,1,.944.232,1.583,1.583,0,0,1,.62.656,2.162,2.162,0,0,1,.22,1.008,1.366,1.366,0,0,1-.108.52,2.71,2.71,0,0,1-.272.5,4.577,4.577,0,0,1-.332.432L34.312-.816h2.24a.4.4,0,0,1,.3.124.4.4,0,0,1,.12.284.393.393,0,0,1-.12.288.4.4,0,0,1-.3.12Z" transform="translate(452 2448)" fill="gray"/>
    <path id="Trazado_1187" data-name="Trazado 1187" d="M5.016-4.408a.434.434,0,0,1,.272.08.266.266,0,0,1,.08.264.292.292,0,0,1-.144.24.562.562,0,0,1-.312.088H4.376L4.184-2.6H4.7a.385.385,0,0,1,.276.088.306.306,0,0,1,.092.232.32.32,0,0,1-.128.24.5.5,0,0,1-.344.112H4.016L3.752-.4a.544.544,0,0,1-.14.288A.387.387,0,0,1,3.32,0a.289.289,0,0,1-.26-.128.4.4,0,0,1-.052-.3l.248-1.5H2.024L1.768-.4a.533.533,0,0,1-.148.284A.386.386,0,0,1,1.336,0a.321.321,0,0,1-.264-.108.406.406,0,0,1-.056-.324l.256-1.5H.72a.4.4,0,0,1-.268-.084.252.252,0,0,1-.092-.22A.364.364,0,0,1,.5-2.508.53.53,0,0,1,.824-2.6H1.44l.184-1.136H1.032a.453.453,0,0,1-.264-.072.254.254,0,0,1-.1-.224.326.326,0,0,1,.128-.284.578.578,0,0,1,.344-.092h.648l.264-1.448a.592.592,0,0,1,.144-.292.381.381,0,0,1,.288-.108.317.317,0,0,1,.268.12.368.368,0,0,1,.052.312L2.544-4.408H3.776L4.04-5.856a.546.546,0,0,1,.144-.284.383.383,0,0,1,.288-.116.3.3,0,0,1,.268.12.388.388,0,0,1,.044.312L4.536-4.408ZM3.424-2.6l.192-1.136H2.384L2.2-2.6ZM6.952,0a.4.4,0,0,1-.3-.12.4.4,0,0,1-.12-.3V-5.832a.4.4,0,0,1,.12-.3.409.409,0,0,1,.3-.116h3.616a.408.408,0,0,1,.3.108.377.377,0,0,1,.112.284.354.354,0,0,1-.112.272.418.418,0,0,1-.3.1h-3.2v1.944h2.3a.408.408,0,0,1,.3.108.367.367,0,0,1,.112.276.367.367,0,0,1-.112.276.408.408,0,0,1-.3.108h-2.3v2h3.2a.418.418,0,0,1,.3.1.354.354,0,0,1,.112.272.377.377,0,0,1-.112.284.408.408,0,0,1-.3.108Zm5.6,0a.4.4,0,0,1-.3-.12.4.4,0,0,1-.12-.3V-5.832a.4.4,0,0,1,.12-.3.409.409,0,0,1,.3-.116h3.616a.408.408,0,0,1,.3.108.377.377,0,0,1,.112.284.354.354,0,0,1-.112.272.418.418,0,0,1-.3.1h-3.2v1.944h2.3a.408.408,0,0,1,.3.108.367.367,0,0,1,.112.276.367.367,0,0,1-.112.276.408.408,0,0,1-.3.108h-2.3v2h3.2a.418.418,0,0,1,.3.1.354.354,0,0,1,.112.272.377.377,0,0,1-.112.284.408.408,0,0,1-.3.108Zm5.6,0a.4.4,0,0,1-.3-.12.4.4,0,0,1-.12-.3V-5.832a.4.4,0,0,1,.12-.3.409.409,0,0,1,.3-.116h3.616a.408.408,0,0,1,.3.108.377.377,0,0,1,.112.284.354.354,0,0,1-.112.272.418.418,0,0,1-.3.1h-3.2v1.944h2.3a.408.408,0,0,1,.3.108.367.367,0,0,1,.112.276.367.367,0,0,1-.112.276.408.408,0,0,1-.3.108h-2.3v2h3.2a.418.418,0,0,1,.3.1.354.354,0,0,1,.112.272.377.377,0,0,1-.112.284.408.408,0,0,1-.3.108Zm5.6,0a.4.4,0,0,1-.3-.12.4.4,0,0,1-.12-.3V-5.832a.4.4,0,0,1,.12-.3.409.409,0,0,1,.3-.116H25.2a3.312,3.312,0,0,1,1.252.228,2.884,2.884,0,0,1,.98.648,2.9,2.9,0,0,1,.64.988A3.4,3.4,0,0,1,28.3-3.128a3.427,3.427,0,0,1-.224,1.26,2.889,2.889,0,0,1-.64.992,2.884,2.884,0,0,1-.98.648A3.312,3.312,0,0,1,25.2,0Zm.416-.736H25.2a2.273,2.273,0,0,0,1.188-.308,2.2,2.2,0,0,0,.812-.848,2.529,2.529,0,0,0,.3-1.236,2.523,2.523,0,0,0-.3-1.24,2.176,2.176,0,0,0-.812-.84,2.3,2.3,0,0,0-1.188-.3H24.168ZM30.016,0a.4.4,0,0,1-.3-.12.4.4,0,0,1-.12-.3V-5.832a.4.4,0,0,1,.12-.3.409.409,0,0,1,.3-.116h3.616a.408.408,0,0,1,.3.108.377.377,0,0,1,.112.284.354.354,0,0,1-.112.272.418.418,0,0,1-.3.1h-3.2v1.944h2.3a.408.408,0,0,1,.3.108.367.367,0,0,1,.112.276.367.367,0,0,1-.112.276.408.408,0,0,1-.3.108h-2.3v2h3.2a.418.418,0,0,1,.3.1.354.354,0,0,1,.112.272.377.377,0,0,1-.112.284.408.408,0,0,1-.3.108Zm5.6,0a.4.4,0,0,1-.3-.12.4.4,0,0,1-.12-.3V-5.832a.4.4,0,0,1,.12-.3.409.409,0,0,1,.3-.116h3.616a.408.408,0,0,1,.3.108.377.377,0,0,1,.112.284.354.354,0,0,1-.112.272.418.418,0,0,1-.3.1h-3.2v1.944h2.3a.408.408,0,0,1,.3.108.367.367,0,0,1,.112.276.367.367,0,0,1-.112.276.408.408,0,0,1-.3.108h-2.3v2h3.2a.418.418,0,0,1,.3.1.354.354,0,0,1,.112.272.377.377,0,0,1-.112.284.408.408,0,0,1-.3.108Z" transform="translate(395 2448)" fill="gray"/>
  </g>
</svg>
