<svg xmlns="http://www.w3.org/2000/svg" width="158" height="105" viewBox="0 0 158 105">
  <g id="Color_HM" transform="translate(-380 -752)">
    <g id="Color_eta" transform="translate(4 -1479)">
      <circle id="Elipse_38" data-name="Elipse 38" cx="52.5" cy="52.5" r="52.5" transform="translate(376 2231)" fill="#fdfefd"/>
      <path id="Trazado_1175" data-name="Trazado 1175" d="M52.5,0A52.5,52.5,0,1,1,0,52.5,52.5,52.5,0,0,1,52.5,0Z" transform="translate(429 2231)" fill="#c4097b"/>
    </g>
    <path id="Trazado_1183" data-name="Trazado 1183" d="M5.016-4.408a.434.434,0,0,1,.272.08.266.266,0,0,1,.08.264.292.292,0,0,1-.144.24.562.562,0,0,1-.312.088H4.376L4.184-2.6H4.7a.385.385,0,0,1,.276.088.306.306,0,0,1,.092.232.32.32,0,0,1-.128.24.5.5,0,0,1-.344.112H4.016L3.752-.4a.544.544,0,0,1-.14.288A.387.387,0,0,1,3.32,0a.289.289,0,0,1-.26-.128.4.4,0,0,1-.052-.3l.248-1.5H2.024L1.768-.4a.533.533,0,0,1-.148.284A.386.386,0,0,1,1.336,0a.321.321,0,0,1-.264-.108.406.406,0,0,1-.056-.324l.256-1.5H.72a.4.4,0,0,1-.268-.084.252.252,0,0,1-.092-.22A.364.364,0,0,1,.5-2.508.53.53,0,0,1,.824-2.6H1.44l.184-1.136H1.032a.453.453,0,0,1-.264-.072.254.254,0,0,1-.1-.224.326.326,0,0,1,.128-.284.578.578,0,0,1,.344-.092h.648l.264-1.448a.592.592,0,0,1,.144-.292.381.381,0,0,1,.288-.108.317.317,0,0,1,.268.12.368.368,0,0,1,.052.312L2.544-4.408H3.776L4.04-5.856a.546.546,0,0,1,.144-.284.383.383,0,0,1,.288-.116.3.3,0,0,1,.268.12.388.388,0,0,1,.044.312L4.536-4.408ZM3.424-2.6l.192-1.136H2.384L2.2-2.6ZM9.336.08A3.019,3.019,0,0,1,8.124-.164a3.013,3.013,0,0,1-.984-.68,3.161,3.161,0,0,1-.656-1.02,3.342,3.342,0,0,1-.236-1.264A3.29,3.29,0,0,1,6.484-4.38,3.172,3.172,0,0,1,7.14-5.4a3.077,3.077,0,0,1,.98-.684,2.969,2.969,0,0,1,1.216-.248,3.134,3.134,0,0,1,1.06.16,3.05,3.05,0,0,1,.892.528.443.443,0,0,1,.1.1.3.3,0,0,1,.048.1.558.558,0,0,1,.012.124.329.329,0,0,1-.108.252.42.42,0,0,1-.26.112.421.421,0,0,1-.3-.1,2.373,2.373,0,0,0-.612-.392,2.145,2.145,0,0,0-.836-.136,2.094,2.094,0,0,0-.888.192,2.346,2.346,0,0,0-.732.528,2.437,2.437,0,0,0-.492.78,2.549,2.549,0,0,0-.176.948,2.571,2.571,0,0,0,.176.956,2.437,2.437,0,0,0,.492.78,2.292,2.292,0,0,0,.732.524,2.131,2.131,0,0,0,.888.188,2.132,2.132,0,0,0,.772-.14,2.977,2.977,0,0,0,.7-.388.42.42,0,0,1,.284-.092.359.359,0,0,1,.236.112.382.382,0,0,1,.1.276.4.4,0,0,1-.032.156.438.438,0,0,1-.1.14,3.218,3.218,0,0,1-.924.52A3.052,3.052,0,0,1,9.336.08ZM15.568,0A.358.358,0,0,1,15.3-.12a.407.407,0,0,1-.112-.288V-1.416H12.52a.374.374,0,0,1-.288-.112.423.423,0,0,1-.116-.26.387.387,0,0,1,.076-.268l3.064-4.016A.518.518,0,0,1,15.4-6.2a.372.372,0,0,1,.188-.048.343.343,0,0,1,.272.12.436.436,0,0,1,.1.3v3.68h.48a.507.507,0,0,1,.288.08.321.321,0,0,1,.12.288.338.338,0,0,1-.12.26.416.416,0,0,1-.288.108h-.48V-.408a.407.407,0,0,1-.112.288A.376.376,0,0,1,15.568,0ZM13-1.928l-.216-.224h2.4v-3.3l.248.32ZM19.488,0a1.525,1.525,0,0,1-1.036-.372A2.316,2.316,0,0,1,17.8-1.444a5.563,5.563,0,0,1-.224-1.684A5.563,5.563,0,0,1,17.8-4.812a2.316,2.316,0,0,1,.652-1.072,1.525,1.525,0,0,1,1.036-.372,1.506,1.506,0,0,1,1.036.38,2.373,2.373,0,0,1,.652,1.08A5.5,5.5,0,0,1,21.4-3.128a5.5,5.5,0,0,1-.224,1.668,2.373,2.373,0,0,1-.652,1.08A1.506,1.506,0,0,1,19.488,0Zm0-.832a.746.746,0,0,0,.608-.3,2.032,2.032,0,0,0,.36-.82,5.248,5.248,0,0,0,.12-1.176,5.248,5.248,0,0,0-.12-1.176,2.069,2.069,0,0,0-.36-.824.743.743,0,0,0-.608-.3.746.746,0,0,0-.608.3,2.032,2.032,0,0,0-.36.82,5.289,5.289,0,0,0-.12,1.184,5.289,5.289,0,0,0,.12,1.184,1.963,1.963,0,0,0,.364.816A.753.753,0,0,0,19.488-.832ZM24.04-6.256a1.938,1.938,0,0,1,.984.244,1.747,1.747,0,0,1,.664.672,1.969,1.969,0,0,1,.24.98,1.992,1.992,0,0,1-.24.984,1.74,1.74,0,0,1-.664.676,1.938,1.938,0,0,1-.984.244,1.927,1.927,0,0,1-.972-.244,1.732,1.732,0,0,1-.668-.676,1.992,1.992,0,0,1-.24-.984,1.969,1.969,0,0,1,.24-.98,1.747,1.747,0,0,1,.664-.672A1.922,1.922,0,0,1,24.04-6.256Zm.008.72a1.124,1.124,0,0,0-.58.148,1.052,1.052,0,0,0-.4.412,1.267,1.267,0,0,0-.144.616,1.273,1.273,0,0,0,.144.612,1.073,1.073,0,0,0,.4.42,1.1,1.1,0,0,0,.58.152,1.1,1.1,0,0,0,.58-.152,1.045,1.045,0,0,0,.392-.42,1.3,1.3,0,0,0,.14-.612,1.3,1.3,0,0,0-.14-.616,1.024,1.024,0,0,0-.392-.412A1.124,1.124,0,0,0,24.048-5.536Zm1.616,2.2L23.808-.24a.426.426,0,0,1-.368.224.419.419,0,0,1-.276-.1.405.405,0,0,1-.144-.244.378.378,0,0,1,.06-.284l1.136-1.888ZM27.592,0a.384.384,0,0,1-.28-.12.393.393,0,0,1-.12-.288.39.39,0,0,1,.02-.124q.02-.06.052-.132l2.3-4.768H27.128a.4.4,0,0,1-.292-.116.4.4,0,0,1-.116-.292.4.4,0,0,1,.116-.292.4.4,0,0,1,.292-.116h3.048a.393.393,0,0,1,.288.12.393.393,0,0,1,.12.288.365.365,0,0,1-.016.108,1.085,1.085,0,0,1-.04.108l-2.56,5.4A.409.409,0,0,1,27.592,0ZM32.04,0a.4.4,0,0,1-.3-.12.4.4,0,0,1-.12-.3V-5.832a.4.4,0,0,1,.12-.3.409.409,0,0,1,.3-.116h1.912a2.061,2.061,0,0,1,.956.212,1.627,1.627,0,0,1,.648.588,1.591,1.591,0,0,1,.236.864,1.242,1.242,0,0,1-.212.708,1.477,1.477,0,0,1-.58.5,1.562,1.562,0,0,1,.848.5,1.466,1.466,0,0,1,.32.984,1.829,1.829,0,0,1-.26.976,1.826,1.826,0,0,1-.724.668A2.252,2.252,0,0,1,34.12,0Zm.416-.768H34.12A1.544,1.544,0,0,0,34.768-.9a1.011,1.011,0,0,0,.44-.376,1.114,1.114,0,0,0,.16-.616.953.953,0,0,0-.16-.568.993.993,0,0,0-.44-.34,1.683,1.683,0,0,0-.648-.116H32.456Zm0-2.912h1.5A1.194,1.194,0,0,0,34.7-3.9a.8.8,0,0,0,.292-.68A.792.792,0,0,0,34.7-5.26a1.209,1.209,0,0,0-.748-.22h-1.5Z" transform="translate(469 845)" fill="#fff"/>
    <path id="Trazado_1182" data-name="Trazado 1182" d="M5.016-4.408a.434.434,0,0,1,.272.08.266.266,0,0,1,.08.264.292.292,0,0,1-.144.24.562.562,0,0,1-.312.088H4.376L4.184-2.6H4.7a.385.385,0,0,1,.276.088.306.306,0,0,1,.092.232.32.32,0,0,1-.128.24.5.5,0,0,1-.344.112H4.016L3.752-.4a.544.544,0,0,1-.14.288A.387.387,0,0,1,3.32,0a.289.289,0,0,1-.26-.128.4.4,0,0,1-.052-.3l.248-1.5H2.024L1.768-.4a.533.533,0,0,1-.148.284A.386.386,0,0,1,1.336,0a.321.321,0,0,1-.264-.108.406.406,0,0,1-.056-.324l.256-1.5H.72a.4.4,0,0,1-.268-.084.252.252,0,0,1-.092-.22A.364.364,0,0,1,.5-2.508.53.53,0,0,1,.824-2.6H1.44l.184-1.136H1.032a.453.453,0,0,1-.264-.072.254.254,0,0,1-.1-.224.326.326,0,0,1,.128-.284.578.578,0,0,1,.344-.092h.648l.264-1.448a.592.592,0,0,1,.144-.292.381.381,0,0,1,.288-.108.317.317,0,0,1,.268.12.368.368,0,0,1,.052.312L2.544-4.408H3.776L4.04-5.856a.546.546,0,0,1,.144-.284.383.383,0,0,1,.288-.116.3.3,0,0,1,.268.12.388.388,0,0,1,.044.312L4.536-4.408ZM3.424-2.6l.192-1.136H2.384L2.2-2.6ZM6.448,0a.4.4,0,0,1-.3-.12.4.4,0,0,1-.12-.3V-5.832a.4.4,0,0,1,.12-.3.409.409,0,0,1,.3-.116h3.616a.408.408,0,0,1,.3.108.377.377,0,0,1,.112.284.354.354,0,0,1-.112.272.418.418,0,0,1-.3.1h-3.2v1.944h2.3a.408.408,0,0,1,.3.108.367.367,0,0,1,.112.276.367.367,0,0,1-.112.276.408.408,0,0,1-.3.108h-2.3V-.416a.4.4,0,0,1-.12.3A.4.4,0,0,1,6.448,0Zm5,0a.4.4,0,0,1-.3-.12.4.4,0,0,1-.12-.3V-5.832a.4.4,0,0,1,.12-.3.409.409,0,0,1,.3-.116h3.616a.408.408,0,0,1,.3.108.377.377,0,0,1,.112.284.354.354,0,0,1-.112.272.418.418,0,0,1-.3.1h-3.2v1.944h2.3a.408.408,0,0,1,.3.108.367.367,0,0,1,.112.276.367.367,0,0,1-.112.276.408.408,0,0,1-.3.108h-2.3V-.416a.4.4,0,0,1-.12.3A.4.4,0,0,1,11.448,0Zm5,0a.4.4,0,0,1-.3-.12.4.4,0,0,1-.12-.3V-5.832a.4.4,0,0,1,.12-.3.409.409,0,0,1,.3-.116h3.616a.408.408,0,0,1,.3.108.377.377,0,0,1,.112.284.354.354,0,0,1-.112.272.418.418,0,0,1-.3.1h-3.2v1.944h2.3a.408.408,0,0,1,.3.108.367.367,0,0,1,.112.276.367.367,0,0,1-.112.276.408.408,0,0,1-.3.108h-2.3V-.416a.4.4,0,0,1-.12.3A.4.4,0,0,1,16.448,0Zm5,0a.4.4,0,0,1-.3-.12.4.4,0,0,1-.12-.3V-5.832a.4.4,0,0,1,.12-.3.409.409,0,0,1,.3-.116h3.616a.408.408,0,0,1,.3.108.377.377,0,0,1,.112.284.354.354,0,0,1-.112.272.418.418,0,0,1-.3.1h-3.2v1.944h2.3a.408.408,0,0,1,.3.108.367.367,0,0,1,.112.276.367.367,0,0,1-.112.276.408.408,0,0,1-.3.108h-2.3V-.416a.4.4,0,0,1-.12.3A.4.4,0,0,1,21.448,0Zm5,0a.4.4,0,0,1-.3-.12.4.4,0,0,1-.12-.3V-5.832a.4.4,0,0,1,.12-.3.409.409,0,0,1,.3-.116h3.616a.408.408,0,0,1,.3.108.377.377,0,0,1,.112.284.354.354,0,0,1-.112.272.418.418,0,0,1-.3.1h-3.2v1.944h2.3a.408.408,0,0,1,.3.108.367.367,0,0,1,.112.276.367.367,0,0,1-.112.276.408.408,0,0,1-.3.108h-2.3V-.416a.4.4,0,0,1-.12.3A.4.4,0,0,1,26.448,0Zm5,0a.4.4,0,0,1-.3-.12.4.4,0,0,1-.12-.3V-5.832a.4.4,0,0,1,.12-.3.409.409,0,0,1,.3-.116h3.616a.408.408,0,0,1,.3.108.377.377,0,0,1,.112.284.354.354,0,0,1-.112.272.418.418,0,0,1-.3.1h-3.2v1.944h2.3a.408.408,0,0,1,.3.108.367.367,0,0,1,.112.276.367.367,0,0,1-.112.276.408.408,0,0,1-.3.108h-2.3V-.416a.4.4,0,0,1-.12.3A.4.4,0,0,1,31.448,0Z" transform="translate(408 845)" fill="gray"/>
  </g>
</svg>
