<svg xmlns="http://www.w3.org/2000/svg" width="168.024" height="94.72" viewBox="0 0 168.024 94.72">
  <g id="font_eta" transform="translate(-748.976 -2224)">
    <text id="AaBb" transform="translate(751 2296)" fill="#fff" font-size="74" font-family="QuestaSans-Regular, Questa Sans"><tspan x="0" y="0">AaBb</tspan></text>
    <path id="Trazado_1174" data-name="Trazado 1174" d="M11.52,11.272a7.137,7.137,0,0,1-.84,3.576,4.316,4.316,0,0,1-2.488,2.024l2.736,2.848H8.864L6.656,17.144q-.1,0-.2.008t-.2.008A5.47,5.47,0,0,1,3.3,16.424,4.465,4.465,0,0,1,1.552,14.36a7.749,7.749,0,0,1-.576-3.1,7.6,7.6,0,0,1,.576-3.064A4.471,4.471,0,0,1,3.3,6.136,5.5,5.5,0,0,1,6.272,5.4a5.346,5.346,0,0,1,2.88.728A4.582,4.582,0,0,1,10.92,8.176,7.422,7.422,0,0,1,11.52,11.272Zm-9.024,0a5.631,5.631,0,0,0,.912,3.4,3.3,3.3,0,0,0,2.848,1.24,3.278,3.278,0,0,0,2.84-1.24,5.668,5.668,0,0,0,.9-3.4,5.63,5.63,0,0,0-.9-3.384A3.274,3.274,0,0,0,6.272,6.664,3.337,3.337,0,0,0,3.408,7.888,5.557,5.557,0,0,0,2.5,11.272ZM21.024,8.424V17H19.872l-.208-1.136H19.6a2.443,2.443,0,0,1-1.152.984,3.976,3.976,0,0,1-1.568.312,3.277,3.277,0,0,1-2.336-.744,3.148,3.148,0,0,1-.784-2.376V8.424h1.424v5.52q0,2.048,1.9,2.048a2.233,2.233,0,0,0,1.976-.8,4.039,4.039,0,0,0,.552-2.3V8.424Zm6.032-.16a3.6,3.6,0,0,1,1.888.48A3.137,3.137,0,0,1,30.168,10.1a4.615,4.615,0,0,1,.424,2.04v.848H24.72a3.236,3.236,0,0,0,.744,2.216,2.6,2.6,0,0,0,1.992.76,6.222,6.222,0,0,0,1.448-.152,8.166,8.166,0,0,0,1.3-.44V16.6a6.679,6.679,0,0,1-1.3.424,7.4,7.4,0,0,1-1.52.136,4.515,4.515,0,0,1-2.16-.5,3.475,3.475,0,0,1-1.448-1.472,5.091,5.091,0,0,1-.52-2.416,5.658,5.658,0,0,1,.472-2.416,3.587,3.587,0,0,1,1.328-1.552A3.634,3.634,0,0,1,27.056,8.264ZM27.04,9.416a2.035,2.035,0,0,0-1.592.648,3.054,3.054,0,0,0-.7,1.8H29.12a3.006,3.006,0,0,0-.512-1.768A1.81,1.81,0,0,0,27.04,9.416Zm11.312,5.216a2.146,2.146,0,0,1-.928,1.888,4.327,4.327,0,0,1-2.5.64,7.205,7.205,0,0,1-1.544-.144,4.721,4.721,0,0,1-1.144-.4v-1.28a7.682,7.682,0,0,0,1.24.472,5.177,5.177,0,0,0,1.48.216,2.716,2.716,0,0,0,1.552-.344,1.077,1.077,0,0,0,.48-.92.993.993,0,0,0-.176-.576,1.866,1.866,0,0,0-.632-.512,10,10,0,0,0-1.3-.576,12.338,12.338,0,0,1-1.424-.64,2.63,2.63,0,0,1-.912-.768,1.936,1.936,0,0,1-.32-1.152,1.9,1.9,0,0,1,.888-1.68,4.128,4.128,0,0,1,2.328-.592,6.382,6.382,0,0,1,1.464.16,7.563,7.563,0,0,1,1.272.416L37.7,9.96a9.469,9.469,0,0,0-1.136-.384,4.64,4.64,0,0,0-1.216-.16,2.545,2.545,0,0,0-1.32.28.856.856,0,0,0-.456.76.9.9,0,0,0,.208.608,2.227,2.227,0,0,0,.7.48q.488.24,1.3.544a10.281,10.281,0,0,1,1.392.624,2.471,2.471,0,0,1,.88.776A2.019,2.019,0,0,1,38.352,14.632ZM43.3,16.008a4.637,4.637,0,0,0,.656-.048,2.562,2.562,0,0,0,.544-.128V16.9a2.394,2.394,0,0,1-.64.184,4.692,4.692,0,0,1-.8.072,3.248,3.248,0,0,1-1.24-.232,1.918,1.918,0,0,1-.92-.808,3.106,3.106,0,0,1-.352-1.616V9.512H39.328V8.84l1.232-.56.56-1.824h.832V8.424h2.48V9.512h-2.48v4.96a1.581,1.581,0,0,0,.376,1.16A1.31,1.31,0,0,0,43.3,16.008Zm6.16-7.728a3.35,3.35,0,0,1,2.32.688,2.84,2.84,0,0,1,.752,2.192V17H51.5l-.272-1.216h-.064a3.921,3.921,0,0,1-1.184,1.04,3.6,3.6,0,0,1-1.7.336,3,3,0,0,1-1.936-.616,2.324,2.324,0,0,1-.768-1.928,2.26,2.26,0,0,1,1.008-1.976,5.847,5.847,0,0,1,3.1-.76l1.456-.048V11.32a1.94,1.94,0,0,0-.464-1.488,1.9,1.9,0,0,0-1.312-.416,4.07,4.07,0,0,0-1.28.2,9.168,9.168,0,0,0-1.136.456l-.432-1.056a6.445,6.445,0,0,1,1.328-.52A5.882,5.882,0,0,1,49.456,8.28Zm1.68,4.528-1.264.048a4.262,4.262,0,0,0-2.216.512,1.472,1.472,0,0,0-.616,1.264,1.244,1.244,0,0,0,.44,1.056,1.806,1.806,0,0,0,1.128.336,2.736,2.736,0,0,0,1.8-.6,2.257,2.257,0,0,0,.728-1.848Zm14.88,1.136a2.816,2.816,0,0,1-1.1,2.368,4.765,4.765,0,0,1-2.976.848,10.236,10.236,0,0,1-1.776-.144,5.443,5.443,0,0,1-1.36-.4V15.24a8.542,8.542,0,0,0,1.432.464A7.461,7.461,0,0,0,62,15.912a3.148,3.148,0,0,0,1.92-.5,1.6,1.6,0,0,0,.656-1.344,1.748,1.748,0,0,0-.24-.944,2.162,2.162,0,0,0-.832-.7,13.463,13.463,0,0,0-1.616-.7,5.672,5.672,0,0,1-2.208-1.3,2.9,2.9,0,0,1-.736-2.1,2.618,2.618,0,0,1,.464-1.552,2.962,2.962,0,0,1,1.28-1.008,4.775,4.775,0,0,1,1.9-.352,7.741,7.741,0,0,1,3.152.64L65.3,7.288A8.389,8.389,0,0,0,64,6.856a5.915,5.915,0,0,0-1.44-.176,2.464,2.464,0,0,0-1.616.456A1.5,1.5,0,0,0,60.4,8.344a1.78,1.78,0,0,0,.24.96,2.166,2.166,0,0,0,.784.7,9.637,9.637,0,0,0,1.472.648,9.662,9.662,0,0,1,1.7.792,3.072,3.072,0,0,1,1.056,1.016A2.821,2.821,0,0,1,66.016,13.944Zm5.36-5.664a3.35,3.35,0,0,1,2.32.688,2.84,2.84,0,0,1,.752,2.192V17H73.424l-.272-1.216h-.064a3.921,3.921,0,0,1-1.184,1.04,3.6,3.6,0,0,1-1.7.336,3,3,0,0,1-1.936-.616,2.324,2.324,0,0,1-.768-1.928,2.26,2.26,0,0,1,1.008-1.976,5.847,5.847,0,0,1,3.1-.76l1.456-.048V11.32a1.94,1.94,0,0,0-.464-1.488A1.9,1.9,0,0,0,71.3,9.416a4.07,4.07,0,0,0-1.28.2,9.168,9.168,0,0,0-1.136.456l-.432-1.056a6.445,6.445,0,0,1,1.328-.52A5.882,5.882,0,0,1,71.376,8.28Zm1.68,4.528-1.264.048a4.262,4.262,0,0,0-2.216.512,1.471,1.471,0,0,0-.616,1.264,1.244,1.244,0,0,0,.44,1.056,1.806,1.806,0,0,0,1.128.336,2.736,2.736,0,0,0,1.8-.6,2.257,2.257,0,0,0,.728-1.848Zm8.176-4.544a3.229,3.229,0,0,1,2.32.752,3.2,3.2,0,0,1,.784,2.4V17H82.944V11.512q0-2.064-1.92-2.064a2.211,2.211,0,0,0-1.968.8,4.086,4.086,0,0,0-.544,2.3V17H77.1V8.424H78.24l.208,1.168h.08a2.537,2.537,0,0,1,1.152-1A3.771,3.771,0,0,1,81.232,8.264Zm11.344,6.368a2.146,2.146,0,0,1-.928,1.888,4.327,4.327,0,0,1-2.5.64,7.205,7.205,0,0,1-1.544-.144,4.721,4.721,0,0,1-1.144-.4v-1.28a7.682,7.682,0,0,0,1.24.472,5.177,5.177,0,0,0,1.48.216,2.716,2.716,0,0,0,1.552-.344,1.077,1.077,0,0,0,.48-.92.993.993,0,0,0-.176-.576,1.866,1.866,0,0,0-.632-.512,10,10,0,0,0-1.3-.576,12.339,12.339,0,0,1-1.424-.64,2.63,2.63,0,0,1-.912-.768,1.936,1.936,0,0,1-.32-1.152,1.9,1.9,0,0,1,.888-1.68,4.128,4.128,0,0,1,2.328-.592,6.382,6.382,0,0,1,1.464.16A7.562,7.562,0,0,1,92.4,8.84l-.48,1.12a9.468,9.468,0,0,0-1.136-.384,4.64,4.64,0,0,0-1.216-.16,2.545,2.545,0,0,0-1.32.28.856.856,0,0,0-.456.76.9.9,0,0,0,.208.608,2.227,2.227,0,0,0,.7.48q.488.24,1.3.544a10.282,10.282,0,0,1,1.392.624,2.471,2.471,0,0,1,.88.776A2.019,2.019,0,0,1,92.576,14.632Z" transform="translate(748 2299)" fill="#fff"/>
  </g>
</svg>
