<?xml version="1.0" encoding="utf-8"?>
<!-- Generator: Adobe Illustrator 27.0.0, SVG Export Plug-In . SVG Version: 6.00 Build 0)  -->
<svg version="1.1" id="Capa_1" xmlns="http://www.w3.org/2000/svg" xmlns:xlink="http://www.w3.org/1999/xlink" x="0px" y="0px"
	 viewBox="0 0 168 94.7" style="enable-background:new 0 0 168 94.7;" xml:space="preserve">
<style type="text/css">
	.st0{enable-background:new    ;}
	.st1{fill:#FFFFFF;}
</style>
<g id="font_eta" transform="translate(-748.976 -2224)">
	<g class="st0">
		<path class="st1" d="M752.5,2296l18.9-48.9h4.9l19,48.9h-7.1l-5.5-14.3h-18.3L759,2296H752.5z M770.9,2264.9l-4.4,11.4h14.1
			l-4.3-11.4c-0.6-1.5-1.5-4.3-2.7-8.2C772.6,2260.2,771.6,2262.9,770.9,2264.9z"/>
		<path class="st1" d="M830.1,2296.5c-5.3,0.6-8.1-1.2-8.4-5.5c-0.9,1.7-2.3,3.1-4.3,4.3c-1.9,1.2-4.2,1.7-6.7,1.7
			c-3,0-5.5-0.8-7.6-2.4c-2.1-1.6-3.1-3.8-3.1-6.8c0-3.8,1.9-6.7,5.6-8.7c3.7-2,8.9-3,15.5-3.1v-1.9c0-3-0.5-5.1-1.5-6.4
			c-1-1.3-2.8-1.9-5.3-1.9c-2.5,0-4.3,0.5-5.6,1.6c-1.3,1.1-1.8,2.8-1.6,5.2l-5.8-1c-0.4-3.3,0.6-5.9,2.8-7.8
			c2.3-1.9,5.9-2.8,10.7-2.8c4.3,0,7.5,1,9.4,2.9c1.9,1.9,2.9,5.1,2.9,9.4v13.5c0,0.1,0,0.2,0,0.4c0,0.7,0,1.2,0,1.5
			c0,0.3,0.1,0.7,0.2,1.3c0.1,0.5,0.3,0.9,0.6,1c0.3,0.1,0.7,0.3,1.3,0.5c0.5,0.2,1.2,0.2,2.1-0.1L830.1,2296.5z M821.2,2284.2v-3.6
			c-9.8,0-14.7,2.3-14.7,6.8c0,1.5,0.5,2.6,1.4,3.5c1,0.8,2.3,1.3,4,1.3c2.3,0,4.3-0.8,6.2-2.3C820,2288.3,821,2286.4,821.2,2284.2z
			"/>
		<path class="st1" d="M840.1,2296v-48.9h15c4.6,0,8.5,1,11.5,2.9c3,1.9,4.5,5.1,4.5,9.5c0,2.9-0.7,5.3-2,7.1
			c-1.3,1.8-2.9,3.1-4.8,3.8v0.3c3,0.7,5.2,2.1,6.7,4.1s2.3,4.4,2.3,7.3c0,4.1-1.5,7.5-4.5,10.1c-3,2.6-7.4,3.9-13.2,3.9H840.1z
			 M846.5,2268.3h9.1c5.6,0,8.4-2.6,8.4-7.8c0-2.7-0.8-4.6-2.4-5.9c-1.6-1.3-4.1-1.9-7.5-1.9h-7.6V2268.3z M846.5,2290.5h8.2
			c7.8,0,11.7-2.8,11.7-8.4c0-5.6-3.5-8.4-10.6-8.4h-9.3V2290.5z"/>
		<path class="st1" d="M882.7,2296v-53.1h5.9v23.5c2.7-3.6,6.1-5.3,10.4-5.3c2.5,0,4.7,0.5,6.6,1.4c1.9,1,3.4,2.3,4.4,3.9
			c1.1,1.6,1.9,3.4,2.4,5.3s0.8,4,0.8,6.2c0,5.7-1.2,10.3-3.7,13.8c-2.5,3.6-6.2,5.3-11.1,5.3c-4.8,0-8.3-1.9-10.4-5.5l-0.3,4.5
			H882.7z M898.3,2292.2c3,0,5.1-1.3,6.5-3.8c1.4-2.5,2.1-5.9,2.1-10.1c0-4.1-0.7-7.3-2.2-9.3c-1.5-2.1-3.5-3.1-6.2-3.1
			c-3,0-5.4,1.3-7.1,3.8c-1.8,2.5-2.6,5.7-2.6,9.6c0,3.8,0.9,7,2.6,9.3C893,2291,895.3,2292.2,898.3,2292.2z"/>
	</g>
	<g id="Trazado_1174">
		<path class="st1" d="M759.5,2310.3c0,1.2-0.3,2.5-0.8,3.6c-0.5,1-1.4,1.7-2.5,2l2.7,2.8h-2.1l-2.2-2.6c-0.1,0-0.1,0-0.2,0
			c-0.1,0-0.1,0-0.2,0c-1,0-2.1-0.2-3-0.7c-0.8-0.5-1.4-1.2-1.7-2.1c-0.4-1-0.6-2-0.6-3.1c0-1.1,0.2-2.1,0.6-3.1
			c0.4-0.9,1-1.6,1.7-2.1c0.9-0.5,1.9-0.8,3-0.7c1,0,2,0.2,2.9,0.7c0.8,0.5,1.4,1.2,1.8,2C759.3,2308.2,759.5,2309.2,759.5,2310.3z
			 M750.5,2310.3c-0.1,1.2,0.3,2.4,0.9,3.4c0.7,0.9,1.8,1.3,2.8,1.2c1.1,0.1,2.2-0.4,2.8-1.2c0.7-1,1-2.2,0.9-3.4
			c0.1-1.2-0.2-2.4-0.9-3.4c-0.7-0.9-1.7-1.3-2.8-1.2c-1.1-0.1-2.2,0.4-2.9,1.2C750.7,2307.9,750.4,2309.1,750.5,2310.3
			L750.5,2310.3z M769,2307.4v8.6h-1.2l-0.2-1.1h-0.1c-0.3,0.4-0.7,0.8-1.2,1c-0.5,0.2-1,0.3-1.6,0.3c-0.8,0.1-1.7-0.2-2.3-0.7
			c-0.6-0.6-0.9-1.5-0.8-2.4v-5.6h1.4v5.5c0,1.4,0.6,2,1.9,2c0.8,0.1,1.5-0.2,2-0.8c0.4-0.7,0.6-1.5,0.6-2.3v-4.5H769z
			 M775.1,2307.3c0.7,0,1.3,0.1,1.9,0.5c0.5,0.3,1,0.8,1.2,1.4c0.3,0.6,0.4,1.3,0.4,2v0.8h-5.9c0,0.8,0.2,1.6,0.7,2.2
			c0.5,0.5,1.2,0.8,2,0.8c0.5,0,1,0,1.4-0.2c0.4-0.1,0.9-0.3,1.3-0.4v1.2c-0.4,0.2-0.9,0.3-1.3,0.4c-0.5,0.1-1,0.1-1.5,0.1
			c-0.8,0-1.5-0.2-2.2-0.5c-0.6-0.3-1.1-0.8-1.4-1.5c-0.4-0.8-0.5-1.6-0.5-2.4c0-0.8,0.1-1.7,0.5-2.4c0.3-0.6,0.7-1.2,1.3-1.6
			C773.7,2307.4,774.4,2307.2,775.1,2307.3z M775,2308.4c-0.6,0-1.2,0.2-1.6,0.6c-0.4,0.5-0.7,1.1-0.7,1.8h4.4
			c0-0.6-0.2-1.2-0.5-1.8C776.2,2308.6,775.6,2308.4,775,2308.4z M786.4,2313.6c0,0.7-0.3,1.5-0.9,1.9c-0.7,0.5-1.6,0.7-2.5,0.6
			c-0.5,0-1,0-1.5-0.1c-0.4-0.1-0.8-0.2-1.1-0.4v-1.3c0.4,0.2,0.8,0.4,1.2,0.5c0.5,0.1,1,0.2,1.5,0.2c0.5,0,1.1-0.1,1.6-0.3
			c0.3-0.2,0.5-0.6,0.5-0.9c0-0.2-0.1-0.4-0.2-0.6c-0.2-0.2-0.4-0.4-0.6-0.5c-0.4-0.2-0.9-0.4-1.3-0.6c-0.5-0.2-1-0.4-1.4-0.6
			c-0.4-0.2-0.7-0.4-0.9-0.8c-0.2-0.3-0.3-0.7-0.3-1.2c0-0.7,0.3-1.3,0.9-1.7c0.7-0.4,1.5-0.6,2.3-0.6c0.5,0,1,0.1,1.5,0.2
			c0.4,0.1,0.9,0.2,1.3,0.4l-0.5,1.1c-0.4-0.2-0.7-0.3-1.1-0.4c-0.4-0.1-0.8-0.2-1.2-0.2c-0.5,0-0.9,0.1-1.3,0.3
			c-0.3,0.1-0.5,0.4-0.5,0.8c0,0.2,0.1,0.4,0.2,0.6c0.2,0.2,0.4,0.4,0.7,0.5c0.3,0.2,0.8,0.3,1.3,0.5c0.5,0.2,0.9,0.4,1.4,0.6
			c0.4,0.2,0.7,0.5,0.9,0.8C786.3,2312.8,786.4,2313.2,786.4,2313.6z M791.3,2315c0.2,0,0.4,0,0.7,0c0.2,0,0.4-0.1,0.5-0.1v1.1
			c-0.2,0.1-0.4,0.2-0.6,0.2c-0.3,0-0.5,0.1-0.8,0.1c-0.4,0-0.8-0.1-1.2-0.2c-0.4-0.2-0.7-0.4-0.9-0.8c-0.3-0.5-0.4-1.1-0.4-1.6v-5
			h-1.2v-0.7l1.2-0.6l0.6-1.8h0.8v2h2.5v1.1H790v5c0,0.4,0.1,0.8,0.4,1.2C790.6,2314.9,790.9,2315,791.3,2315z M797.5,2307.3
			c0.8-0.1,1.7,0.2,2.3,0.7c0.6,0.6,0.8,1.4,0.8,2.2v5.8h-1l-0.3-1.2h-0.1c-0.3,0.4-0.7,0.8-1.2,1c-0.5,0.2-1.1,0.4-1.7,0.3
			c-0.7,0-1.4-0.2-1.9-0.6c-0.5-0.5-0.8-1.2-0.8-1.9c0-0.8,0.3-1.5,1-2c0.9-0.5,2-0.8,3.1-0.8l1.5,0v-0.5c0.1-0.5-0.1-1.1-0.5-1.5
			c-0.4-0.3-0.8-0.4-1.3-0.4c-0.4,0-0.9,0.1-1.3,0.2c-0.4,0.1-0.8,0.3-1.1,0.5l-0.4-1.1c0.4-0.2,0.9-0.4,1.3-0.5
			C796.4,2307.3,796.9,2307.3,797.5,2307.3L797.5,2307.3z M799.1,2311.8l-1.3,0c-0.8,0-1.5,0.1-2.2,0.5c-0.4,0.3-0.6,0.8-0.6,1.3
			c0,0.4,0.1,0.8,0.4,1.1c0.3,0.2,0.7,0.4,1.1,0.3c0.7,0,1.3-0.2,1.8-0.6c0.5-0.5,0.8-1.2,0.7-1.8V2311.8z M814,2312.9
			c0,0.9-0.4,1.8-1.1,2.4c-0.9,0.6-1.9,0.9-3,0.8c-0.6,0-1.2,0-1.8-0.1c-0.5-0.1-0.9-0.2-1.4-0.4v-1.4c0.5,0.2,0.9,0.4,1.4,0.5
			c0.6,0.1,1.2,0.2,1.8,0.2c0.7,0,1.4-0.1,1.9-0.5c0.4-0.3,0.7-0.8,0.7-1.3c0-0.3-0.1-0.7-0.2-0.9c-0.2-0.3-0.5-0.5-0.8-0.7
			c-0.5-0.3-1.1-0.5-1.6-0.7c-0.8-0.3-1.6-0.7-2.2-1.3c-0.5-0.6-0.8-1.3-0.7-2.1c0-0.6,0.1-1.1,0.5-1.6c0.3-0.4,0.8-0.8,1.3-1
			c0.6-0.2,1.2-0.4,1.9-0.4c1.1,0,2.2,0.2,3.2,0.6l-0.4,1.2c-0.4-0.2-0.9-0.3-1.3-0.4c-0.5-0.1-1-0.2-1.4-0.2
			c-0.6,0-1.1,0.1-1.6,0.5c-0.4,0.3-0.6,0.7-0.5,1.2c0,0.3,0.1,0.7,0.2,1c0.2,0.3,0.5,0.5,0.8,0.7c0.5,0.3,1,0.5,1.5,0.6
			c0.6,0.2,1.2,0.5,1.7,0.8c0.4,0.2,0.8,0.6,1.1,1C813.9,2311.9,814,2312.4,814,2312.9L814,2312.9z M819.4,2307.3
			c0.8-0.1,1.7,0.2,2.3,0.7c0.6,0.6,0.8,1.4,0.8,2.2v5.8h-1l-0.3-1.2h-0.1c-0.3,0.4-0.7,0.8-1.2,1c-0.5,0.2-1.1,0.4-1.7,0.3
			c-0.7,0-1.4-0.2-1.9-0.6c-0.5-0.5-0.8-1.2-0.8-1.9c0-0.8,0.3-1.5,1-2c0.9-0.5,2-0.8,3.1-0.8l1.5,0v-0.5c0.1-0.5-0.1-1.1-0.5-1.5
			c-0.4-0.3-0.8-0.4-1.3-0.4c-0.4,0-0.9,0.1-1.3,0.2c-0.4,0.1-0.8,0.3-1.1,0.5l-0.4-1.1c0.4-0.2,0.9-0.4,1.3-0.5
			C818.3,2307.4,818.8,2307.3,819.4,2307.3L819.4,2307.3z M821.1,2311.8l-1.3,0c-0.8,0-1.5,0.1-2.2,0.5c-0.4,0.3-0.6,0.8-0.6,1.3
			c0,0.4,0.1,0.8,0.4,1.1c0.3,0.2,0.7,0.4,1.1,0.3c0.7,0,1.3-0.2,1.8-0.6c0.5-0.5,0.8-1.2,0.7-1.8V2311.8z M829.2,2307.3
			c0.8-0.1,1.7,0.2,2.3,0.8c0.6,0.7,0.9,1.5,0.8,2.4v5.6h-1.4v-5.5c0-1.4-0.6-2.1-1.9-2.1c-0.7-0.1-1.5,0.2-2,0.8
			c-0.4,0.7-0.6,1.5-0.5,2.3v4.5h-1.4v-8.6h1.1l0.2,1.2h0.1c0.3-0.4,0.7-0.8,1.2-1C828.2,2307.4,828.7,2307.3,829.2,2307.3
			L829.2,2307.3z M840.6,2313.6c0,0.7-0.3,1.5-0.9,1.9c-0.7,0.5-1.6,0.7-2.5,0.6c-0.5,0-1,0-1.5-0.1c-0.4-0.1-0.8-0.2-1.1-0.4v-1.3
			c0.4,0.2,0.8,0.4,1.2,0.5c0.5,0.1,1,0.2,1.5,0.2c0.5,0,1.1-0.1,1.6-0.3c0.3-0.2,0.5-0.6,0.5-0.9c0-0.2-0.1-0.4-0.2-0.6
			c-0.2-0.2-0.4-0.4-0.6-0.5c-0.4-0.2-0.9-0.4-1.3-0.6c-0.5-0.2-1-0.4-1.4-0.6c-0.4-0.2-0.7-0.4-0.9-0.8c-0.2-0.3-0.3-0.7-0.3-1.2
			c0-0.7,0.3-1.3,0.9-1.7c0.7-0.4,1.5-0.6,2.3-0.6c0.5,0,1,0.1,1.5,0.2c0.4,0.1,0.9,0.2,1.3,0.4l-0.5,1.1c-0.4-0.2-0.7-0.3-1.1-0.4
			c-0.4-0.1-0.8-0.2-1.2-0.2c-0.5,0-0.9,0.1-1.3,0.3c-0.3,0.1-0.5,0.4-0.5,0.8c0,0.2,0.1,0.4,0.2,0.6c0.2,0.2,0.4,0.4,0.7,0.5
			c0.3,0.2,0.8,0.3,1.3,0.5c0.5,0.2,0.9,0.4,1.4,0.6c0.4,0.2,0.7,0.5,0.9,0.8C840.5,2312.8,840.6,2313.2,840.6,2313.6L840.6,2313.6z
			"/>
	</g>
</g>
</svg>
