<?xml version="1.0" encoding="utf-8"?>
<!-- Generator: Adobe Illustrator 27.0.0, SVG Export Plug-In . SVG Version: 6.00 Build 0)  -->
<svg version="1.1" id="Capa_1" xmlns="http://www.w3.org/2000/svg" xmlns:xlink="http://www.w3.org/1999/xlink" x="0px" y="0px"
	 viewBox="0 0 166 99" style="enable-background:new 0 0 166 99;" xml:space="preserve">
<style type="text/css">
	.st0{enable-background:new    ;}
	.st1{fill:#FFFFFF;}
</style>
<g id="Font_Fairsource" transform="translate(-773 -2340)">
	<g class="st0">
		<path class="st1" d="M778.5,2436.1c-0.7,0-1.3-0.1-1.9-0.4s-1.1-0.6-1.5-1c-0.4-0.4-0.8-0.9-1-1.5c-0.2-0.6-0.4-1.2-0.4-1.9
			c0-0.7,0.1-1.3,0.4-1.9c0.2-0.6,0.6-1.1,1-1.5c0.4-0.4,0.9-0.8,1.5-1s1.2-0.4,1.9-0.4c0.7,0,1.3,0.1,1.9,0.4s1.1,0.6,1.5,1
			c0.4,0.4,0.8,0.9,1,1.5s0.4,1.2,0.4,1.9c0,0.7-0.1,1.3-0.4,1.9c-0.2,0.6-0.6,1.1-1,1.5c-0.4,0.4-0.9,0.8-1.5,1
			S779.2,2436.1,778.5,2436.1z M778.5,2435.2c0.6,0,1.1-0.1,1.5-0.3c0.5-0.2,0.9-0.5,1.2-0.8c0.3-0.4,0.6-0.8,0.8-1.2
			c0.2-0.5,0.3-1,0.3-1.6c0-0.6-0.1-1.1-0.3-1.5c-0.2-0.5-0.5-0.9-0.8-1.2c-0.3-0.4-0.8-0.6-1.2-0.8c-0.5-0.2-1-0.3-1.5-0.3
			c-0.6,0-1.1,0.1-1.5,0.3c-0.5,0.2-0.9,0.5-1.2,0.8c-0.3,0.4-0.6,0.8-0.8,1.2c-0.2,0.5-0.3,1-0.3,1.5c0,0.6,0.1,1.1,0.3,1.6
			c0.2,0.5,0.5,0.9,0.8,1.2c0.3,0.4,0.8,0.6,1.2,0.8C777.5,2435.1,778,2435.2,778.5,2435.2z M782.1,2435.9l-2.6-2.6
			c-0.1-0.1-0.1-0.2-0.1-0.3s0-0.2,0.1-0.3c0.1-0.1,0.2-0.1,0.3-0.1c0.1,0,0.2,0,0.3,0.1l2.6,2.6c0.1,0.1,0.1,0.2,0.1,0.3
			s0,0.2-0.1,0.3c-0.1,0.1-0.2,0.1-0.3,0.1C782.3,2436,782.2,2436,782.1,2435.9z"/>
		<path class="st1" d="M788,2436.1c-0.6,0-1.1-0.1-1.5-0.4c-0.4-0.2-0.8-0.6-1.1-1c-0.3-0.5-0.4-1-0.4-1.7v-3.1c0-0.1,0-0.2,0.1-0.3
			c0.1-0.1,0.2-0.1,0.3-0.1c0.1,0,0.2,0,0.3,0.1s0.1,0.2,0.1,0.3v3.1c0,0.5,0.1,0.9,0.3,1.2c0.2,0.3,0.4,0.6,0.8,0.7
			c0.3,0.2,0.7,0.2,1.1,0.2c0.4,0,0.7-0.1,1.1-0.2c0.3-0.2,0.6-0.4,0.8-0.6c0.2-0.3,0.3-0.6,0.3-0.9h0.7c0,0.5-0.2,1-0.4,1.3
			c-0.3,0.4-0.6,0.7-1,0.9C789,2436,788.5,2436.1,788,2436.1z M790.6,2436c-0.1,0-0.2,0-0.3-0.1s-0.1-0.2-0.1-0.3v-5.6
			c0-0.1,0-0.2,0.1-0.3c0.1-0.1,0.2-0.1,0.3-0.1c0.1,0,0.2,0,0.3,0.1c0.1,0.1,0.1,0.2,0.1,0.3v5.6c0,0.1,0,0.3-0.1,0.3
			C790.9,2436,790.8,2436,790.6,2436z"/>
		<path class="st1" d="M796.2,2436.1c-0.6,0-1.2-0.1-1.7-0.4c-0.5-0.3-0.9-0.7-1.2-1.2c-0.3-0.5-0.4-1.1-0.4-1.7
			c0-0.7,0.1-1.2,0.4-1.7s0.6-0.9,1.1-1.2c0.5-0.3,1-0.4,1.6-0.4c0.6,0,1.1,0.1,1.6,0.4c0.5,0.3,0.8,0.7,1.1,1.1
			c0.2,0.5,0.4,1,0.4,1.7c0,0.1,0,0.2-0.1,0.3c-0.1,0.1-0.2,0.1-0.3,0.1h-5.1v-0.8h5.2l-0.5,0.4c0-0.5-0.1-0.9-0.3-1.2
			c-0.2-0.4-0.4-0.7-0.8-0.9c-0.3-0.2-0.7-0.3-1.2-0.3c-0.5,0-0.9,0.1-1.2,0.3c-0.3,0.2-0.6,0.5-0.8,0.9s-0.3,0.8-0.3,1.3
			c0,0.5,0.1,0.9,0.3,1.3c0.2,0.4,0.5,0.7,0.9,0.9c0.4,0.2,0.8,0.3,1.3,0.3c0.3,0,0.6-0.1,0.9-0.2s0.5-0.2,0.7-0.4
			c0.1-0.1,0.2-0.1,0.3-0.1c0.1,0,0.2,0,0.3,0.1c0.1,0.1,0.2,0.2,0.2,0.3s0,0.2-0.1,0.3c-0.3,0.2-0.6,0.4-1,0.6
			C797,2436,796.6,2436.1,796.2,2436.1z"/>
		<path class="st1" d="M802.9,2436.1c-0.5,0-0.9-0.1-1.4-0.2s-0.8-0.4-1.1-0.7c-0.1-0.1-0.1-0.2-0.1-0.3s0.1-0.2,0.2-0.3
			c0.1-0.1,0.2-0.1,0.3-0.1c0.1,0,0.2,0.1,0.3,0.2c0.2,0.2,0.4,0.4,0.8,0.5s0.7,0.2,1.1,0.2c0.6,0,1-0.1,1.3-0.3
			c0.3-0.2,0.4-0.5,0.4-0.7c0-0.3-0.1-0.5-0.4-0.7c-0.3-0.2-0.7-0.3-1.3-0.4c-0.8-0.1-1.4-0.4-1.8-0.7c-0.4-0.3-0.6-0.7-0.6-1.1
			c0-0.4,0.1-0.7,0.3-1c0.2-0.3,0.5-0.5,0.9-0.6c0.4-0.1,0.8-0.2,1.2-0.2c0.5,0,1,0.1,1.4,0.3c0.4,0.2,0.7,0.4,0.9,0.7
			c0.1,0.1,0.1,0.2,0.1,0.3c0,0.1-0.1,0.2-0.2,0.3c-0.1,0.1-0.2,0.1-0.3,0.1c-0.1,0-0.2-0.1-0.3-0.2c-0.2-0.2-0.4-0.4-0.7-0.5
			c-0.3-0.1-0.6-0.2-0.9-0.2c-0.4,0-0.8,0.1-1.1,0.3c-0.3,0.2-0.4,0.4-0.4,0.7c0,0.2,0,0.3,0.1,0.5c0.1,0.1,0.3,0.3,0.5,0.4
			c0.2,0.1,0.6,0.2,1,0.3c0.6,0.1,1.1,0.2,1.4,0.4c0.3,0.2,0.6,0.4,0.7,0.7s0.2,0.5,0.2,0.8c0,0.4-0.1,0.7-0.3,1
			c-0.2,0.3-0.5,0.5-0.9,0.7S803.4,2436.1,802.9,2436.1z"/>
		<path class="st1" d="M806.7,2430.5c-0.1,0-0.2,0-0.3-0.1s-0.1-0.2-0.1-0.3c0-0.1,0-0.2,0.1-0.3s0.2-0.1,0.3-0.1h3.1
			c0.1,0,0.2,0,0.3,0.1s0.1,0.2,0.1,0.3c0,0.1,0,0.2-0.1,0.3s-0.2,0.1-0.3,0.1H806.7z M809.7,2436c-0.4,0-0.8-0.1-1.1-0.3
			c-0.3-0.2-0.6-0.5-0.8-0.8s-0.3-0.7-0.3-1.2v-5.9c0-0.1,0-0.2,0.1-0.3c0.1-0.1,0.2-0.1,0.3-0.1c0.1,0,0.2,0,0.3,0.1
			c0.1,0.1,0.1,0.2,0.1,0.3v5.9c0,0.4,0.1,0.7,0.4,1c0.2,0.3,0.5,0.4,0.9,0.4h0.3c0.1,0,0.2,0,0.3,0.1c0.1,0.1,0.1,0.2,0.1,0.3
			s0,0.2-0.1,0.3c-0.1,0.1-0.2,0.1-0.4,0.1H809.7z"/>
		<path class="st1" d="M814.8,2436.1c-0.6,0-1.2-0.1-1.7-0.4s-0.9-0.7-1.2-1.2c-0.3-0.5-0.4-1.1-0.4-1.7c0-0.6,0.1-1.2,0.4-1.7
			s0.7-0.9,1.2-1.2c0.5-0.3,1.1-0.4,1.7-0.4s1.2,0.1,1.7,0.4s0.9,0.7,1.2,1.2s0.4,1.1,0.4,1.7l-0.4,0.3c0,0.6-0.1,1.1-0.4,1.6
			s-0.6,0.8-1.1,1.1C815.9,2435.9,815.4,2436.1,814.8,2436.1z M814.9,2435.2c0.5,0,0.9-0.1,1.2-0.3c0.4-0.2,0.7-0.5,0.9-0.9
			s0.3-0.8,0.3-1.3c0-0.5-0.1-0.9-0.3-1.3s-0.5-0.7-0.9-0.9c-0.4-0.2-0.8-0.3-1.2-0.3c-0.5,0-0.9,0.1-1.2,0.3
			c-0.4,0.2-0.7,0.5-0.9,0.9s-0.3,0.8-0.3,1.3c0,0.5,0.1,0.9,0.3,1.3s0.5,0.7,0.9,0.9C814,2435.1,814.4,2435.2,814.9,2435.2z
			 M817.8,2436c-0.1,0-0.2,0-0.3-0.1c-0.1-0.1-0.1-0.2-0.1-0.3v-2.1l0.2-0.9l0.7,0.2v2.8c0,0.1,0,0.2-0.1,0.3S817.9,2436,817.8,2436
			z"/>
		<path class="st1" d="M826.6,2436.1c-0.5,0-1-0.1-1.4-0.2c-0.4-0.1-0.8-0.4-1.1-0.6c-0.3-0.3-0.6-0.6-0.7-0.9
			c-0.1-0.1-0.1-0.2,0-0.4c0.1-0.1,0.2-0.2,0.3-0.2c0.1,0,0.2,0,0.3,0s0.2,0.1,0.2,0.3c0.1,0.2,0.3,0.4,0.5,0.6
			c0.2,0.2,0.5,0.3,0.8,0.4s0.7,0.2,1.1,0.2c0.4,0,0.8-0.1,1.1-0.2c0.3-0.1,0.6-0.3,0.8-0.6c0.2-0.3,0.3-0.6,0.3-1
			c0-0.5-0.2-0.9-0.5-1.3c-0.4-0.4-0.9-0.6-1.7-0.7c-0.9-0.1-1.7-0.4-2.2-0.9s-0.8-1-0.8-1.7c0-0.5,0.1-0.9,0.4-1.3
			c0.3-0.4,0.6-0.6,1.1-0.8c0.5-0.2,1-0.3,1.6-0.3c0.4,0,0.8,0.1,1.2,0.2c0.4,0.1,0.7,0.3,0.9,0.6c0.3,0.2,0.5,0.5,0.7,0.8
			c0.1,0.1,0.1,0.3,0.1,0.4c0,0.1-0.1,0.2-0.2,0.3c-0.1,0.1-0.2,0.1-0.4,0s-0.2-0.1-0.3-0.2c-0.1-0.2-0.3-0.4-0.5-0.5
			s-0.4-0.3-0.7-0.4c-0.3-0.1-0.6-0.1-0.9-0.2c-0.6,0-1.1,0.1-1.5,0.4c-0.4,0.3-0.6,0.7-0.6,1.2c0,0.3,0.1,0.5,0.2,0.8
			c0.1,0.2,0.4,0.4,0.7,0.6c0.3,0.2,0.8,0.3,1.3,0.4c1,0.1,1.7,0.5,2.2,0.9s0.7,1.1,0.7,1.8c0,0.4-0.1,0.8-0.2,1.2
			c-0.2,0.3-0.4,0.6-0.7,0.8c-0.3,0.2-0.6,0.4-1,0.5C827.4,2436.1,827,2436.1,826.6,2436.1z"/>
		<path class="st1" d="M834.4,2436.1c-0.6,0-1.2-0.1-1.7-0.4s-0.9-0.7-1.2-1.2c-0.3-0.5-0.4-1.1-0.4-1.7c0-0.6,0.1-1.2,0.4-1.7
			s0.7-0.9,1.2-1.2c0.5-0.3,1.1-0.4,1.7-0.4s1.2,0.1,1.7,0.4s0.9,0.7,1.2,1.2s0.4,1.1,0.4,1.7l-0.4,0.3c0,0.6-0.1,1.1-0.4,1.6
			s-0.6,0.8-1.1,1.1C835.5,2435.9,835,2436.1,834.4,2436.1z M834.5,2435.2c0.5,0,0.9-0.1,1.2-0.3c0.4-0.2,0.7-0.5,0.9-0.9
			s0.3-0.8,0.3-1.3c0-0.5-0.1-0.9-0.3-1.3s-0.5-0.7-0.9-0.9c-0.4-0.2-0.8-0.3-1.2-0.3c-0.5,0-0.9,0.1-1.2,0.3
			c-0.4,0.2-0.7,0.5-0.9,0.9s-0.3,0.8-0.3,1.3c0,0.5,0.1,0.9,0.3,1.3s0.5,0.7,0.9,0.9C833.6,2435.1,834,2435.2,834.5,2435.2z
			 M837.4,2436c-0.1,0-0.2,0-0.3-0.1c-0.1-0.1-0.1-0.2-0.1-0.3v-2.1l0.2-0.9l0.7,0.2v2.8c0,0.1,0,0.2-0.1,0.3S837.5,2436,837.4,2436
			z"/>
		<path class="st1" d="M840.1,2436c-0.1,0-0.3,0-0.3-0.1s-0.1-0.2-0.1-0.3v-5.6c0-0.1,0-0.3,0.1-0.3c0.1-0.1,0.2-0.1,0.3-0.1
			c0.1,0,0.2,0,0.3,0.1c0.1,0.1,0.1,0.2,0.1,0.3v5.6c0,0.1,0,0.2-0.1,0.3S840.2,2436,840.1,2436z M845.3,2436c-0.1,0-0.2,0-0.3-0.1
			c-0.1-0.1-0.1-0.2-0.1-0.3v-3.1c0-0.5-0.1-0.9-0.3-1.2s-0.4-0.6-0.8-0.7c-0.3-0.2-0.7-0.2-1.1-0.2c-0.4,0-0.7,0.1-1.1,0.2
			c-0.3,0.2-0.6,0.4-0.8,0.6c-0.2,0.3-0.3,0.6-0.3,0.9h-0.7c0-0.5,0.2-1,0.4-1.4c0.3-0.4,0.6-0.7,1-0.9c0.4-0.2,0.9-0.3,1.4-0.3
			c0.6,0,1.1,0.1,1.5,0.4c0.4,0.2,0.8,0.6,1.1,1s0.4,1,0.4,1.7v3.1c0,0.1,0,0.2-0.1,0.3C845.5,2436,845.4,2436,845.3,2436z"/>
		<path class="st1" d="M850,2436.1c-0.5,0-0.9-0.1-1.4-0.2s-0.8-0.4-1.1-0.7c-0.1-0.1-0.1-0.2-0.1-0.3s0.1-0.2,0.2-0.3
			c0.1-0.1,0.2-0.1,0.3-0.1c0.1,0,0.2,0.1,0.3,0.2c0.2,0.2,0.4,0.4,0.8,0.5s0.7,0.2,1.1,0.2c0.6,0,1-0.1,1.3-0.3
			c0.3-0.2,0.4-0.5,0.4-0.7c0-0.3-0.1-0.5-0.4-0.7c-0.3-0.2-0.7-0.3-1.3-0.4c-0.8-0.1-1.4-0.4-1.8-0.7c-0.4-0.3-0.6-0.7-0.6-1.1
			c0-0.4,0.1-0.7,0.3-1c0.2-0.3,0.5-0.5,0.9-0.6c0.4-0.1,0.8-0.2,1.2-0.2c0.5,0,1,0.1,1.4,0.3c0.4,0.2,0.7,0.4,0.9,0.7
			c0.1,0.1,0.1,0.2,0.1,0.3c0,0.1-0.1,0.2-0.2,0.3c-0.1,0.1-0.2,0.1-0.3,0.1c-0.1,0-0.2-0.1-0.3-0.2c-0.2-0.2-0.4-0.4-0.7-0.5
			c-0.3-0.1-0.6-0.2-0.9-0.2c-0.4,0-0.8,0.1-1.1,0.3c-0.3,0.2-0.4,0.4-0.4,0.7c0,0.2,0,0.3,0.1,0.5c0.1,0.1,0.3,0.3,0.5,0.4
			c0.2,0.1,0.6,0.2,1,0.3c0.6,0.1,1.1,0.2,1.4,0.4c0.3,0.2,0.6,0.4,0.7,0.7s0.2,0.5,0.2,0.8c0,0.4-0.1,0.7-0.3,1
			c-0.2,0.3-0.5,0.5-0.9,0.7S850.5,2436.1,850,2436.1z"/>
	</g>
	<g class="st0">
		<path class="st1" d="M774.5,2412l18.9-48.9h4.9l19,48.9h-7.1l-5.5-14.3h-18.3L781,2412H774.5z M792.9,2380.9l-4.4,11.4h14.1
			l-4.3-11.4c-0.6-1.5-1.5-4.3-2.7-8.2C794.6,2376.2,793.6,2378.9,792.9,2380.9z"/>
		<path class="st1" d="M852.1,2412.5c-5.3,0.6-8.1-1.2-8.4-5.5c-0.9,1.7-2.3,3.1-4.3,4.3c-1.9,1.2-4.2,1.7-6.7,1.7
			c-3,0-5.5-0.8-7.6-2.4c-2.1-1.6-3.1-3.8-3.1-6.8c0-3.8,1.9-6.7,5.6-8.7c3.7-2,8.9-3,15.5-3.1v-1.9c0-3-0.5-5.1-1.5-6.4
			c-1-1.3-2.8-1.9-5.3-1.9c-2.5,0-4.3,0.5-5.6,1.6c-1.3,1.1-1.8,2.8-1.6,5.2l-5.8-1c-0.4-3.3,0.6-5.9,2.8-7.8
			c2.3-1.9,5.9-2.8,10.7-2.8c4.3,0,7.5,1,9.4,2.9c1.9,1.9,2.9,5.1,2.9,9.4v13.5c0,0.1,0,0.2,0,0.4c0,0.7,0,1.2,0,1.5
			c0,0.3,0.1,0.7,0.2,1.3c0.1,0.5,0.3,0.9,0.6,1c0.3,0.1,0.7,0.3,1.3,0.5c0.5,0.2,1.2,0.2,2.1-0.1L852.1,2412.5z M843.2,2400.2v-3.6
			c-9.8,0-14.7,2.3-14.7,6.8c0,1.5,0.5,2.6,1.4,3.5c1,0.8,2.3,1.3,4,1.3c2.3,0,4.3-0.8,6.2-2.3C842,2404.3,843,2402.4,843.2,2400.2z
			"/>
		<path class="st1" d="M862.1,2412v-48.9h15c4.6,0,8.5,1,11.5,2.9c3,1.9,4.5,5.1,4.5,9.5c0,2.9-0.7,5.3-2,7.1
			c-1.3,1.8-2.9,3.1-4.8,3.8v0.3c3,0.7,5.2,2.1,6.7,4.1c1.5,2,2.3,4.4,2.3,7.3c0,4.1-1.5,7.5-4.5,10.1c-3,2.6-7.4,3.9-13.2,3.9
			H862.1z M868.5,2384.3h9.1c5.6,0,8.4-2.6,8.4-7.8c0-2.7-0.8-4.6-2.4-5.9c-1.6-1.3-4.1-1.9-7.5-1.9h-7.6V2384.3z M868.5,2406.5h8.2
			c7.8,0,11.7-2.8,11.7-8.4c0-5.6-3.5-8.4-10.6-8.4h-9.3V2406.5z"/>
		<path class="st1" d="M904.7,2412v-53.1h5.9v23.5c2.7-3.6,6.1-5.3,10.4-5.3c2.5,0,4.7,0.5,6.6,1.4c1.9,1,3.4,2.3,4.4,3.9
			c1.1,1.6,1.8,3.4,2.4,5.3s0.8,4,0.8,6.2c0,5.7-1.2,10.3-3.7,13.8c-2.5,3.6-6.2,5.3-11.1,5.3c-4.8,0-8.3-1.9-10.4-5.5l-0.3,4.5
			H904.7z M920.3,2408.2c3,0,5.1-1.3,6.5-3.8c1.4-2.5,2.1-5.9,2.1-10.1c0-4.1-0.7-7.3-2.2-9.3c-1.5-2.1-3.5-3.1-6.2-3.1
			c-3,0-5.4,1.3-7.1,3.8c-1.8,2.5-2.6,5.7-2.6,9.6c0,3.8,0.9,7,2.6,9.3C915,2407,917.3,2408.2,920.3,2408.2z"/>
	</g>
</g>
</svg>
