<svg xmlns="http://www.w3.org/2000/svg" width="199.183" height="80.983" viewBox="0 0 199.183 80.983">
  <g id="font_gruene" transform="translate(-730.163 -2244.812)">
    <path id="Trazado_1191" data-name="Trazado 1191" d="M.163,0,23.835-51.8h5.38L52.93,0H47.16L25.38-48.646h2.249L5.848,0Zm9.3-13.811,1.62-4.467H41.22l1.663,4.467ZM84.764,0V-8.557l-.209-1.467V-24.341q0-4.987-2.794-7.644t-8.252-2.657a20.547,20.547,0,0,0-7.173,1.249,18.445,18.445,0,0,0-5.774,3.325l-2.337-3.887a21.176,21.176,0,0,1,7.1-3.893,27.277,27.277,0,0,1,8.7-1.386q7.583,0,11.685,3.761t4.1,11.353V0ZM71.36.348a18.623,18.623,0,0,1-7.577-1.416,11.165,11.165,0,0,1-4.919-3.984,10.326,10.326,0,0,1-1.717-5.876,10.866,10.866,0,0,1,1.442-5.53,10.161,10.161,0,0,1,4.737-4.025,21.375,21.375,0,0,1,8.863-1.527H85.578v3.922H72.367q-5.674,0-7.841,2a6.476,6.476,0,0,0-2.167,4.965A6.4,6.4,0,0,0,64.954-5.77a11.6,11.6,0,0,0,7.2,1.987A14.037,14.037,0,0,0,79.85-5.812a11.9,11.9,0,0,0,4.705-5.853l1.159,3.6A12.15,12.15,0,0,1,80.59-1.919,17.234,17.234,0,0,1,71.36.348ZM105.2,0V-51.8h22.343q8.621,0,13.4,3.481a11.442,11.442,0,0,1,4.783,9.826,12.323,12.323,0,0,1-1.967,7.1,12.356,12.356,0,0,1-5.311,4.38,17.975,17.975,0,0,1-7.4,1.49l1.3-1.8a21.68,21.68,0,0,1,8.548,1.538,12.229,12.229,0,0,1,5.579,4.54,13.189,13.189,0,0,1,1.977,7.41A12,12,0,0,1,143.6-3.62Q138.748,0,129.024,0Zm5.422-4.509H128.9q6.862,0,10.479-2.336t3.616-7.41q0-5.074-3.616-7.414T128.9-24.011H110.084V-28.52h17.085q6.225,0,9.662-2.352a7.959,7.959,0,0,0,3.436-7.033,7.959,7.959,0,0,0-3.436-7.033q-3.436-2.352-9.662-2.352H110.622ZM179.933.348a18.273,18.273,0,0,1-9.167-2.311,16.385,16.385,0,0,1-6.444-6.757,22.61,22.61,0,0,1-2.363-10.74,22.141,22.141,0,0,1,2.405-10.761,16.734,16.734,0,0,1,6.486-6.7,18.108,18.108,0,0,1,9.084-2.311,19.783,19.783,0,0,1,9.975,2.5A18.2,18.2,0,0,1,196.82-29.8a20.534,20.534,0,0,1,2.526,10.341A20.647,20.647,0,0,1,196.82-9.118a18.136,18.136,0,0,1-6.911,6.966A19.783,19.783,0,0,1,179.933.348ZM159.892,0V-54.908h5.253v27.552l-.74,7.822.531,7.822V0Zm19.663-4.287a14.52,14.52,0,0,0,7.407-1.9,13.685,13.685,0,0,0,5.182-5.337,16.119,16.119,0,0,0,1.906-7.94,16.065,16.065,0,0,0-1.906-7.977,13.637,13.637,0,0,0-5.182-5.283,14.618,14.618,0,0,0-7.407-1.879,14.615,14.615,0,0,0-7.406,1.879,13.637,13.637,0,0,0-5.182,5.283,16.065,16.065,0,0,0-1.906,7.977,16.119,16.119,0,0,0,1.906,7.94,13.685,13.685,0,0,0,5.182,5.337A14.517,14.517,0,0,0,179.555-4.287Z" transform="translate(730 2299.72)" fill="#fff"/>
    <g id="Grupo_414" data-name="Grupo 414">
      <path id="Trazado_1190" data-name="Trazado 1190" d="M1.829,0V-11.2H2.8L7.918-2.459H7.4L12.479-11.2h.97L13.458,0H12.322l-.009-9.422H12.6L7.916-1.43H7.361L2.648-9.422h.316V0ZM20.3.075a4.355,4.355,0,0,1-2.195-.55A4.038,4.038,0,0,1,16.584-2a4.354,4.354,0,0,1-.56-2.213,4.306,4.306,0,0,1,.562-2.217,4.084,4.084,0,0,1,1.523-1.508A4.345,4.345,0,0,1,20.3-8.483a4.4,4.4,0,0,1,2.2.549,4,4,0,0,1,1.523,1.507,4.359,4.359,0,0,1,.553,2.219,4.4,4.4,0,0,1-.552,2.215,3.967,3.967,0,0,1-1.525,1.52A4.4,4.4,0,0,1,20.3.075Zm0-1a3.157,3.157,0,0,0,1.61-.41,2.927,2.927,0,0,0,1.116-1.154,3.518,3.518,0,0,0,.407-1.718,3.5,3.5,0,0,0-.407-1.724,2.917,2.917,0,0,0-1.116-1.142,3.17,3.17,0,0,0-1.606-.406,3.151,3.151,0,0,0-1.6.406,2.98,2.98,0,0,0-1.121,1.142,3.448,3.448,0,0,0-.416,1.724,3.464,3.464,0,0,0,.416,1.718A2.992,2.992,0,0,0,18.7-1.337,3.12,3.12,0,0,0,20.3-.927ZM31.187-8.483a3.9,3.9,0,0,1,1.805.4,2.85,2.85,0,0,1,1.212,1.2,4.135,4.135,0,0,1,.44,2.01V0H33.508V-4.762a2.79,2.79,0,0,0-.662-2.019,2.472,2.472,0,0,0-1.861-.682,3.219,3.219,0,0,0-1.564.363A2.469,2.469,0,0,0,28.4-6.058a3.491,3.491,0,0,0-.357,1.644V0H26.905V-8.408H28V-6.1l-.177-.42A3.072,3.072,0,0,1,29.1-7.964,4.021,4.021,0,0,1,31.187-8.483Zm9.2,8.558a2.461,2.461,0,0,1-1.823-.642,2.45,2.45,0,0,1-.639-1.807v-7.878h1.136v7.816a1.617,1.617,0,0,0,.373,1.145,1.4,1.4,0,0,0,1.078.4,1.844,1.844,0,0,0,1.249-.43l.4.813a2.052,2.052,0,0,1-.8.439A3.332,3.332,0,0,1,40.383.075ZM36.42-7.46v-.948h5.192v.948ZM46.476.075a6.443,6.443,0,0,1-1.974-.3,4.2,4.2,0,0,1-1.448-.739l.5-.9a4.605,4.605,0,0,0,1.312.674,5.089,5.089,0,0,0,1.683.278,3.067,3.067,0,0,0,1.731-.376,1.17,1.17,0,0,0,.531-1,.923.923,0,0,0-.295-.727,1.97,1.97,0,0,0-.781-.4,9.262,9.262,0,0,0-1.071-.233q-.585-.094-1.171-.226a4.638,4.638,0,0,1-1.071-.378,2.045,2.045,0,0,1-.781-.676,2,2,0,0,1-.295-1.146,2.072,2.072,0,0,1,.39-1.239A2.588,2.588,0,0,1,44.87-8.17a4.667,4.667,0,0,1,1.812-.313,6.45,6.45,0,0,1,1.633.214,4.108,4.108,0,0,1,1.338.58l-.5.9a3.668,3.668,0,0,0-1.19-.545,5.187,5.187,0,0,0-1.29-.164,2.819,2.819,0,0,0-1.659.392,1.182,1.182,0,0,0-.534.988.991.991,0,0,0,.295.764,2,2,0,0,0,.781.425,7.74,7.74,0,0,0,1.071.245q.585.094,1.167.226a4.9,4.9,0,0,1,1.068.37,2.02,2.02,0,0,1,.781.657,1.908,1.908,0,0,1,.295,1.118,2.026,2.026,0,0,1-.409,1.261A2.6,2.6,0,0,1,48.35-.22,5.263,5.263,0,0,1,46.476.075Zm9.127,0a4.693,4.693,0,0,1-2.3-.55,3.974,3.974,0,0,1-1.555-1.52,4.354,4.354,0,0,1-.559-2.213,4.5,4.5,0,0,1,.532-2.213,3.919,3.919,0,0,1,1.468-1.513,4.1,4.1,0,0,1,2.114-.55,4.089,4.089,0,0,1,2.1.538,3.826,3.826,0,0,1,1.449,1.5,4.593,4.593,0,0,1,.527,2.237q0,.07,0,.163t-.014.179H52.05v-.848h6.7l-.455.34a3.224,3.224,0,0,0-.382-1.616A2.919,2.919,0,0,0,56.852-7.1,2.955,2.955,0,0,0,55.3-7.508a2.983,2.983,0,0,0-1.554.405,2.836,2.836,0,0,0-1.066,1.12A3.412,3.412,0,0,0,52.3-4.344v.191a3.28,3.28,0,0,0,.424,1.676A2.975,2.975,0,0,0,53.9-1.337a3.573,3.573,0,0,0,1.732.41A3.722,3.722,0,0,0,57.07-1.2,2.916,2.916,0,0,0,58.2-2.035l.641.741a3.6,3.6,0,0,1-1.4,1.021A4.74,4.74,0,0,1,55.6.075ZM61.7,0V-8.408h1.09v2.3l-.113-.4A2.807,2.807,0,0,1,63.86-7.974a3.892,3.892,0,0,1,2.068-.509v1.109q-.07-.009-.135-.014t-.133,0a2.7,2.7,0,0,0-2.071.807,3.228,3.228,0,0,0-.755,2.292V0Zm6.294,0V-8.408h1.09v2.3l-.114-.4a2.807,2.807,0,0,1,1.185-1.461,3.891,3.891,0,0,1,2.068-.509v1.109q-.071-.009-.135-.014t-.133,0a2.7,2.7,0,0,0-2.071.807,3.228,3.228,0,0,0-.755,2.292V0ZM78.918,0V-1.85l-.045-.317v-3.1a2.173,2.173,0,0,0-.6-1.653,2.5,2.5,0,0,0-1.784-.575,4.443,4.443,0,0,0-1.551.27,3.988,3.988,0,0,0-1.249.719l-.505-.841a4.579,4.579,0,0,1,1.535-.842,5.9,5.9,0,0,1,1.88-.3,3.606,3.606,0,0,1,2.526.813,3.169,3.169,0,0,1,.887,2.455V0Zm-2.9.075a4.027,4.027,0,0,1-1.638-.306,2.414,2.414,0,0,1-1.063-.861,2.233,2.233,0,0,1-.371-1.271,2.349,2.349,0,0,1,.312-1.2,2.2,2.2,0,0,1,1.024-.87,4.622,4.622,0,0,1,1.916-.33h2.9v.848H76.237a2.526,2.526,0,0,0-1.7.432,1.4,1.4,0,0,0-.468,1.073,1.383,1.383,0,0,0,.561,1.158,2.508,2.508,0,0,0,1.558.43,3.035,3.035,0,0,0,1.663-.439,2.573,2.573,0,0,0,1.017-1.265l.251.779A2.627,2.627,0,0,1,78.015-.415,3.726,3.726,0,0,1,76.02.075Zm9.728,0a2.461,2.461,0,0,1-1.824-.642,2.45,2.45,0,0,1-.639-1.807v-7.878h1.136v7.816a1.617,1.617,0,0,0,.373,1.145,1.4,1.4,0,0,0,1.078.4,1.844,1.844,0,0,0,1.249-.43l.4.813a2.052,2.052,0,0,1-.8.439A3.332,3.332,0,0,1,85.748.075ZM81.785-7.46v-.948h5.191v.948Z" transform="translate(730 2325.72)" fill="#fff"/>
    </g>
  </g>
</svg>
