<svg xmlns="http://www.w3.org/2000/svg" width="176.044" height="78.773" viewBox="0 0 176.044 78.773">
  <g id="Font_HM" transform="translate(-743.277 -867.446)">
    <path id="Trazado_1185" data-name="Trazado 1185" d="M37.857-13H14.942L8.979,0H.277L26.764-56.89,52.314,0h-8.84Zm-3.293-7.592-7.939-18.2-8.32,18.2ZM82.336-33.767h7.835V0H82.336V-3.536Q77.518.971,71.971.971A14.934,14.934,0,0,1,60.392-4.091a18.823,18.823,0,0,1-4.542-12.9,18.243,18.243,0,0,1,4.542-12.654A14.64,14.64,0,0,1,71.763-34.7a14.359,14.359,0,0,1,10.574,4.854ZM63.824-16.987a11.761,11.761,0,0,0,2.6,7.9A8.516,8.516,0,0,0,73.149-6a8.952,8.952,0,0,0,7-2.981,11.546,11.546,0,0,0,2.669-7.835,11.546,11.546,0,0,0-2.669-7.835,8.826,8.826,0,0,0-6.934-3.016,8.623,8.623,0,0,0-6.726,3.051A11.246,11.246,0,0,0,63.824-16.987ZM101.508,0V-53.527h8.043a35.214,35.214,0,0,1,8.563.832,12.866,12.866,0,0,1,5.443,2.808,14.571,14.571,0,0,1,3.571,5.1,15.419,15.419,0,0,1,1.352,6.24,12.646,12.646,0,0,1-4.4,9.742,12.936,12.936,0,0,1,6.726,5.1,14.373,14.373,0,0,1,2.5,8.39,14.257,14.257,0,0,1-4.437,10.608,14.565,14.565,0,0,1-6,3.709A34.885,34.885,0,0,1,113.746,0Zm8.078-30.542h2.531q4.507,0,6.6-1.993a7.732,7.732,0,0,0,2.1-5.876,7.372,7.372,0,0,0-2.149-5.738q-2.149-1.959-6.24-1.959h-2.843Zm0,22.95h4.992q5.478,0,8.043-2.149a7.431,7.431,0,0,0,2.7-5.894,7.55,7.55,0,0,0-2.6-5.824q-2.531-2.323-9.048-2.323h-4.091ZM149.8-58.554v28.705A14.393,14.393,0,0,1,160.409-34.7a14.6,14.6,0,0,1,11.371,5.1,18.2,18.2,0,0,1,4.542,12.619,18.576,18.576,0,0,1-4.576,12.9A14.752,14.752,0,0,1,160.27.971,14.591,14.591,0,0,1,149.8-3.536V0H142V-58.554Zm18.547,41.914a11.662,11.662,0,0,0-2.635-7.9,8.442,8.442,0,0,0-6.691-3.12,8.97,8.97,0,0,0-7,3.016,11.2,11.2,0,0,0-2.669,7.766,11.367,11.367,0,0,0,2.635,7.87A8.76,8.76,0,0,0,158.918-6a8.6,8.6,0,0,0,6.726-3.016A11.077,11.077,0,0,0,168.348-16.641Z" transform="translate(743 926)" fill="#fff"/>
    <path id="Trazado_1184" data-name="Trazado 1184" d="M7.469-10.352h-4.2v2.9H7.32v1.711H3.266V0H1.445V-12.062H7.469Zm3.375,2.742v4.367q0,1.891,1.492,1.891t1.492-1.891V-7.609h1.758V-3.2a4.9,4.9,0,0,1-.227,1.578A2.651,2.651,0,0,1,14.6-.555a3.331,3.331,0,0,1-2.266.773,3.319,3.319,0,0,1-2.258-.773A2.694,2.694,0,0,1,9.3-1.625,4.352,4.352,0,0,1,9.086-3.2V-7.609Zm8.773,1.641V0H17.859V-5.969h-.75V-7.609h.75V-10.4h1.758v2.789h1.367v1.641Zm4.32-1.641v4.367q0,1.891,1.492,1.891t1.492-1.891V-7.609H28.68V-3.2a4.9,4.9,0,0,1-.227,1.578A2.651,2.651,0,0,1,27.7-.555,3.331,3.331,0,0,1,25.43.219a3.319,3.319,0,0,1-2.258-.773,2.694,2.694,0,0,1-.773-1.07A4.352,4.352,0,0,1,22.18-3.2V-7.609Zm6.961,0h1.758v.68a3.357,3.357,0,0,1,.859-.7,1.971,1.971,0,0,1,.906-.2,2.839,2.839,0,0,1,1.453.453l-.8,1.609a1.678,1.678,0,0,0-.977-.359q-1.437,0-1.437,2.172V0H30.9Zm11.484,0h1.766V0H42.383V-.8A3.371,3.371,0,0,1,40.047.219,3.365,3.365,0,0,1,37.438-.922a4.242,4.242,0,0,1-1.023-2.906A4.111,4.111,0,0,1,37.438-6.68,3.3,3.3,0,0,1,40-7.82a3.236,3.236,0,0,1,2.383,1.094ZM38.211-3.828A2.65,2.65,0,0,0,38.8-2.047a1.919,1.919,0,0,0,1.516.7,2.017,2.017,0,0,0,1.578-.672,2.6,2.6,0,0,0,.6-1.766,2.6,2.6,0,0,0-.6-1.766,1.989,1.989,0,0,0-1.562-.68,1.943,1.943,0,0,0-1.516.688A2.534,2.534,0,0,0,38.211-3.828Z" transform="translate(742 946)" fill="#fff"/>
  </g>
</svg>
