<svg xmlns="http://www.w3.org/2000/svg" width="279" height="91.728" viewBox="0 0 279 91.728">
  <g id="Grupo_333" data-name="Grupo 333" transform="translate(-478.918 -330.339)">
    <path id="Trazado_279" data-name="Trazado 279" d="M626.868,403.944q-.01,9.08-.014,18.152l-22.76.1q3.793-9.141,7.587-18.275Z" transform="translate(-61.813 -36.337)" fill="#d0d0d0"/>
    <g id="Grupo_327" data-name="Grupo 327" transform="translate(528.431 370.136)">
      <path id="Trazado_280" data-name="Trazado 280" d="M576.732,408.959" transform="translate(-576.732 -408.959)" fill="none" stroke="#000" stroke-width="0.341"/>
    </g>
    <path id="Trazado_281" data-name="Trazado 281" d="M593.867,331.458q-7.6,18.3-15.187,36.607c-3.427,8.268-5.063,12.266-7.587,18.275-5.537,13.186-10.161,23.807-13.208,30.73l-20.621.052q18.054-42.908,36.1-85.816Q583.617,331.379,593.867,331.458Z" transform="translate(-28.812 -0.477)" fill="#fff"/>
    <path id="Trazado_282" data-name="Trazado 282" d="M670.829,330.339v86.547" transform="translate(-94.767 0)" fill="none" stroke="#fff" stroke-width="0.341"/>
    <g id="Grupo_329" data-name="Grupo 329" transform="translate(585.868 390.946)">
      <g id="Grupo_328" data-name="Grupo 328" transform="translate(0 0)">
        <path id="Trazado_283" data-name="Trazado 283" d="M690.2,477.106l9.234-23.232h1.7l9.233,23.232v.235h-2.456l-2.325-6H694.981l-2.358,6H690.2Zm14.538-8.012-4.453-11.4-4.453,11.4Z" transform="translate(-690.2 -451.948)" fill="#fff"/>
        <path id="Trazado_284" data-name="Trazado 284" d="M740.5,480.142a8.964,8.964,0,0,1-3.417-3.453,10.1,10.1,0,0,1-1.234-5.028,10.4,10.4,0,0,1,1.216-5.082,8.781,8.781,0,0,1,3.417-3.471,9.917,9.917,0,0,1,4.992-1.252,9.593,9.593,0,0,1,5.9,1.843,8.825,8.825,0,0,1,3.292,5.063h-2.433a6.831,6.831,0,0,0-2.541-3.4,7.1,7.1,0,0,0-4.151-1.217,7.4,7.4,0,0,0-3.757.948,6.563,6.563,0,0,0-2.559,2.666,8.185,8.185,0,0,0-.913,3.9,8,8,0,0,0,.913,3.847,6.587,6.587,0,0,0,2.559,2.648,7.385,7.385,0,0,0,3.757.948,7.158,7.158,0,0,0,4.187-1.217,6.811,6.811,0,0,0,2.541-3.435h2.47a8.873,8.873,0,0,1-3.31,5.081,9.661,9.661,0,0,1-5.958,1.861A9.813,9.813,0,0,1,740.5,480.142Z" transform="translate(-712.742 -455.889)" fill="#fff"/>
        <path id="Trazado_285" data-name="Trazado 285" d="M784.45,480.621a9.113,9.113,0,0,1-3.439-3.548,11.109,11.109,0,0,1,0-10.192,9.124,9.124,0,0,1,3.439-3.548,9.638,9.638,0,0,1,4.968-1.292A9.9,9.9,0,0,1,793.8,463a8.952,8.952,0,0,1,3.294,2.712v-3.385h2.475v19.291H797.1v-3.385a8.947,8.947,0,0,1-3.294,2.712,9.9,9.9,0,0,1-4.386.964A9.632,9.632,0,0,1,784.45,480.621Zm-1.2-4.731a7.044,7.044,0,0,0,2.657,2.712,7.854,7.854,0,0,0,7.607,0,7.045,7.045,0,0,0,2.656-2.712,8.417,8.417,0,0,0,0-7.826,7.048,7.048,0,0,0-2.656-2.712,7.854,7.854,0,0,0-7.607,0,7.047,7.047,0,0,0-2.657,2.712,8.417,8.417,0,0,0,0,7.826Z" transform="translate(-734.432 -455.98)" fill="#fff"/>
        <path id="Trazado_286" data-name="Trazado 286" d="M833.515,474.7a9.17,9.17,0,0,1-3.461-3.571,11.181,11.181,0,0,1,0-10.256,9.18,9.18,0,0,1,3.461-3.571,9.7,9.7,0,0,1,5-1.3,9.926,9.926,0,0,1,4.432.989,9.148,9.148,0,0,1,3.334,2.748v-9.67h2.49v25.64h-2.49v-3.443a9.142,9.142,0,0,1-3.334,2.747,9.918,9.918,0,0,1-4.432.989A9.69,9.69,0,0,1,833.515,474.7Zm-1.209-4.762a7.087,7.087,0,0,0,2.674,2.729,7.971,7.971,0,0,0,7.692,0,7.093,7.093,0,0,0,2.674-2.729,8.47,8.47,0,0,0,0-7.875,7.1,7.1,0,0,0-2.674-2.729,7.975,7.975,0,0,0-7.692,0,7.094,7.094,0,0,0-2.674,2.729,8.47,8.47,0,0,0,0,7.875Z" transform="translate(-758.645 -450.069)" fill="#fff"/>
        <path id="Trazado_287" data-name="Trazado 287" d="M883.083,480.339a9.149,9.149,0,0,1-3.545-3.6,11.2,11.2,0,0,1,0-10.376,9.154,9.154,0,0,1,3.545-3.6,10.859,10.859,0,0,1,10.413.074,9.073,9.073,0,0,1,3.545,3.84,11.637,11.637,0,0,1,1.127,5.687H880.849a7.457,7.457,0,0,0,2.289,4.985,7.077,7.077,0,0,0,5.059,1.92,8.007,8.007,0,0,0,3.969-.978,6.375,6.375,0,0,0,2.64-2.714h2.732a8.866,8.866,0,0,1-3.564,4.449,10.432,10.432,0,0,1-5.778,1.606A10.15,10.15,0,0,1,883.083,480.339Zm12.462-10.155a7.443,7.443,0,0,0-2.455-4.579,7.675,7.675,0,0,0-9.767-.037,7.225,7.225,0,0,0-2.4,4.616Z" transform="translate(-783.067 -455.699)" fill="#fff"/>
        <path id="Trazado_288" data-name="Trazado 288" d="M927.564,463.2h2.406v3.114a7.365,7.365,0,0,1,2.707-2.512,7.536,7.536,0,0,1,3.627-.885,7.341,7.341,0,0,1,4.034,1.061,6.542,6.542,0,0,1,2.512,3.079,8.277,8.277,0,0,1,3.008-3.043,8.059,8.059,0,0,1,4.14-1.1,6.79,6.79,0,0,1,5.467,2.265,9.538,9.538,0,0,1,1.929,6.369v10.4h-2.406V471.618a7.44,7.44,0,0,0-1.363-4.794,4.742,4.742,0,0,0-3.91-1.681,5.685,5.685,0,0,0-4.37,1.769,6.586,6.586,0,0,0-1.645,4.671v10.367h-2.406V471.618a7.441,7.441,0,0,0-1.363-4.794,4.74,4.74,0,0,0-3.91-1.681,5.74,5.74,0,0,0-4.388,1.769,6.544,6.544,0,0,0-1.663,4.671v10.367h-2.406Z" transform="translate(-807.412 -456.412)" fill="#fff"/>
        <path id="Trazado_289" data-name="Trazado 289" d="M998.081,487.6l3.579-7.479-7.694-16.711v-.143h2.683l3.686,8.123,2.648,6.047,2.719-5.94,3.829-8.23h2.72v.143l-11.523,24.3h-2.648Z" transform="translate(-840.202 -456.586)" fill="#fff"/>
      </g>
    </g>
    <g id="Grupo_331" data-name="Grupo 331" transform="translate(585.854 362.721)">
      <g id="Grupo_330" data-name="Grupo 330" transform="translate(0 0)">
        <path id="Trazado_290" data-name="Trazado 290" d="M695.545,398.976h-5.373v-4.665H705.36v4.665h-5.4v18.168h-4.414Z" transform="translate(-690.172 -394.311)" fill="#fff"/>
        <path id="Trazado_291" data-name="Trazado 291" d="M726.425,420.695a8.372,8.372,0,0,1-3.246-3.213,9.724,9.724,0,0,1,0-9.263,8.372,8.372,0,0,1,3.246-3.213,10.068,10.068,0,0,1,9.378,0,8.217,8.217,0,0,1,3.2,3.2,9.351,9.351,0,0,1,1.141,4.648,12.247,12.247,0,0,1-.1,1.533H726.767a4.123,4.123,0,0,0,1.533,2.381,4.573,4.573,0,0,0,2.805.848,5.015,5.015,0,0,0,2.039-.408,3.582,3.582,0,0,0,1.451-1.092h5.056a8.1,8.1,0,0,1-3.229,4.191,9.962,9.962,0,0,1-10,.391Zm9.052-9.475a4.031,4.031,0,0,0-1.533-2.3,4.7,4.7,0,0,0-2.838-.832,4.508,4.508,0,0,0-2.756.832,4.217,4.217,0,0,0-1.549,2.3Z" transform="translate(-705.891 -399.02)" fill="#fff"/>
        <path id="Trazado_292" data-name="Trazado 292" d="M766.044,421.213a8.259,8.259,0,0,1-3.246-3.2,9.911,9.911,0,0,1,0-9.3,8.293,8.293,0,0,1,3.229-3.2,10.1,10.1,0,0,1,8.856-.261,8.319,8.319,0,0,1,4.665,6.279h-4.6a4.191,4.191,0,0,0-1.6-2.055,4.437,4.437,0,0,0-2.544-.75,4.281,4.281,0,0,0-3.229,1.288,5.13,5.13,0,0,0,0,6.687A4.278,4.278,0,0,0,770.807,418a4.333,4.333,0,0,0,2.544-.75,4.43,4.43,0,0,0,1.6-2.088h4.632A8.553,8.553,0,0,1,778,418.946a8.269,8.269,0,0,1-3.1,2.528,10.1,10.1,0,0,1-8.856-.261Z" transform="translate(-725.464 -399.276)" fill="#fff"/>
        <path id="Trazado_293" data-name="Trazado 293" d="M802.405,394.311h4.665v7.5a6.52,6.52,0,0,1,2.348-1.7,7.542,7.542,0,0,1,3-.587,6.251,6.251,0,0,1,5.056,2.006,8.41,8.41,0,0,1,1.7,5.594v10.014h-4.664v-9.492a4.106,4.106,0,0,0-.881-2.838,3.2,3.2,0,0,0-2.512-.979,4.1,4.1,0,0,0-2.952,1.044,3.78,3.78,0,0,0-1.092,2.871v9.394h-4.665Z" transform="translate(-745.593 -394.311)" fill="#fff"/>
      </g>
    </g>
    <text id="ETA" transform="translate(584.623 346.899)" fill="#fff" font-size="11" font-family="CodeNext-Trial-Bold, Code Next-Trial" font-weight="700"><tspan x="0" y="0">ETA</tspan></text>
    <path id="Trazado_294" data-name="Trazado 294" d="M498.428,331.418q.026,11.022.034,22.051.024,31.817-.094,63.622l-19.45.034q.032-33.747.065-67.494Z" transform="translate(0 -0.533)" fill="#fff"/>
    <path id="Trazado_295" data-name="Trazado 295" d="M553.629,331.409l-7.865,18.682H517.486L517.45,331.4Z" transform="translate(-19.027 -0.524)" fill="#d0d0d0"/>
  </g>
</svg>
