<svg xmlns="http://www.w3.org/2000/svg" width="294.853" height="36.673" viewBox="0 0 294.853 36.673">
  <g id="Grupo_393" data-name="Grupo 393" transform="translate(-408.234 -3203.164)">
    <path id="Trazado_1034" data-name="Trazado 1034" d="M710.016,516.513h21.762v3.845h-17.6v11.534h16.359v3.844H714.18v15.675h-4.164Z" transform="translate(-301.782 2687.538)" fill="#fff"/>
    <path id="Trazado_1035" data-name="Trazado 1035" d="M764.619,516.513H760.7l-15.466,34.9h4.709l12.542-29.574h.1l12.1,29.574h4.858Z" transform="translate(-316.232 2687.538)" fill="#fff"/>
    <rect id="Rectángulo_539" data-name="Rectángulo 539" width="4.164" height="34.898" transform="translate(467.968 3204.052)" fill="#fff"/>
    <path id="Trazado_1036" data-name="Trazado 1036" d="M837.323,531.892h3.718q1.735,0,3.594-.1a12.37,12.37,0,0,0,3.421-.641,5.951,5.951,0,0,0,2.578-1.7,4.9,4.9,0,0,0,1.016-3.327,5.408,5.408,0,0,0-.743-3.006,5.016,5.016,0,0,0-1.959-1.75,8.353,8.353,0,0,0-2.726-.813,23.483,23.483,0,0,0-3.049-.2h-5.849Zm-4.164-15.379h8.972a42.635,42.635,0,0,1,5.032.3,13.6,13.6,0,0,1,4.486,1.281,8.109,8.109,0,0,1,3.222,2.883,9.339,9.339,0,0,1,1.24,5.151,8.469,8.469,0,0,1-2.331,6.21,11.151,11.151,0,0,1-6.444,3.007l9.964,16.069h-5.107l-9.517-15.675h-5.354v15.675h-4.164Z" transform="translate(-352.302 2687.539)" fill="#fff"/>
    <path id="Trazado_1037" data-name="Trazado 1037" d="M899.449,522.049a6.137,6.137,0,0,0-2.776-2.44,8.886,8.886,0,0,0-3.619-.764,10.909,10.909,0,0,0-2.727.345,8.141,8.141,0,0,0-2.4,1.036,5.182,5.182,0,0,0-1.71,1.823,5.288,5.288,0,0,0-.645,2.662,5.512,5.512,0,0,0,.372,2.095,4.414,4.414,0,0,0,1.215,1.652,9,9,0,0,0,2.28,1.38,31.393,31.393,0,0,0,3.52,1.282q2.033.641,3.941,1.38a13.371,13.371,0,0,1,3.371,1.873,8.331,8.331,0,0,1,2.33,2.834,10.634,10.634,0,0,1-.173,8.8,9.5,9.5,0,0,1-2.751,3.179,11.948,11.948,0,0,1-3.941,1.873,17.264,17.264,0,0,1-4.61.616,17.657,17.657,0,0,1-3.073-.271,14.852,14.852,0,0,1-2.95-.837,11.939,11.939,0,0,1-2.652-1.479,8.925,8.925,0,0,1-2.131-2.242l3.569-2.909a7.323,7.323,0,0,0,3.173,2.909,9.757,9.757,0,0,0,4.312.986,9.654,9.654,0,0,0,2.7-.4,8.175,8.175,0,0,0,2.453-1.158,6.324,6.324,0,0,0,1.785-1.9,4.9,4.9,0,0,0,.694-2.612,5.557,5.557,0,0,0-.545-2.638,4.876,4.876,0,0,0-1.686-1.75,13.138,13.138,0,0,0-2.875-1.33q-1.736-.591-4.065-1.38a25.623,25.623,0,0,1-3.47-1.356,10.622,10.622,0,0,1-2.751-1.872,7.987,7.987,0,0,1-1.834-2.662,9.36,9.36,0,0,1-.67-3.722,8.964,8.964,0,0,1,3.669-7.516,12.2,12.2,0,0,1,3.817-1.9,16.251,16.251,0,0,1,9.89.272,10.625,10.625,0,0,1,4.387,3.179Z" transform="translate(-371.648 2688.164)" fill="#fff"/>
    <path id="Trazado_1038" data-name="Trazado 1038" d="M1027.575,538.1a20,20,0,0,1-.72,5.421,12.491,12.491,0,0,1-2.281,4.51,10.984,10.984,0,0,1-4.09,3.1,16.89,16.89,0,0,1-12.293,0,10.987,10.987,0,0,1-4.089-3.1,12.482,12.482,0,0,1-2.281-4.51,19.943,19.943,0,0,1-.719-5.421V516.513h4.164v21a18.468,18.468,0,0,0,.446,4.092,10.092,10.092,0,0,0,1.487,3.5,7.525,7.525,0,0,0,2.776,2.44,10.885,10.885,0,0,0,8.725,0,7.519,7.519,0,0,0,2.776-2.44,10.1,10.1,0,0,0,1.487-3.5,18.468,18.468,0,0,0,.446-4.092v-21h4.165Z" transform="translate(-421.203 2687.539)" fill="#fff"/>
    <path id="Trazado_1039" data-name="Trazado 1039" d="M1064.7,531.892h3.719q1.734,0,3.594-.1a12.373,12.373,0,0,0,3.421-.641,5.948,5.948,0,0,0,2.577-1.7,4.892,4.892,0,0,0,1.017-3.327,5.411,5.411,0,0,0-.743-3.006,5.014,5.014,0,0,0-1.959-1.75,8.351,8.351,0,0,0-2.726-.813,23.5,23.5,0,0,0-3.049-.2h-5.85Zm-4.164-15.379h8.973a42.633,42.633,0,0,1,5.032.3,13.608,13.608,0,0,1,4.486,1.281,8.121,8.121,0,0,1,3.222,2.883,9.335,9.335,0,0,1,1.239,5.151,8.472,8.472,0,0,1-2.329,6.21,11.159,11.159,0,0,1-6.445,3.007l9.964,16.069h-5.105l-9.518-15.675H1064.7v15.675h-4.164Z" transform="translate(-445.584 2687.539)" fill="#fff"/>
    <path id="Trazado_1040" data-name="Trazado 1040" d="M1135.063,523.083a10.03,10.03,0,0,0-3.917-3.179,11.616,11.616,0,0,0-4.858-1.06,12.211,12.211,0,0,0-5.379,1.183,13.478,13.478,0,0,0-4.239,3.179,14.593,14.593,0,0,0-2.776,4.633,15.5,15.5,0,0,0-.991,5.5,16.039,16.039,0,0,0,.991,5.693,14.2,14.2,0,0,0,2.752,4.584,12.747,12.747,0,0,0,9.642,4.215,12.734,12.734,0,0,0,5.75-1.258,13.028,13.028,0,0,0,4.412-3.622l3.123,2.612a14.435,14.435,0,0,1-5.725,4.633,18.522,18.522,0,0,1-7.56,1.478,17.937,17.937,0,0,1-7.04-1.38,17.335,17.335,0,0,1-5.676-3.82,17.593,17.593,0,0,1-3.767-5.791,19.293,19.293,0,0,1-1.363-7.344,19.531,19.531,0,0,1,1.314-7.2,17.229,17.229,0,0,1,9.344-9.711,17.775,17.775,0,0,1,7.188-1.43,18.808,18.808,0,0,1,6.865,1.282,12.657,12.657,0,0,1,5.528,4.19Z" transform="translate(-465.24 2688.165)" fill="#fff"/>
    <path id="Trazado_1041" data-name="Trazado 1041" d="M1171.065,516.513h22.06v3.845h-17.9V531.3h16.706v3.844h-16.706v12.421h18.789v3.845h-22.953Z" transform="translate(-490.931 2687.538)" fill="#fff"/>
    <path id="Trazado_1042" data-name="Trazado 1042" d="M944.066,547.744a13.058,13.058,0,0,1-3.545-.978,13.25,13.25,0,0,1-4.387-3.1,14.158,14.158,0,0,1-2.85-4.609,16.173,16.173,0,0,1,0-11.288,14.159,14.159,0,0,1,2.85-4.608,13.279,13.279,0,0,1,4.387-3.105,13.078,13.078,0,0,1,3.545-.978v-3.9a18.35,18.35,0,0,0-5.279,1.278,17.686,17.686,0,0,0-5.8,3.82,17.143,17.143,0,0,0-3.817,5.816,20.325,20.325,0,0,0,0,14.638,17.14,17.14,0,0,0,3.817,5.817,17.693,17.693,0,0,0,5.8,3.819,18.346,18.346,0,0,0,5.279,1.278Z" transform="translate(-391.132 2688.092)" fill="#fff"/>
    <path id="Trazado_1043" data-name="Trazado 1043" d="M977.334,526.089a17.172,17.172,0,0,0-3.817-5.816,17.686,17.686,0,0,0-5.8-3.82,18.352,18.352,0,0,0-5.279-1.278v3.9a13.074,13.074,0,0,1,3.544.978,13.3,13.3,0,0,1,4.388,3.105,14.19,14.19,0,0,1,2.85,4.608,16.174,16.174,0,0,1,0,11.288,14.19,14.19,0,0,1-2.85,4.609,13.281,13.281,0,0,1-4.388,3.1,13.076,13.076,0,0,1-3.544.978v3.9a18.347,18.347,0,0,0,5.279-1.278,17.693,17.693,0,0,0,5.8-3.819,17.168,17.168,0,0,0,3.817-5.817,20.328,20.328,0,0,0,0-14.638" transform="translate(-405.34 2688.092)" fill="#fff"/>
    <path id="Trazado_1044" data-name="Trazado 1044" d="M961.135,541.136a7.319,7.319,0,1,1-7.319-7.277,7.3,7.3,0,0,1,7.319,7.277" transform="translate(-398.8 2680.364)" fill="#fff"/>
  </g>
</svg>
