<svg id="icon_UIUX" xmlns="http://www.w3.org/2000/svg" xmlns:xlink="http://www.w3.org/1999/xlink" width="144" height="117.819" viewBox="0 0 144 117.819">
  <defs>
    <clipPath id="clip-path">
      <rect id="Rectángulo_651" data-name="Rectángulo 651" width="144" height="117.819" fill="none"/>
    </clipPath>
  </defs>
  <g id="Grupo_413" data-name="Grupo 413" clip-path="url(#clip-path)">
    <path id="Trazado_1150" data-name="Trazado 1150" d="M.013,14.318q0,6.56,0,13.121L.019,14.229c0-.129,0-.259,0-.388q-.009.238-.009.476M2.034,6.562A13.136,13.136,0,0,1,7.878,1.347,12.992,12.992,0,0,0,2.034,6.562m0,0c-.179.3-.347.606-.5.921.156-.315.324-.621.5-.921M7.289,21.974c-.318,0-.588,0-.818-.006a4.467,4.467,0,0,0,.55.029q3.547-.018,7.094-.024ZM14.342.006c-.062,0-.121,0-.182,0h.147Q41.1,0,67.884,0,41.113,0,14.342.006m-.1,5.321c-.4,0-.8.018-1.182.053.365-.024.729-.032,1.094-.032q28.924,0,57.853,0-28.884,0-57.765-.021m95.315,16.647H129.9c-6.782-.012-13.562,0-20.341,0m29.018-9.956a8.107,8.107,0,0,0-7.394-6.629c-.076-.006-.153-.009-.226-.009A8.073,8.073,0,0,1,137.06,8.65a7.214,7.214,0,0,1,1.568,4.338c.015,2.444-.024,4.891.062,7.332.038,1.085-.282,1.535-1.147,1.647,1.3-.041,1.321-.306,1.279-2.047-.065-2.635.229-5.276-.247-7.9M136.728,27.15c1.938.006,1.941.1,1.941,2.282q0,27.887.009,55.771a15.305,15.305,0,0,0,.153,2.406V29.215c0-2.062,0-2.065-2.1-2.065" transform="translate(-0.007 0)" fill="#fff"/>
    <path id="Trazado_1151" data-name="Trazado 1151" d="M266.456,331.974c-.009-1.447-.006-2.9,0-4.344q0,2.171,0,4.344" transform="translate(-188.082 -231.268)" fill="#fff"/>
    <path id="Trazado_1152" data-name="Trazado 1152" d="M269.31,349.8l-.406,0c-1.518-.009-2.374-1.065-2.394-2.759v-.144c.106,1.909.938,2.768,2.8,2.906" transform="translate(-188.125 -244.864)" fill="#fff"/>
    <path id="Trazado_1153" data-name="Trazado 1153" d="M284.069,327.564a2.672,2.672,0,0,1-.1-.865c.009-1.021.015-2.038.018-3.059q0,1.615,0,3.229a2.3,2.3,0,0,0,.085.694" transform="translate(-200.449 -228.452)" fill="#fff"/>
    <path id="Trazado_1154" data-name="Trazado 1154" d="M401.254,125.654q-3.975-.022-7.944-.024h7.327c.218,0,.423.009.618.024" transform="translate(-277.631 -88.68)" fill="#fff"/>
    <path id="Trazado_1155" data-name="Trazado 1155" d="M429.719,136.1v.888c0-.429-.006-.862-.009-1.291.006.129.009.265.009.4" transform="translate(-303.325 -95.788)" fill="#fff"/>
    <path id="Trazado_1156" data-name="Trazado 1156" d="M429.743,155.99q.009,12.556,0,25.109V157.914q0-.962,0-1.924" transform="translate(-303.346 -110.111)" fill="#fff"/>
    <path id="Trazado_1157" data-name="Trazado 1157" d="M86.077,159.874q-11.441,0-22.883,0c-2.507,0-3.329-.822-3.33-3.345q-.01-13.787,0-27.575c0-2.474.871-3.326,3.377-3.326q22.883-.007,45.766,0c2.477,0,3.439.816,3.454,3.305q.082,13.787,0,27.574c-.014,2.614-.905,3.367-3.505,3.368q-11.442,0-22.883,0m0-29.069c-6.407,0-12.815.036-19.221-.028-1.379-.014-1.861.341-1.845,1.791q.107,10.2.005,20.393c-.011,1.321.34,1.773,1.721,1.768q19.368-.071,38.736,0c1.42.006,1.711-.517,1.7-1.8q-.072-10.2,0-20.394c.011-1.323-.354-1.779-1.733-1.764-6.455.066-12.912.029-19.368.029" transform="translate(-42.253 -88.674)" fill="#fff"/>
    <path id="Trazado_1158" data-name="Trazado 1158" d="M86.133,318Q75.064,318,64,318a11.457,11.457,0,0,1-1.61-.049,2.714,2.714,0,0,1-2.439-2.669,2.511,2.511,0,0,1,2.434-2.454,17.872,17.872,0,0,1,2.336-.146q21.55-.012,43.1,0a15.386,15.386,0,0,1,2.48.175,2.291,2.291,0,0,1,2.088,2.274,2.4,2.4,0,0,1-1.791,2.676,6.165,6.165,0,0,1-2.031.191q-11.215.006-22.43,0" transform="translate(-42.315 -220.714)" fill="#fff"/>
    <path id="Trazado_1159" data-name="Trazado 1159" d="M86.274,269.35q11.51,0,23.021,0c1.954,0,3,.827,3.09,2.37a2.469,2.469,0,0,1-2.236,2.762,10.644,10.644,0,0,1-1.464.04q-22.507,0-45.015,0c-.293,0-.587.007-.88-.005a2.682,2.682,0,0,1-2.853-2.685,2.583,2.583,0,0,1,2.876-2.477q11.73-.026,23.461-.009" transform="translate(-42.307 -190.127)" fill="#fff"/>
    <path id="Trazado_1160" data-name="Trazado 1160" d="M89.407,36.16a4.112,4.112,0,1,1-8.224.015,4.208,4.208,0,0,1,4.094-4.138,4.265,4.265,0,0,1,4.129,4.123" transform="translate(-57.306 -22.614)" fill="#fff"/>
    <path id="Trazado_1161" data-name="Trazado 1161" d="M47.938,36.219a4.031,4.031,0,0,1-4.109,4.071,4.129,4.129,0,0,1,.116-8.257,4.041,4.041,0,0,1,3.993,4.185" transform="translate(-28.117 -22.612)" fill="#fff"/>
    <path id="Trazado_1162" data-name="Trazado 1162" d="M131.16,36.169a4.067,4.067,0,0,1-4.076,4.119,4.131,4.131,0,0,1,.033-8.26,4.058,4.058,0,0,1,4.043,4.141" transform="translate(-86.86 -22.607)" fill="#fff"/>
    <path id="Trazado_1163" data-name="Trazado 1163" d="M314.478,129.878c0-.429-.006-.862-.009-1.291a.144.144,0,0,0,0-.035c-.106-1.894-.924-2.753-2.759-2.9q-3.975-.022-7.944-.024h-2.9q-15.507,0-31.012,0c-2.579,0-3.391.829-3.394,3.447q0,14.969,0,29.938v23.765q0,.913,0,1.826c0,.144,0,.291,0,.435q0,2.171,0,4.344c0,.426.006.856.009,1.285,0,.012,0,.024,0,.035.106,1.909.938,2.768,2.8,2.906q2.272.013,4.547.021c.182,0,.362,0,.541,0q4.006,0,8.012,0,14.356,0,28.712,0c2.582,0,3.394-.826,3.394-3.444q.009-15.115,0-30.232V136.478q0-.962,0-1.924v-.335q0-2.171,0-4.341m-6.615,58.588q-14.978-.035-29.953,0c-.474,0-.944,0-1.418,0h-.009q-1.681,0-3.368.015c-.638,0-1.065-.091-1.288-.441-.012-.021-.026-.041-.038-.062a.266.266,0,0,1-.038-.076c-.012-.026-.024-.053-.035-.082a.106.106,0,0,1-.012-.032,2.672,2.672,0,0,1-.1-.865c.009-1.021.015-2.038.018-3.059q.009-3.106.006-6.209.026-22.721-.009-45.441c0-1.1.382-1.426,1.453-1.424q14.974.035,29.947,0c.476,0,.95,0,1.426,0l3.406-.006c.741,0,1.132.162,1.326.553a.274.274,0,0,1,.018.044.734.734,0,0,1,.032.085,2.6,2.6,0,0,1,.1.865q-.013,1.6-.018,3.191,0,3.075-.006,6.15-.027,22.685.009,45.368c0,1.1-.382,1.429-1.453,1.426" transform="translate(-188.084 -88.675)" fill="#fff"/>
    <path id="Trazado_1164" data-name="Trazado 1164" d="M411.975,149.546c0-1.121,0-2.238,0-3.359a2.3,2.3,0,0,0-.088-.7,2.605,2.605,0,0,1,.1.865q-.013,1.6-.018,3.191" transform="translate(-290.746 -102.699)" fill="#fff"/>
    <path id="Trazado_1165" data-name="Trazado 1165" d="M423.079,128.469v.144c-.106-1.894-.924-2.753-2.759-2.9l.365,0c1.518.009,2.374,1.065,2.394,2.756" transform="translate(-296.696 -88.736)" fill="#fff"/>
    <path id="Trazado_1166" data-name="Trazado 1166" d="M266.455,239.14V262.9q0,.913,0,1.826-.009-12.649,0-25.3c0-.1,0-.194,0-.294" transform="translate(-188.081 -168.805)" fill="#fff"/>
    <path id="Trazado_1167" data-name="Trazado 1167" d="M266.479,343.685c-.006-.126-.009-.262-.009-.4V342.4c0,.426.006.856.009,1.285" transform="translate(-188.096 -241.694)" fill="#fff"/>
    <path id="Trazado_1168" data-name="Trazado 1168" d="M280.577,356.791h-3.971c-.2,0-.394-.006-.576-.021q2.272.013,4.547.021" transform="translate(-194.845 -251.838)" fill="#fff"/>
    <path id="Trazado_1169" data-name="Trazado 1169" d="M289.386,338.266q-1.681,0-3.368.015c-.638,0-1.065-.091-1.288-.441.212.3.6.435,1.256.432l3.4-.006" transform="translate(-200.986 -238.475)" fill="#fff"/>
    <path id="Trazado_1170" data-name="Trazado 1170" d="M429.743,144.431q0-2.171,0-4.341c.009,1.447.006,2.894,0,4.341" transform="translate(-303.346 -98.887)" fill="#fff"/>
    <path id="Trazado_1171" data-name="Trazado 1171" d="M17.546,29.215V87.609A15.3,15.3,0,0,0,17.7,85.2q.013-27.887.009-55.771c0-2.065,0-2.262,1.656-2.279-1.815,0-1.818.1-1.818,2.062M25.2,5.388A8.109,8.109,0,0,0,17.8,12.018c-.476,2.626-.182,5.268-.247,7.9-.041,1.741-.018,2.006,1.279,2.047-.865-.112-1.185-.562-1.147-1.647.085-2.441.047-4.888.062-7.332A7.214,7.214,0,0,1,19.316,8.65a8.073,8.073,0,0,1,6.106-3.271c-.074,0-.15,0-.226.009m1.282,16.585H46.819c-6.779,0-13.559-.012-20.341,0M142.034.006Q115.264,0,88.493,0q26.788,0,53.576.009h.147c-.062,0-.121,0-.182,0m.1,5.321q-28.879.022-57.765.021,28.928,0,57.853,0c.365,0,.729.009,1.094.032-.382-.035-.779-.053-1.182-.053m6.953,16.647h-6.826q3.547.009,7.094.024a4.466,4.466,0,0,0,.55-.029c-.229.006-.5.006-.818.006m5.256-15.409c.179.3.347.606.5.921-.156-.315-.324-.624-.5-.921M148.5,1.347a13.136,13.136,0,0,1,5.844,5.215A12.992,12.992,0,0,0,148.5,1.347m7.865,12.971q0-.238-.009-.476c0,.129,0,.259,0,.388q0,6.6.009,13.209,0-6.56,0-13.121" transform="translate(-12.369)" fill="#fff"/>
    <path id="Trazado_1172" data-name="Trazado 1172" d="M144,29.535v-2.1q0-6.6-.009-13.209c0-.129,0-.259,0-.388s-.009-.256-.015-.385-.015-.253-.021-.379-.021-.253-.032-.379c-.024-.279-.059-.553-.1-.824q-.018-.141-.044-.282c-.018-.1-.032-.2-.053-.3-.044-.241-.094-.479-.147-.715l-.088-.353c-.059-.232-.126-.462-.2-.688-.024-.085-.053-.168-.082-.253-.129-.394-.276-.779-.435-1.153-.094-.218-.194-.429-.3-.641-.156-.315-.324-.621-.5-.921,0,0,0,0,0,0a13.136,13.136,0,0,0-5.844-5.215s0,0,0,0c-.215-.1-.432-.191-.653-.279S135.026.9,134.8.821h0c-.224-.076-.45-.147-.676-.212-.115-.035-.232-.065-.347-.094-.229-.062-.465-.115-.7-.165-.118-.026-.238-.05-.359-.071-.279-.053-.562-.1-.85-.132s-.591-.071-.891-.091c-.162-.015-.326-.024-.491-.029-.091-.006-.179-.009-.271-.009-.059-.006-.118-.006-.176-.006s-.121,0-.182,0H129.7Q102.912,0,76.124,0H67.876Q41.088,0,14.3.009h-.147c-.062,0-.124,0-.182,0s-.118,0-.176.006c-.091,0-.179,0-.271.009-.165.006-.326.018-.491.029-.3.021-.6.053-.891.091s-.571.079-.85.132c-.121.021-.241.044-.359.071-.238.05-.474.1-.7.165-.118.029-.232.062-.347.094-.226.065-.453.135-.676.212h0c-.229.076-.453.162-.676.247s-.438.182-.653.279c0,0,0,0,0,0A13.136,13.136,0,0,0,2.026,6.562s0,0,0,0c-.179.3-.347.606-.5.921-.1.212-.2.424-.3.641C1.068,8.5.921,8.885.791,9.279c-.029.085-.059.168-.082.253-.071.226-.138.456-.2.688-.032.118-.059.235-.088.353-.053.235-.1.474-.147.715-.021.1-.038.2-.053.3s-.032.188-.044.282c-.038.271-.071.547-.1.824-.012.126-.024.253-.032.379s-.015.253-.021.379-.009.256-.015.385,0,.259,0,.388L0,27.438v2.1Q0,40.565,0,51.6q0,25.9,0,51.8c0,8.453,5.826,14.394,14.247,14.4q28.875.026,57.75.015,28.875,0,57.75-.015c8.421-.009,14.244-5.95,14.247-14.4q0-25.9,0-51.8,0-11.029,0-22.062m-5.174,73.647c0,3.029-.841,5.691-3.359,7.606a8.217,8.217,0,0,1-5.2,1.671c-7.926-.032-15.853-.012-23.776-.012q-16.844,0-33.685,0c-.538,0-1.074,0-1.609,0q-16.844,0-33.685,0c-7.926,0-15.853-.021-23.779.012a8.217,8.217,0,0,1-5.2-1.671c-2.518-1.915-3.359-4.576-3.359-7.606V29.215c0-1.965,0-2.059,1.818-2.062.171,0,.359,0,.568,0H136.721c2.1,0,2.1,0,2.1,2.065Zm-.009-83.262c.041,1.741.018,2.006-1.279,2.047a4.467,4.467,0,0,1-.55.029q-3.547-.018-7.094-.024H14.109q-3.547.009-7.094.024a4.467,4.467,0,0,1-.55-.029c-1.3-.041-1.321-.306-1.279-2.047.065-2.635-.229-5.276.247-7.9a8.109,8.109,0,0,1,7.394-6.629c.076-.006.153-.009.226-.009.382-.035.779-.053,1.182-.053Q43.115,5.349,72,5.347t57.765-.021c.4,0,.8.018,1.182.053.074,0,.15,0,.226.009a8.107,8.107,0,0,1,7.394,6.629c.476,2.626.182,5.268.247,7.9" fill="#fff"/>
  </g>
</svg>
