<svg xmlns="http://www.w3.org/2000/svg" xmlns:xlink="http://www.w3.org/1999/xlink" width="114" height="105.004" viewBox="0 0 114 105.004">
  <defs>
    <clipPath id="clip-path">
      <rect id="Rect치ngulo_575" data-name="Rect치ngulo 575" width="95.662" height="62.93" fill="#fff"/>
    </clipPath>
    <clipPath id="clip-path-2">
      <rect id="Rect치ngulo_574" data-name="Rect치ngulo 574" width="95.381" height="62.464" fill="#fff"/>
    </clipPath>
  </defs>
  <g id="Grupo_394" data-name="Grupo 394" transform="translate(-1339 -3176)">
    <text id="Heritage_Me" data-name="Heritage Me" transform="translate(1339 3276.004)" fill="#fff" font-size="19.708" font-family="Futura-Medium, Futura" font-weight="500"><tspan x="0" y="0">Heritage Me</tspan></text>
    <g id="Grupo_392" data-name="Grupo 392" transform="translate(1348.169 3176)">
      <g id="Grupo_391" data-name="Grupo 391" transform="translate(0 0)" clip-path="url(#clip-path)">
        <g id="Grupo_390" data-name="Grupo 390" transform="translate(0.282 0.467)">
          <g id="Grupo_389" data-name="Grupo 389" clip-path="url(#clip-path-2)">
            <g id="Grupo_388" data-name="Grupo 388">
              <g id="Grupo_387" data-name="Grupo 387" clip-path="url(#clip-path-2)">
                <path id="Trazado_1045" data-name="Trazado 1045" d="M4.266,50.381A4.853,4.853,0,0,1,.623,47.492a4.774,4.774,0,0,1,4.32-6.744A4.787,4.787,0,0,1,9.671,43.9a4.914,4.914,0,0,1-1.653,5.568,7.188,7.188,0,0,1-2.128.914Z" transform="translate(-0.215 12.082)" fill="#fff"/>
                <path id="Trazado_1046" data-name="Trazado 1046" d="M75.6,14.073a1.544,1.544,0,0,1-1.946-.332q-1.24-1.112-2.433-2.268c-.424-.411-.778-.616-1.269.043-.749,1-1.635,1.908-2.466,2.851-.139.157-.29.3-.442.45a.965.965,0,0,1-1.439.131,1.021,1.021,0,0,1,.063-1.53c.965-1.1,1.928-2.213,2.926-3.288.378-.407.479-.617-.043-1.039-1-.807-1.9-1.734-2.853-2.607-.5-.459-.774-1.032-.266-1.564s1.134-.279,1.613.14c.9.787,1.789,1.6,2.639,2.442.456.454.727.654,1.227-.014.768-1.027,1.674-1.951,2.526-2.918a1.086,1.086,0,0,1,1.594-.246,1.05,1.05,0,0,1-.1,1.529c-.891,1.011-1.757,2.044-2.679,3.025-.387.412-.385.712.039,1.028,1.177.883,2.082,2.074,3.305,2.905Z" transform="translate(19.785 0.787)" fill="#fff"/>
                <path id="Trazado_1047" data-name="Trazado 1047" d="M24.567,22.745c0,6.939-.022,13.878.022,20.816.007.988-.3,1.534-1.239,1.753-.441.1-.776.3-.8.827a.644.644,0,0,1-.449.519c-1.66.772-3.325,1.538-4.981,2.32a.66.66,0,0,1-.99-.276.606.606,0,0,1,.4-.93c1.8-.464,1.838-1.742,1.873-3.3.1-4.863.064-9.729.213-14.589.111-3.724.055-7.448.143-11.17q.049-2.025.146-4.048c.029-.607-.188-.9-.828-.859-.479.03-.963-.01-1.443.008-.616.024-1.138,0-1.178-.836-.024-.509-.507-.422-.851-.425-1.77-.009-1.653.173-1.659-1.755,0-.331.018-.663,0-.991a.811.811,0,0,1,.679-.906Q21.4,6.461,29.176,4C32.788,2.864,36.4,1.73,40,.569A3.833,3.833,0,0,1,42.458.55c5.749,1.844,11.509,3.656,17.267,5.474,3.008.951,6.015,1.9,9.029,2.83a.9.9,0,0,1,.76,1.036,8.116,8.116,0,0,0,0,1.261c.076.893-.048,1.57-1.209,1.41-.4-.056-.617.182-.627.585-.018.574-.387.668-.861.664-.933-.01-1.865.022-2.8-.009-.63-.021-.849.242-.836.855.084,3.452-.048,6.9.109,10.36.145,3.178.043,6.37.051,9.555,0,1.244,0,1.236,1.254,1.171a11.267,11.267,0,0,1,1.877-.184c.368.041.772.026.814.514.048.556-.385.717-.81.782-.976.153-1.971.2-2.938.4-1.8.369-3.618-.215-5.419.135-.78.152-.78-.43-.777-.971.01-3.241.224-6.476.215-9.72-.014-3.9.1-7.807.145-11.712.012-1.176,0-1.178-1.215-1.18-1.805,0-3.609.02-5.415-.009-.666-.012-.913.232-.885.895.3,7.267.144,14.538.177,21.808,0,.77.339.927,1,.829,1.186-.174,2.371-.328,3.559-.479.463-.059.9.061.963.576.063.48-.323.662-.747.719-1.78.239-3.566.455-5.34.73-.572.089-.9-.493-1.43-.4q-1.109.194-2.213.408a3.755,3.755,0,0,0-1.937.777c-.714.619-1.821.483-2.743.738a29.465,29.465,0,0,1-2.9.616c-.361.061-.824.1-.883-.487-.05-.49.229-.71.658-.81a45.648,45.648,0,0,1,5.284-1.082c.555-.059.738-.293.73-.791,0-.271.008-.542.012-.812.051-3.662-.018-7.332.187-10.988.209-3.694.058-7.384.195-11.072.035-.909-.255-1.215-1.176-1.184-1.831.063-3.669.038-5.5.009-.664-.012-.935.23-.885.893.364,4.914.086,9.841.289,14.762.141,3.481.046,6.97.068,10.456a.714.714,0,0,1-.568.8c-.722.2-1.439.42-2.161.634-.627.186-1.283.3-1.615,1-.152.318-.547.349-.854.455q-2.256.783-4.52,1.539c-.445.15-.926.277-1.117-.328-.178-.562.191-.8.676-.963,1.052-.353,2.082-.78,3.146-1.092.688-.2.851-.6.857-1.257.035-3.573.112-7.145.162-10.719q.1-7.479.187-14.957c.013-1.2-.005-1.206-1.2-1.209q-2.482,0-4.964,0c-1.227,0-1.228.005-1.228,1.273q0,3.832,0,7.663h.216" transform="translate(3.704 -0.357)" fill="#fff"/>
                <path id="Trazado_1048" data-name="Trazado 1048" d="M8.457,43.084a.575.575,0,0,1-.646-.369.721.721,0,0,1,.322-.857c.479-.357.982-.683,1.487-1,.984-.627,1.974-1.241,2.963-1.86.409-.256.871-.434,1.182.059.29.462.029.855-.4,1.127-1.386.883-2.777,1.762-4.161,2.65a1.176,1.176,0,0,1-.748.252" transform="translate(2.11 11.465)" fill="#fff"/>
                <path id="Trazado_1049" data-name="Trazado 1049" d="M66.222,24.734a.723.723,0,0,1-.447-1.245,14.475,14.475,0,0,0,1.934-2.679c.3-.582.572-1.18.853-1.772a.612.612,0,0,1,.8-.391.622.622,0,0,1,.464.838,12.734,12.734,0,0,1-3.261,5.075,1.228,1.228,0,0,1-.343.174" transform="translate(19.904 5.263)" fill="#fff"/>
                <path id="Trazado_1050" data-name="Trazado 1050" d="M58.866,28.073c-.56.025-.895-.029-.984-.432-.1-.433.188-.684.545-.806.819-.281,1.665-.485,2.473-.793.892-.337,1.754-.757,2.63-1.138a.664.664,0,0,1,.65,1.158,18.654,18.654,0,0,1-5.316,2.01" transform="translate(17.539 7.178)" fill="#fff"/>
                <path id="Trazado_1051" data-name="Trazado 1051" d="M68.84,14.939a17.435,17.435,0,0,0,.052-2.282c-.076-.366.211-.664.663-.675.421-.009.542.213.616.6a21.453,21.453,0,0,1-.014,2.943c.024.422-.089.789-.617.808-.577.021-.7-.351-.7-.823v-.569" transform="translate(20.917 3.223)" fill="#fff"/>
              </g>
            </g>
          </g>
        </g>
      </g>
    </g>
  </g>
</svg>
