<svg xmlns="http://www.w3.org/2000/svg" xmlns:xlink="http://www.w3.org/1999/xlink" width="102.96" height="122.242" viewBox="0 0 102.96 122.242">
  <defs>
    <clipPath id="clip-path">
      <rect id="Rectángulo_650" data-name="Rectángulo 650" width="102.96" height="122.242" fill="none"/>
    </clipPath>
  </defs>
  <g id="icon_design" transform="translate(-1365 -7.242)">
    <g id="Grupo_411" data-name="Grupo 411" transform="translate(1365 7.242)" clip-path="url(#clip-path)">
      <path id="Trazado_1141" data-name="Trazado 1141" d="M51.689,0,94.381,27.518c2.223,1.433,4.45,2.861,6.668,4.3,1.871,1.217,1.9,2.85.058,4.1q-7.985,5.4-15.989,10.763c-1.081.728-1.075.748.023,1.453s2.183,1.434,3.3,2.1c.607.364.735.707.359,1.382-1.506,2.7-1.487,2.717-4.048,1.069-1.127-.725-2.276-1.417-3.37-2.194a1.5,1.5,0,0,0-1.98-.01C70.808,56.3,62.174,62.062,53.594,67.9a3.215,3.215,0,0,1-4.1.042C40.76,62.225,31.965,56.6,23.205,50.917a1.23,1.23,0,0,0-1.6.031c-1.681,1.171-3.407,2.272-5.084,3.447-.622.436-.982.413-1.427-.276-1.638-2.535-1.661-2.52.8-4.189.614-.416,1.234-.822,1.848-1.236.959-.647.961-.653-.06-1.312Q11.774,43.564,5.86,39.75q-2.223-1.434-4.447-2.866c-1.866-1.206-1.892-2.81-.025-4.068Q15.35,23.4,29.329,14.014,39.3,7.307,49.277.6c.261-.176.493-.4.738-.6ZM96.626,33.824c-.178-.126-.371-.272-.573-.4Q73.918,19.135,51.789,4.839a1.252,1.252,0,0,0-1.6.011Q28.409,19.521,6.6,34.148c-.716.48-.9.717-.033,1.273Q28.417,49.466,50.221,63.582a2,2,0,0,0,2.6-.037c8.351-5.674,16.739-11.287,25.115-16.921q9.05-6.086,18.094-12.181c.218-.147.535-.206.592-.619" transform="translate(0)" fill="#fff"/>
      <path id="Trazado_1142" data-name="Trazado 1142" d="M53.85,358.818a2.784,2.784,0,0,1-1.738-.688q-20.765-13.39-41.527-26.784-3.379-2.179-6.758-4.359c-2-1.3-2.033-2.884-.063-4.213q7.989-5.389,15.991-10.757c1-.669.994-.681.006-1.321-1.865-1.208-3.722-2.431-5.608-3.6-.648-.4-.818-.79-.352-1.464.427-.618.791-1.284,1.165-1.94.272-.475.579-.534,1.033-.24q5.992,3.889,12,7.747a.7.7,0,0,1,.228,1.15c-.182.265-.328.557-.495.834-1.038,1.722-1.047,1.738-2.8.861a1.026,1.026,0,0,0-1.158.15q-7.6,5.115-15.2,10.22c-.924.619-.067.767.243.968q12.75,8.246,25.516,16.467,9.247,5.965,18.482,11.952a1.514,1.514,0,0,0,1.961,0q21.6-14.569,43.227-29.084c1.133-.762,1.128-.761-.07-1.534-4.772-3.079-9.556-6.138-14.3-9.263-.851-.561-1.529-.74-2.31,0-.742.7-1.29.476-1.675-.423a3.382,3.382,0,0,0-.22-.37c-1.342-2.274-1.611-1.715.675-3.264,3.42-2.316,6.868-4.588,10.276-6.921.707-.484,1.148-.506,1.562.323a12.3,12.3,0,0,0,1.021,1.646c.448.624.286,1.007-.31,1.4-1.887,1.24-3.725,2.563-5.633,3.765-.883.556-.691.82.035,1.285q8.062,5.166,16.1,10.373c2.124,1.369,2.175,2.922.109,4.312q-23.941,16.108-47.891,32.2a2.265,2.265,0,0,1-1.525.576" transform="translate(-1.823 -236.585)" fill="#fff"/>
      <path id="Trazado_1143" data-name="Trazado 1143" d="M214.637,406.795a2.837,2.837,0,0,1-1.4-.514c-2.253-1.451-4.5-2.916-6.763-4.344-.592-.373-.807-.721-.348-1.371a12.8,12.8,0,0,0,1.045-1.759c.39-.8.827-.767,1.487-.319,1.693,1.149,3.436,2.219,5.135,3.358a1.156,1.156,0,0,0,1.509-.017c1.706-1.195,3.47-2.3,5.171-3.5.664-.47,1.033-.36,1.4.332a17.452,17.452,0,0,0,1.08,1.737c.381.55.365.94-.229,1.33-2.329,1.529-4.637,3.093-6.956,4.638a2.526,2.526,0,0,1-1.137.433" transform="translate(-162.816 -311.205)" fill="#fff"/>
      <path id="Trazado_1144" data-name="Trazado 1144" d="M450.759,254.337a2.145,2.145,0,0,1-.97,1.686c-2.34,1.575-4.688,3.138-7.021,4.724-.482.328-.809.289-1.111-.234-.395-.684-.8-1.366-1.244-2.014-.38-.554-.242-.9.272-1.231,1.21-.789,2.392-1.625,3.605-2.411.642-.416.667-.739,0-1.151-1.138-.7-2.227-1.5-3.391-2.148-.883-.492-.941-1-.368-1.777a10,10,0,0,0,.885-1.477c.345-.688.714-.841,1.4-.386,2.228,1.488,4.49,2.921,6.742,4.369a2.3,2.3,0,0,1,1.205,2.049" transform="translate(-348.084 -193.631)" fill="#fff"/>
      <path id="Trazado_1145" data-name="Trazado 1145" d="M1.32,258.129a2.173,2.173,0,0,1,.971-1.748c2.313-1.557,4.638-3.093,6.938-4.67.56-.384.92-.358,1.263.262.365.66.758,1.307,1.183,1.927.378.551.247.9-.27,1.235-1.212.788-2.39,1.634-3.611,2.405-.665.42-.788.692-.018,1.147,1.242.734,2.428,1.571,3.662,2.32.594.361.671.736.289,1.313-.415.627-.8,1.278-1.16,1.942-.314.582-.656.617-1.183.271C7.056,263,4.709,261.5,2.369,259.991a2.188,2.188,0,0,1-1.049-1.862" transform="translate(-1.044 -196.6)" fill="#fff"/>
      <path id="Trazado_1146" data-name="Trazado 1146" d="M304.779,350.112c.582-.006,2.381,2.887,2.117,3.3a2.179,2.179,0,0,1-.645.534c-3.767,2.542-7.545,5.065-11.3,7.63-.669.457-1.1.489-1.481-.315a12.053,12.053,0,0,0-.726-1.194c-.844-1.355-.843-1.353.423-2.2q5.4-3.619,10.795-7.239c.29-.194.591-.37.816-.51" transform="translate(-231.044 -273.733)" fill="#fff"/>
      <path id="Trazado_1147" data-name="Trazado 1147" d="M133.182,352.032c.182.1.431.23.666.382,3.816,2.461,7.623,4.938,11.453,7.377.677.431.819.775.367,1.533-1.509,2.536-1.482,2.562-3.883,1.019-3.317-2.131-6.612-4.3-9.953-6.39-.853-.534-.929-1-.352-1.776.4-.542.707-1.163,1.063-1.744.131-.213.267-.436.638-.4" transform="translate(-103.683 -275.231)" fill="#fff"/>
      <path id="Trazado_1148" data-name="Trazado 1148" d="M219.53,43.107a2.784,2.784,0,0,1,1.267.471c1.631,1.047,3.249,2.116,4.9,3.137.615.382.7.732.318,1.388-1.549,2.663-1.621,2.807-4.04.985-1.72-1.295-3.132-1.557-4.734.022a17.255,17.255,0,0,1-1.735,1.206c-.6.457-.93.3-1.323-.328-1.615-2.572-1.636-2.56.838-4.236,1.051-.713,2.111-1.411,3.16-2.127a2.787,2.787,0,0,1,1.356-.518" transform="translate(-168.481 -33.703)" fill="#fff"/>
      <path id="Trazado_1149" data-name="Trazado 1149" d="M221.14,246.582a2.825,2.825,0,0,1-1.173-.42c-1.625-1.05-3.242-2.112-4.882-3.136-.55-.343-.574-.665-.268-1.226,1.53-2.809,1.5-2.783,4.089-1.148,2.709,1.709,1.725,1.779,4.509-.068,2.323-1.54,2.271-1.537,3.779.853.539.855.415,1.277-.39,1.774-1.434.886-2.812,1.871-4.215,2.811a2.866,2.866,0,0,1-1.448.56" transform="translate(-169.726 -187.267)" fill="#fff"/>
    </g>
  </g>
</svg>
